%TF.GenerationSoftware,KiCad,Pcbnew,(5.99.0-9885-g7a8abcadd2)*%
%TF.CreationDate,2021-03-25T06:13:52-06:00*%
%TF.ProjectId,spinnybot-motherboad,7370696e-6e79-4626-9f74-2d6d6f746865,rev?*%
%TF.SameCoordinates,Original*%
%TF.FileFunction,Soldermask,Bot*%
%TF.FilePolarity,Negative*%
%FSLAX46Y46*%
G04 Gerber Fmt 4.6, Leading zero omitted, Abs format (unit mm)*
G04 Created by KiCad (PCBNEW (5.99.0-9885-g7a8abcadd2)) date 2021-03-25 06:13:52*
%MOMM*%
%LPD*%
G01*
G04 APERTURE LIST*
%ADD10C,0.600000*%
%ADD11R,1.700000X1.700000*%
%ADD12O,1.700000X1.700000*%
%ADD13C,3.000000*%
%ADD14R,1.295400X1.295400*%
%ADD15C,1.295400*%
%ADD16R,1.600000X1.600000*%
%ADD17O,1.600000X1.600000*%
%ADD18R,1.400000X1.400000*%
%ADD19C,1.400000*%
G04 APERTURE END LIST*
D10*
%TO.C,TP1*%
X110290146Y-60613486D03*
%TD*%
D11*
%TO.C,J15*%
X122000000Y-95000000D03*
D12*
X122000000Y-92460000D03*
X122000000Y-89920000D03*
X122000000Y-87380000D03*
%TD*%
D11*
%TO.C,J3*%
X89750000Y-63010000D03*
D12*
X89750000Y-60470000D03*
X89750000Y-57930000D03*
%TD*%
D13*
%TO.C,H5*%
X136250000Y-96500000D03*
%TD*%
%TO.C,H2*%
X106500000Y-111100000D03*
%TD*%
D14*
%TO.C,U1*%
X99380000Y-68140000D03*
D15*
X99380000Y-70680000D03*
X99380000Y-73220000D03*
X99380000Y-75760000D03*
X99380000Y-78300000D03*
X99380000Y-80840000D03*
X99380000Y-83380000D03*
X99380000Y-85920000D03*
X99380000Y-88460000D03*
X99380000Y-91000000D03*
X107000000Y-91000000D03*
X107000000Y-88460000D03*
X107000000Y-85920000D03*
X107000000Y-83380000D03*
X107000000Y-80840000D03*
X107000000Y-78300000D03*
X107000000Y-75760000D03*
X107000000Y-73220000D03*
X107000000Y-70680000D03*
X107000000Y-68140000D03*
%TD*%
D13*
%TO.C,H1*%
X93500000Y-54000000D03*
%TD*%
%TO.C,H6*%
X122500000Y-111100000D03*
%TD*%
D11*
%TO.C,J1*%
X81250000Y-63040000D03*
D12*
X81250000Y-60500000D03*
X81250000Y-57960000D03*
%TD*%
D11*
%TO.C,J6*%
X136025000Y-87250000D03*
D12*
X133485000Y-87250000D03*
X130945000Y-87250000D03*
%TD*%
D11*
%TO.C,J4*%
X132775000Y-60750000D03*
D12*
X130235000Y-60750000D03*
%TD*%
D16*
%TO.C,A1*%
X80390000Y-69950000D03*
D17*
X80390000Y-72490000D03*
X80390000Y-75030000D03*
X80390000Y-77570000D03*
X80390000Y-80110000D03*
X80390000Y-82650000D03*
X80390000Y-85190000D03*
X80390000Y-87730000D03*
X80390000Y-90270000D03*
X80390000Y-92810000D03*
X80390000Y-95350000D03*
X80390000Y-97890000D03*
X80390000Y-100430000D03*
X80390000Y-102970000D03*
X80390000Y-105510000D03*
X95630000Y-105510000D03*
X95630000Y-102970000D03*
X95630000Y-100430000D03*
X95630000Y-97890000D03*
X95630000Y-95350000D03*
X95630000Y-92810000D03*
X95630000Y-90270000D03*
X95630000Y-87730000D03*
X95630000Y-85190000D03*
X95630000Y-82650000D03*
X95630000Y-80110000D03*
X95630000Y-77570000D03*
X95630000Y-75030000D03*
X95630000Y-72490000D03*
X95630000Y-69950000D03*
%TD*%
D11*
%TO.C,J2*%
X85500000Y-63040000D03*
D12*
X85500000Y-60500000D03*
X85500000Y-57960000D03*
%TD*%
D11*
%TO.C,J5*%
X110750000Y-67150000D03*
D12*
X110750000Y-69690000D03*
X110750000Y-72230000D03*
X110750000Y-74770000D03*
X110750000Y-77310000D03*
X110750000Y-79850000D03*
%TD*%
D11*
%TO.C,J17*%
X114500000Y-95000000D03*
D12*
X114500000Y-92460000D03*
X114500000Y-89920000D03*
X114500000Y-87380000D03*
%TD*%
D13*
%TO.C,H3*%
X114500000Y-111100000D03*
%TD*%
%TO.C,H4*%
X130500000Y-111100000D03*
%TD*%
D11*
%TO.C,J16*%
X118250000Y-95000000D03*
D12*
X118250000Y-92460000D03*
X118250000Y-89920000D03*
X118250000Y-87380000D03*
%TD*%
D18*
%TO.C,U5*%
X137000000Y-59750000D03*
D19*
X137000000Y-61750000D03*
X137000000Y-63750000D03*
X137000000Y-65750000D03*
X137000000Y-67750000D03*
X137000000Y-69750000D03*
X137000000Y-71750000D03*
X137000000Y-73750000D03*
X137000000Y-75750000D03*
X137000000Y-77750000D03*
X115000000Y-77750000D03*
X115000000Y-75750000D03*
X115000000Y-73750000D03*
X115000000Y-71750000D03*
X115000000Y-69750000D03*
X115000000Y-67750000D03*
X115000000Y-65750000D03*
X115000000Y-63750000D03*
X115000000Y-61750000D03*
X115000000Y-59750000D03*
%TD*%
M02*
