%TF.GenerationSoftware,KiCad,Pcbnew,(5.99.0-9885-g7a8abcadd2)*%
%TF.CreationDate,2021-03-25T06:13:52-06:00*%
%TF.ProjectId,spinnybot-motherboad,7370696e-6e79-4626-9f74-2d6d6f746865,rev?*%
%TF.SameCoordinates,Original*%
%TF.FileFunction,Legend,Bot*%
%TF.FilePolarity,Positive*%
%FSLAX46Y46*%
G04 Gerber Fmt 4.6, Leading zero omitted, Abs format (unit mm)*
G04 Created by KiCad (PCBNEW (5.99.0-9885-g7a8abcadd2)) date 2021-03-25 06:13:52*
%MOMM*%
%LPD*%
G01*
G04 APERTURE LIST*
%ADD10C,0.200000*%
%ADD11C,0.300000*%
%ADD12C,0.150000*%
G04 APERTURE END LIST*
D10*
X92354285Y-105951428D02*
X92297142Y-105780000D01*
X92297142Y-105494285D01*
X92354285Y-105380000D01*
X92411428Y-105322857D01*
X92525714Y-105265714D01*
X92640000Y-105265714D01*
X92754285Y-105322857D01*
X92811428Y-105380000D01*
X92868571Y-105494285D01*
X92925714Y-105722857D01*
X92982857Y-105837142D01*
X93040000Y-105894285D01*
X93154285Y-105951428D01*
X93268571Y-105951428D01*
X93382857Y-105894285D01*
X93440000Y-105837142D01*
X93497142Y-105722857D01*
X93497142Y-105437142D01*
X93440000Y-105265714D01*
X92640000Y-104808571D02*
X92640000Y-104237142D01*
X92297142Y-104922857D02*
X93497142Y-104522857D01*
X92297142Y-104122857D01*
X92297142Y-103722857D02*
X93497142Y-103722857D01*
X92640000Y-103322857D01*
X93497142Y-102922857D01*
X92297142Y-102922857D01*
X93497142Y-102351428D02*
X92525714Y-102351428D01*
X92411428Y-102294285D01*
X92354285Y-102237142D01*
X92297142Y-102122857D01*
X92297142Y-101894285D01*
X92354285Y-101780000D01*
X92411428Y-101722857D01*
X92525714Y-101665714D01*
X93497142Y-101665714D01*
X92925714Y-101094285D02*
X92925714Y-100694285D01*
X92297142Y-100522857D02*
X92297142Y-101094285D01*
X93497142Y-101094285D01*
X93497142Y-100522857D01*
X92297142Y-99437142D02*
X92297142Y-100008571D01*
X93497142Y-100008571D01*
X93497142Y-98180000D02*
X93268571Y-98180000D01*
X93497142Y-97722857D02*
X93268571Y-97722857D01*
X93497142Y-96865714D02*
X92640000Y-96865714D01*
X92468571Y-96922857D01*
X92354285Y-97037142D01*
X92297142Y-97208571D01*
X92297142Y-97322857D01*
X92640000Y-96351428D02*
X92640000Y-95780000D01*
X92297142Y-96465714D02*
X93497142Y-96065714D01*
X92297142Y-95665714D01*
X92297142Y-95265714D02*
X93497142Y-95265714D01*
X92297142Y-94580000D01*
X93497142Y-94580000D01*
X92297142Y-94008571D02*
X93497142Y-94008571D01*
X93497142Y-93608571D02*
X93497142Y-92922857D01*
X92297142Y-93265714D02*
X93497142Y-93265714D01*
X93497142Y-92294285D02*
X93497142Y-92065714D01*
X93440000Y-91951428D01*
X93325714Y-91837142D01*
X93097142Y-91780000D01*
X92697142Y-91780000D01*
X92468571Y-91837142D01*
X92354285Y-91951428D01*
X92297142Y-92065714D01*
X92297142Y-92294285D01*
X92354285Y-92408571D01*
X92468571Y-92522857D01*
X92697142Y-92580000D01*
X93097142Y-92580000D01*
X93325714Y-92522857D01*
X93440000Y-92408571D01*
X93497142Y-92294285D01*
X92297142Y-90580000D02*
X92868571Y-90980000D01*
X92297142Y-91265714D02*
X93497142Y-91265714D01*
X93497142Y-90808571D01*
X93440000Y-90694285D01*
X93382857Y-90637142D01*
X93268571Y-90580000D01*
X93097142Y-90580000D01*
X92982857Y-90637142D01*
X92925714Y-90694285D01*
X92868571Y-90808571D01*
X92868571Y-91265714D01*
X92297142Y-89151428D02*
X93497142Y-89151428D01*
X93497142Y-88865714D01*
X93440000Y-88694285D01*
X93325714Y-88580000D01*
X93211428Y-88522857D01*
X92982857Y-88465714D01*
X92811428Y-88465714D01*
X92582857Y-88522857D01*
X92468571Y-88580000D01*
X92354285Y-88694285D01*
X92297142Y-88865714D01*
X92297142Y-89151428D01*
X93497142Y-87951428D02*
X92525714Y-87951428D01*
X92411428Y-87894285D01*
X92354285Y-87837142D01*
X92297142Y-87722857D01*
X92297142Y-87494285D01*
X92354285Y-87380000D01*
X92411428Y-87322857D01*
X92525714Y-87265714D01*
X93497142Y-87265714D01*
X92411428Y-86008571D02*
X92354285Y-86065714D01*
X92297142Y-86237142D01*
X92297142Y-86351428D01*
X92354285Y-86522857D01*
X92468571Y-86637142D01*
X92582857Y-86694285D01*
X92811428Y-86751428D01*
X92982857Y-86751428D01*
X93211428Y-86694285D01*
X93325714Y-86637142D01*
X93440000Y-86522857D01*
X93497142Y-86351428D01*
X93497142Y-86237142D01*
X93440000Y-86065714D01*
X93382857Y-86008571D01*
X92297142Y-85494285D02*
X93497142Y-85494285D01*
X92297142Y-84808571D02*
X92982857Y-85322857D01*
X93497142Y-84808571D02*
X92811428Y-85494285D01*
X93497142Y-84351428D02*
X93268571Y-84351428D01*
X93497142Y-83894285D02*
X93268571Y-83894285D01*
X92297142Y-81780000D02*
X92868571Y-82180000D01*
X92297142Y-82465714D02*
X93497142Y-82465714D01*
X93497142Y-82008571D01*
X93440000Y-81894285D01*
X93382857Y-81837142D01*
X93268571Y-81780000D01*
X93097142Y-81780000D01*
X92982857Y-81837142D01*
X92925714Y-81894285D01*
X92868571Y-82008571D01*
X92868571Y-82465714D01*
X92868571Y-81037142D02*
X92297142Y-81037142D01*
X93497142Y-81437142D02*
X92868571Y-81037142D01*
X93497142Y-80637142D01*
X92411428Y-79551428D02*
X92354285Y-79608571D01*
X92297142Y-79780000D01*
X92297142Y-79894285D01*
X92354285Y-80065714D01*
X92468571Y-80180000D01*
X92582857Y-80237142D01*
X92811428Y-80294285D01*
X92982857Y-80294285D01*
X93211428Y-80237142D01*
X93325714Y-80180000D01*
X93440000Y-80065714D01*
X93497142Y-79894285D01*
X93497142Y-79780000D01*
X93440000Y-79608571D01*
X93382857Y-79551428D01*
X92297142Y-79037142D02*
X93497142Y-79037142D01*
X92297142Y-78351428D02*
X92982857Y-78865714D01*
X93497142Y-78351428D02*
X92811428Y-79037142D01*
X92297142Y-77837142D02*
X93497142Y-77837142D01*
X92640000Y-77437142D01*
X93497142Y-77037142D01*
X92297142Y-77037142D01*
X92640000Y-76522857D02*
X92640000Y-75951428D01*
X92297142Y-76637142D02*
X93497142Y-76237142D01*
X92297142Y-75837142D01*
X92297142Y-75437142D02*
X93497142Y-75437142D01*
X92297142Y-74751428D01*
X93497142Y-74751428D01*
X90708000Y-105951428D02*
X90708000Y-105380000D01*
X90365142Y-106065714D02*
X91565142Y-105665714D01*
X90365142Y-105265714D01*
X90365142Y-104294285D02*
X90365142Y-104865714D01*
X91565142Y-104865714D01*
X90993714Y-103894285D02*
X90993714Y-103494285D01*
X90365142Y-103322857D02*
X90365142Y-103894285D01*
X91565142Y-103894285D01*
X91565142Y-103322857D01*
X91565142Y-102922857D02*
X90365142Y-102122857D01*
X91565142Y-102122857D02*
X90365142Y-102922857D01*
X91565142Y-100808571D02*
X91336571Y-100808571D01*
X91565142Y-100351428D02*
X91336571Y-100351428D01*
X91508000Y-99208571D02*
X91565142Y-99322857D01*
X91565142Y-99494285D01*
X91508000Y-99665714D01*
X91393714Y-99780000D01*
X91279428Y-99837142D01*
X91050857Y-99894285D01*
X90879428Y-99894285D01*
X90650857Y-99837142D01*
X90536571Y-99780000D01*
X90422285Y-99665714D01*
X90365142Y-99494285D01*
X90365142Y-99380000D01*
X90422285Y-99208571D01*
X90479428Y-99151428D01*
X90879428Y-99151428D01*
X90879428Y-99380000D01*
X90365142Y-97951428D02*
X90936571Y-98351428D01*
X90365142Y-98637142D02*
X91565142Y-98637142D01*
X91565142Y-98180000D01*
X91508000Y-98065714D01*
X91450857Y-98008571D01*
X91336571Y-97951428D01*
X91165142Y-97951428D01*
X91050857Y-98008571D01*
X90993714Y-98065714D01*
X90936571Y-98180000D01*
X90936571Y-98637142D01*
X91565142Y-97208571D02*
X91565142Y-96980000D01*
X91508000Y-96865714D01*
X91393714Y-96751428D01*
X91165142Y-96694285D01*
X90765142Y-96694285D01*
X90536571Y-96751428D01*
X90422285Y-96865714D01*
X90365142Y-96980000D01*
X90365142Y-97208571D01*
X90422285Y-97322857D01*
X90536571Y-97437142D01*
X90765142Y-97494285D01*
X91165142Y-97494285D01*
X91393714Y-97437142D01*
X91508000Y-97322857D01*
X91565142Y-97208571D01*
X90365142Y-96180000D02*
X91565142Y-96180000D01*
X90365142Y-95494285D01*
X91565142Y-95494285D01*
X90822285Y-94922857D02*
X90822285Y-94008571D01*
X91508000Y-92808571D02*
X91565142Y-92922857D01*
X91565142Y-93094285D01*
X91508000Y-93265714D01*
X91393714Y-93380000D01*
X91279428Y-93437142D01*
X91050857Y-93494285D01*
X90879428Y-93494285D01*
X90650857Y-93437142D01*
X90536571Y-93380000D01*
X90422285Y-93265714D01*
X90365142Y-93094285D01*
X90365142Y-92980000D01*
X90422285Y-92808571D01*
X90479428Y-92751428D01*
X90879428Y-92751428D01*
X90879428Y-92980000D01*
X90365142Y-91551428D02*
X90936571Y-91951428D01*
X90365142Y-92237142D02*
X91565142Y-92237142D01*
X91565142Y-91780000D01*
X91508000Y-91665714D01*
X91450857Y-91608571D01*
X91336571Y-91551428D01*
X91165142Y-91551428D01*
X91050857Y-91608571D01*
X90993714Y-91665714D01*
X90936571Y-91780000D01*
X90936571Y-92237142D01*
X91565142Y-90808571D02*
X91565142Y-90580000D01*
X91508000Y-90465714D01*
X91393714Y-90351428D01*
X91165142Y-90294285D01*
X90765142Y-90294285D01*
X90536571Y-90351428D01*
X90422285Y-90465714D01*
X90365142Y-90580000D01*
X90365142Y-90808571D01*
X90422285Y-90922857D01*
X90536571Y-91037142D01*
X90765142Y-91094285D01*
X91165142Y-91094285D01*
X91393714Y-91037142D01*
X91508000Y-90922857D01*
X91565142Y-90808571D01*
X90365142Y-89780000D02*
X91565142Y-89780000D01*
X90365142Y-89094285D01*
X91565142Y-89094285D01*
X91565142Y-88580000D02*
X91336571Y-88580000D01*
X91565142Y-88122857D02*
X91336571Y-88122857D01*
X91508000Y-86065714D02*
X91565142Y-86180000D01*
X91565142Y-86351428D01*
X91508000Y-86522857D01*
X91393714Y-86637142D01*
X91279428Y-86694285D01*
X91050857Y-86751428D01*
X90879428Y-86751428D01*
X90650857Y-86694285D01*
X90536571Y-86637142D01*
X90422285Y-86522857D01*
X90365142Y-86351428D01*
X90365142Y-86237142D01*
X90422285Y-86065714D01*
X90479428Y-86008571D01*
X90879428Y-86008571D01*
X90879428Y-86237142D01*
X90365142Y-84808571D02*
X90936571Y-85208571D01*
X90365142Y-85494285D02*
X91565142Y-85494285D01*
X91565142Y-85037142D01*
X91508000Y-84922857D01*
X91450857Y-84865714D01*
X91336571Y-84808571D01*
X91165142Y-84808571D01*
X91050857Y-84865714D01*
X90993714Y-84922857D01*
X90936571Y-85037142D01*
X90936571Y-85494285D01*
X91565142Y-84065714D02*
X91565142Y-83837142D01*
X91508000Y-83722857D01*
X91393714Y-83608571D01*
X91165142Y-83551428D01*
X90765142Y-83551428D01*
X90536571Y-83608571D01*
X90422285Y-83722857D01*
X90365142Y-83837142D01*
X90365142Y-84065714D01*
X90422285Y-84180000D01*
X90536571Y-84294285D01*
X90765142Y-84351428D01*
X91165142Y-84351428D01*
X91393714Y-84294285D01*
X91508000Y-84180000D01*
X91565142Y-84065714D01*
X90365142Y-83037142D02*
X91565142Y-83037142D01*
X90365142Y-82351428D01*
X91565142Y-82351428D01*
X90365142Y-81208571D02*
X90365142Y-81780000D01*
X91565142Y-81780000D01*
X91565142Y-80808571D02*
X90593714Y-80808571D01*
X90479428Y-80751428D01*
X90422285Y-80694285D01*
X90365142Y-80580000D01*
X90365142Y-80351428D01*
X90422285Y-80237142D01*
X90479428Y-80180000D01*
X90593714Y-80122857D01*
X91565142Y-80122857D01*
X90365142Y-79551428D02*
X91565142Y-79551428D01*
X90365142Y-78865714D01*
X91565142Y-78865714D01*
X90365142Y-78294285D02*
X91565142Y-78294285D01*
X91565142Y-78008571D01*
X91508000Y-77837142D01*
X91393714Y-77722857D01*
X91279428Y-77665714D01*
X91050857Y-77608571D01*
X90879428Y-77608571D01*
X90650857Y-77665714D01*
X90536571Y-77722857D01*
X90422285Y-77837142D01*
X90365142Y-78008571D01*
X90365142Y-78294285D01*
X88433142Y-105894285D02*
X89633142Y-105894285D01*
X89633142Y-105608571D01*
X89576000Y-105437142D01*
X89461714Y-105322857D01*
X89347428Y-105265714D01*
X89118857Y-105208571D01*
X88947428Y-105208571D01*
X88718857Y-105265714D01*
X88604571Y-105322857D01*
X88490285Y-105437142D01*
X88433142Y-105608571D01*
X88433142Y-105894285D01*
X89633142Y-104694285D02*
X88661714Y-104694285D01*
X88547428Y-104637142D01*
X88490285Y-104580000D01*
X88433142Y-104465714D01*
X88433142Y-104237142D01*
X88490285Y-104122857D01*
X88547428Y-104065714D01*
X88661714Y-104008571D01*
X89633142Y-104008571D01*
X88490285Y-103494285D02*
X88433142Y-103322857D01*
X88433142Y-103037142D01*
X88490285Y-102922857D01*
X88547428Y-102865714D01*
X88661714Y-102808571D01*
X88776000Y-102808571D01*
X88890285Y-102865714D01*
X88947428Y-102922857D01*
X89004571Y-103037142D01*
X89061714Y-103265714D01*
X89118857Y-103380000D01*
X89176000Y-103437142D01*
X89290285Y-103494285D01*
X89404571Y-103494285D01*
X89518857Y-103437142D01*
X89576000Y-103380000D01*
X89633142Y-103265714D01*
X89633142Y-102980000D01*
X89576000Y-102808571D01*
X89633142Y-102465714D02*
X89633142Y-101780000D01*
X88433142Y-102122857D02*
X89633142Y-102122857D01*
X88433142Y-101380000D02*
X89633142Y-101380000D01*
X88433142Y-100808571D02*
X89633142Y-100808571D01*
X88433142Y-100122857D01*
X89633142Y-100122857D01*
X88433142Y-97951428D02*
X89004571Y-98351428D01*
X88433142Y-98637142D02*
X89633142Y-98637142D01*
X89633142Y-98180000D01*
X89576000Y-98065714D01*
X89518857Y-98008571D01*
X89404571Y-97951428D01*
X89233142Y-97951428D01*
X89118857Y-98008571D01*
X89061714Y-98065714D01*
X89004571Y-98180000D01*
X89004571Y-98637142D01*
X88433142Y-97437142D02*
X89633142Y-97437142D01*
X88547428Y-96180000D02*
X88490285Y-96237142D01*
X88433142Y-96408571D01*
X88433142Y-96522857D01*
X88490285Y-96694285D01*
X88604571Y-96808571D01*
X88718857Y-96865714D01*
X88947428Y-96922857D01*
X89118857Y-96922857D01*
X89347428Y-96865714D01*
X89461714Y-96808571D01*
X89576000Y-96694285D01*
X89633142Y-96522857D01*
X89633142Y-96408571D01*
X89576000Y-96237142D01*
X89518857Y-96180000D01*
X88433142Y-95665714D02*
X89633142Y-95665714D01*
X89061714Y-95665714D02*
X89061714Y-94980000D01*
X88433142Y-94980000D02*
X89633142Y-94980000D01*
X88776000Y-94465714D02*
X88776000Y-93894285D01*
X88433142Y-94580000D02*
X89633142Y-94180000D01*
X88433142Y-93780000D01*
X88433142Y-92694285D02*
X89004571Y-93094285D01*
X88433142Y-93380000D02*
X89633142Y-93380000D01*
X89633142Y-92922857D01*
X89576000Y-92808571D01*
X89518857Y-92751428D01*
X89404571Y-92694285D01*
X89233142Y-92694285D01*
X89118857Y-92751428D01*
X89061714Y-92808571D01*
X89004571Y-92922857D01*
X89004571Y-93380000D01*
X88433142Y-92180000D02*
X89633142Y-92180000D01*
X89633142Y-91894285D01*
X89576000Y-91722857D01*
X89461714Y-91608571D01*
X89347428Y-91551428D01*
X89118857Y-91494285D01*
X88947428Y-91494285D01*
X88718857Y-91551428D01*
X88604571Y-91608571D01*
X88490285Y-91722857D01*
X88433142Y-91894285D01*
X88433142Y-92180000D01*
X88490285Y-91037142D02*
X88433142Y-90865714D01*
X88433142Y-90580000D01*
X88490285Y-90465714D01*
X88547428Y-90408571D01*
X88661714Y-90351428D01*
X88776000Y-90351428D01*
X88890285Y-90408571D01*
X88947428Y-90465714D01*
X89004571Y-90580000D01*
X89061714Y-90808571D01*
X89118857Y-90922857D01*
X89176000Y-90980000D01*
X89290285Y-91037142D01*
X89404571Y-91037142D01*
X89518857Y-90980000D01*
X89576000Y-90922857D01*
X89633142Y-90808571D01*
X89633142Y-90522857D01*
X89576000Y-90351428D01*
X87701142Y-105551428D02*
X86844000Y-105551428D01*
X86672571Y-105608571D01*
X86558285Y-105722857D01*
X86501142Y-105894285D01*
X86501142Y-106008571D01*
X87701142Y-104751428D02*
X87701142Y-104522857D01*
X87644000Y-104408571D01*
X87529714Y-104294285D01*
X87301142Y-104237142D01*
X86901142Y-104237142D01*
X86672571Y-104294285D01*
X86558285Y-104408571D01*
X86501142Y-104522857D01*
X86501142Y-104751428D01*
X86558285Y-104865714D01*
X86672571Y-104980000D01*
X86901142Y-105037142D01*
X87301142Y-105037142D01*
X87529714Y-104980000D01*
X87644000Y-104865714D01*
X87701142Y-104751428D01*
X86558285Y-103780000D02*
X86501142Y-103608571D01*
X86501142Y-103322857D01*
X86558285Y-103208571D01*
X86615428Y-103151428D01*
X86729714Y-103094285D01*
X86844000Y-103094285D01*
X86958285Y-103151428D01*
X87015428Y-103208571D01*
X87072571Y-103322857D01*
X87129714Y-103551428D01*
X87186857Y-103665714D01*
X87244000Y-103722857D01*
X87358285Y-103780000D01*
X87472571Y-103780000D01*
X87586857Y-103722857D01*
X87644000Y-103665714D01*
X87701142Y-103551428D01*
X87701142Y-103265714D01*
X87644000Y-103094285D01*
X87129714Y-102580000D02*
X87129714Y-102180000D01*
X86501142Y-102008571D02*
X86501142Y-102580000D01*
X87701142Y-102580000D01*
X87701142Y-102008571D01*
X86501142Y-101494285D02*
X87701142Y-101494285D01*
X87701142Y-101037142D01*
X87644000Y-100922857D01*
X87586857Y-100865714D01*
X87472571Y-100808571D01*
X87301142Y-100808571D01*
X87186857Y-100865714D01*
X87129714Y-100922857D01*
X87072571Y-101037142D01*
X87072571Y-101494285D01*
X86501142Y-100294285D02*
X87701142Y-100294285D01*
X87129714Y-100294285D02*
X87129714Y-99608571D01*
X86501142Y-99608571D02*
X87701142Y-99608571D01*
X86844000Y-98180000D02*
X86844000Y-97608571D01*
X86501142Y-98294285D02*
X87701142Y-97894285D01*
X86501142Y-97494285D01*
X86501142Y-96522857D02*
X86501142Y-97094285D01*
X87701142Y-97094285D01*
X86501142Y-95551428D02*
X86501142Y-96122857D01*
X87701142Y-96122857D01*
X87129714Y-95151428D02*
X87129714Y-94751428D01*
X86501142Y-94580000D02*
X86501142Y-95151428D01*
X87701142Y-95151428D01*
X87701142Y-94580000D01*
X86501142Y-94065714D02*
X87701142Y-94065714D01*
X86501142Y-93380000D01*
X87701142Y-93380000D01*
X84569142Y-105894285D02*
X85769142Y-105894285D01*
X85769142Y-105437142D01*
X85712000Y-105322857D01*
X85654857Y-105265714D01*
X85540571Y-105208571D01*
X85369142Y-105208571D01*
X85254857Y-105265714D01*
X85197714Y-105322857D01*
X85140571Y-105437142D01*
X85140571Y-105894285D01*
X84569142Y-104008571D02*
X85140571Y-104408571D01*
X84569142Y-104694285D02*
X85769142Y-104694285D01*
X85769142Y-104237142D01*
X85712000Y-104122857D01*
X85654857Y-104065714D01*
X85540571Y-104008571D01*
X85369142Y-104008571D01*
X85254857Y-104065714D01*
X85197714Y-104122857D01*
X85140571Y-104237142D01*
X85140571Y-104694285D01*
X84912000Y-103551428D02*
X84912000Y-102980000D01*
X84569142Y-103665714D02*
X85769142Y-103265714D01*
X84569142Y-102865714D01*
X85769142Y-102637142D02*
X85769142Y-101951428D01*
X84569142Y-102294285D02*
X85769142Y-102294285D01*
X84569142Y-101551428D02*
X85769142Y-101551428D01*
X84569142Y-100980000D02*
X85769142Y-100980000D01*
X84569142Y-100294285D02*
X85254857Y-100808571D01*
X85769142Y-100294285D02*
X85083428Y-100980000D01*
X84626285Y-98922857D02*
X84569142Y-98751428D01*
X84569142Y-98465714D01*
X84626285Y-98351428D01*
X84683428Y-98294285D01*
X84797714Y-98237142D01*
X84912000Y-98237142D01*
X85026285Y-98294285D01*
X85083428Y-98351428D01*
X85140571Y-98465714D01*
X85197714Y-98694285D01*
X85254857Y-98808571D01*
X85312000Y-98865714D01*
X85426285Y-98922857D01*
X85540571Y-98922857D01*
X85654857Y-98865714D01*
X85712000Y-98808571D01*
X85769142Y-98694285D01*
X85769142Y-98408571D01*
X85712000Y-98237142D01*
X84569142Y-97722857D02*
X85769142Y-97722857D01*
X84569142Y-97151428D02*
X85769142Y-97151428D01*
X84569142Y-96465714D01*
X85769142Y-96465714D01*
X84912000Y-95951428D02*
X84912000Y-95380000D01*
X84569142Y-96065714D02*
X85769142Y-95665714D01*
X84569142Y-95265714D01*
X84569142Y-94865714D02*
X85769142Y-94865714D01*
X85026285Y-94294285D02*
X85026285Y-93380000D01*
X84569142Y-92808571D02*
X85769142Y-92808571D01*
X84569142Y-92122857D02*
X85254857Y-92637142D01*
X85769142Y-92122857D02*
X85083428Y-92808571D01*
X85769142Y-91608571D02*
X84797714Y-91608571D01*
X84683428Y-91551428D01*
X84626285Y-91494285D01*
X84569142Y-91380000D01*
X84569142Y-91151428D01*
X84626285Y-91037142D01*
X84683428Y-90980000D01*
X84797714Y-90922857D01*
X85769142Y-90922857D01*
X84569142Y-90351428D02*
X85769142Y-90351428D01*
X84569142Y-89665714D01*
X85769142Y-89665714D01*
X84569142Y-89094285D02*
X85769142Y-89094285D01*
X84569142Y-88408571D02*
X85254857Y-88922857D01*
X85769142Y-88408571D02*
X85083428Y-89094285D01*
X85769142Y-87665714D02*
X85769142Y-87437142D01*
X85712000Y-87322857D01*
X85597714Y-87208571D01*
X85369142Y-87151428D01*
X84969142Y-87151428D01*
X84740571Y-87208571D01*
X84626285Y-87322857D01*
X84569142Y-87437142D01*
X84569142Y-87665714D01*
X84626285Y-87780000D01*
X84740571Y-87894285D01*
X84969142Y-87951428D01*
X85369142Y-87951428D01*
X85597714Y-87894285D01*
X85712000Y-87780000D01*
X85769142Y-87665714D01*
X84569142Y-86065714D02*
X84569142Y-86637142D01*
X85769142Y-86637142D01*
X84569142Y-85665714D02*
X85769142Y-85665714D01*
X85197714Y-85094285D02*
X85197714Y-84694285D01*
X84569142Y-84522857D02*
X84569142Y-85094285D01*
X85769142Y-85094285D01*
X85769142Y-84522857D01*
X84569142Y-84008571D02*
X85769142Y-84008571D01*
X84569142Y-83322857D01*
X85769142Y-83322857D01*
X84569142Y-82751428D02*
X85769142Y-82751428D01*
X84569142Y-82065714D02*
X85254857Y-82580000D01*
X85769142Y-82065714D02*
X85083428Y-82751428D01*
X85197714Y-81551428D02*
X85197714Y-81151428D01*
X84569142Y-80980000D02*
X84569142Y-81551428D01*
X85769142Y-81551428D01*
X85769142Y-80980000D01*
X84569142Y-79780000D02*
X85140571Y-80180000D01*
X84569142Y-80465714D02*
X85769142Y-80465714D01*
X85769142Y-80008571D01*
X85712000Y-79894285D01*
X85654857Y-79837142D01*
X85540571Y-79780000D01*
X85369142Y-79780000D01*
X85254857Y-79837142D01*
X85197714Y-79894285D01*
X85140571Y-80008571D01*
X85140571Y-80465714D01*
X82637142Y-105322857D02*
X82637142Y-105894285D01*
X83837142Y-105894285D01*
X82980000Y-104980000D02*
X82980000Y-104408571D01*
X82637142Y-105094285D02*
X83837142Y-104694285D01*
X82637142Y-104294285D01*
X82637142Y-103894285D02*
X83837142Y-103894285D01*
X82637142Y-103208571D01*
X83837142Y-103208571D01*
X82637142Y-102637142D02*
X83837142Y-102637142D01*
X83837142Y-102351428D01*
X83780000Y-102180000D01*
X83665714Y-102065714D01*
X83551428Y-102008571D01*
X83322857Y-101951428D01*
X83151428Y-101951428D01*
X82922857Y-102008571D01*
X82808571Y-102065714D01*
X82694285Y-102180000D01*
X82637142Y-102351428D01*
X82637142Y-102637142D01*
X83837142Y-101208571D02*
X83837142Y-100980000D01*
X83780000Y-100865714D01*
X83665714Y-100751428D01*
X83437142Y-100694285D01*
X83037142Y-100694285D01*
X82808571Y-100751428D01*
X82694285Y-100865714D01*
X82637142Y-100980000D01*
X82637142Y-101208571D01*
X82694285Y-101322857D01*
X82808571Y-101437142D01*
X83037142Y-101494285D01*
X83437142Y-101494285D01*
X83665714Y-101437142D01*
X83780000Y-101322857D01*
X83837142Y-101208571D01*
X82637142Y-100180000D02*
X83837142Y-100180000D01*
X82637142Y-99494285D01*
X83837142Y-99494285D01*
X82637142Y-97437142D02*
X82637142Y-98008571D01*
X83837142Y-98008571D01*
X82980000Y-97094285D02*
X82980000Y-96522857D01*
X82637142Y-97208571D02*
X83837142Y-96808571D01*
X82637142Y-96408571D01*
X82637142Y-96008571D02*
X83837142Y-96008571D01*
X82980000Y-95608571D01*
X83837142Y-95208571D01*
X82637142Y-95208571D01*
X83837142Y-94408571D02*
X83837142Y-94180000D01*
X83780000Y-94065714D01*
X83665714Y-93951428D01*
X83437142Y-93894285D01*
X83037142Y-93894285D01*
X82808571Y-93951428D01*
X82694285Y-94065714D01*
X82637142Y-94180000D01*
X82637142Y-94408571D01*
X82694285Y-94522857D01*
X82808571Y-94637142D01*
X83037142Y-94694285D01*
X83437142Y-94694285D01*
X83665714Y-94637142D01*
X83780000Y-94522857D01*
X83837142Y-94408571D01*
X82637142Y-92694285D02*
X83208571Y-93094285D01*
X82637142Y-93380000D02*
X83837142Y-93380000D01*
X83837142Y-92922857D01*
X83780000Y-92808571D01*
X83722857Y-92751428D01*
X83608571Y-92694285D01*
X83437142Y-92694285D01*
X83322857Y-92751428D01*
X83265714Y-92808571D01*
X83208571Y-92922857D01*
X83208571Y-93380000D01*
X83265714Y-92180000D02*
X83265714Y-91780000D01*
X82637142Y-91608571D02*
X82637142Y-92180000D01*
X83837142Y-92180000D01*
X83837142Y-91608571D01*
X82980000Y-91151428D02*
X82980000Y-90580000D01*
X82637142Y-91265714D02*
X83837142Y-90865714D01*
X82637142Y-90465714D01*
X83837142Y-90065714D02*
X82865714Y-90065714D01*
X82751428Y-90008571D01*
X82694285Y-89951428D01*
X82637142Y-89837142D01*
X82637142Y-89608571D01*
X82694285Y-89494285D01*
X82751428Y-89437142D01*
X82865714Y-89380000D01*
X83837142Y-89380000D01*
X83837142Y-88922857D02*
X82637142Y-88122857D01*
X83837142Y-88122857D02*
X82637142Y-88922857D01*
D11*
X131596488Y-100444761D02*
X131346488Y-98444761D01*
X130453630Y-100444761D01*
X130203630Y-98444761D01*
X128870297Y-98444761D02*
X128489345Y-98444761D01*
X128310773Y-98540000D01*
X128144107Y-98730476D01*
X128096488Y-99111428D01*
X128179821Y-99778095D01*
X128322678Y-100159047D01*
X128536964Y-100349523D01*
X128739345Y-100444761D01*
X129120297Y-100444761D01*
X129298869Y-100349523D01*
X129465535Y-100159047D01*
X129513154Y-99778095D01*
X129429821Y-99111428D01*
X129286964Y-98730476D01*
X129072678Y-98540000D01*
X128870297Y-98444761D01*
X127441726Y-98444761D02*
X126298869Y-98444761D01*
X127120297Y-100444761D02*
X126870297Y-98444761D01*
X124382202Y-99873333D02*
X123429821Y-99873333D01*
X124644107Y-100444761D02*
X123727440Y-98444761D01*
X123310773Y-100444761D01*
X121691726Y-100444761D02*
X122644107Y-100444761D01*
X122394107Y-98444761D01*
X120072678Y-100444761D02*
X121025059Y-100444761D01*
X120775059Y-98444761D01*
X117822678Y-98444761D02*
X117596488Y-100444761D01*
X117036964Y-99016190D01*
X116834583Y-100444761D01*
X116108392Y-98444761D01*
X115596488Y-100444761D02*
X115346488Y-98444761D01*
X115465535Y-99397142D02*
X114322678Y-99397142D01*
X114453630Y-100444761D02*
X114203630Y-98444761D01*
X112870297Y-98444761D02*
X112489345Y-98444761D01*
X112310773Y-98540000D01*
X112144107Y-98730476D01*
X112096488Y-99111428D01*
X112179821Y-99778095D01*
X112322678Y-100159047D01*
X112536964Y-100349523D01*
X112739345Y-100444761D01*
X113120297Y-100444761D01*
X113298869Y-100349523D01*
X113465535Y-100159047D01*
X113513154Y-99778095D01*
X113429821Y-99111428D01*
X113286964Y-98730476D01*
X113072678Y-98540000D01*
X112870297Y-98444761D01*
X109965535Y-100349523D02*
X109691726Y-100444761D01*
X109215535Y-100444761D01*
X109013154Y-100349523D01*
X108906011Y-100254285D01*
X108786964Y-100063809D01*
X108763154Y-99873333D01*
X108834583Y-99682857D01*
X108917916Y-99587619D01*
X109096488Y-99492380D01*
X109465535Y-99397142D01*
X109644107Y-99301904D01*
X109727440Y-99206666D01*
X109798869Y-99016190D01*
X109775059Y-98825714D01*
X109656011Y-98635238D01*
X109548869Y-98540000D01*
X109346488Y-98444761D01*
X108870297Y-98444761D01*
X108596488Y-98540000D01*
X107977440Y-100444761D02*
X107727440Y-98444761D01*
X106965535Y-98444761D01*
X106786964Y-98540000D01*
X106703630Y-98635238D01*
X106632202Y-98825714D01*
X106667916Y-99111428D01*
X106786964Y-99301904D01*
X106894107Y-99397142D01*
X107096488Y-99492380D01*
X107858392Y-99492380D01*
X105977440Y-100444761D02*
X105727440Y-98444761D01*
X105025059Y-100444761D02*
X104775059Y-98444761D01*
X103882202Y-100444761D01*
X103632202Y-98444761D01*
X124382202Y-103093333D02*
X123429821Y-103093333D01*
X124644107Y-103664761D02*
X123727440Y-101664761D01*
X123310773Y-103664761D01*
X121501250Y-103664761D02*
X122048869Y-102712380D01*
X122644107Y-103664761D02*
X122394107Y-101664761D01*
X121632202Y-101664761D01*
X121453630Y-101760000D01*
X121370297Y-101855238D01*
X121298869Y-102045714D01*
X121334583Y-102331428D01*
X121453630Y-102521904D01*
X121560773Y-102617142D01*
X121763154Y-102712380D01*
X122525059Y-102712380D01*
X120513154Y-102617142D02*
X119846488Y-102617142D01*
X119691726Y-103664761D02*
X120644107Y-103664761D01*
X120394107Y-101664761D01*
X119441726Y-101664761D01*
X116358392Y-103664761D02*
X117310773Y-103664761D01*
X117060773Y-101664761D01*
X115060773Y-101664761D02*
X114679821Y-101664761D01*
X114501250Y-101760000D01*
X114334583Y-101950476D01*
X114286964Y-102331428D01*
X114370297Y-102998095D01*
X114513154Y-103379047D01*
X114727440Y-103569523D01*
X114929821Y-103664761D01*
X115310773Y-103664761D01*
X115489345Y-103569523D01*
X115656011Y-103379047D01*
X115703630Y-102998095D01*
X115620297Y-102331428D01*
X115477440Y-101950476D01*
X115263154Y-101760000D01*
X115060773Y-101664761D01*
X113679821Y-103569523D02*
X113406011Y-103664761D01*
X112929821Y-103664761D01*
X112727440Y-103569523D01*
X112620297Y-103474285D01*
X112501250Y-103283809D01*
X112477440Y-103093333D01*
X112548869Y-102902857D01*
X112632202Y-102807619D01*
X112810773Y-102712380D01*
X113179821Y-102617142D01*
X113358392Y-102521904D01*
X113441726Y-102426666D01*
X113513154Y-102236190D01*
X113489345Y-102045714D01*
X113370297Y-101855238D01*
X113263154Y-101760000D01*
X113060773Y-101664761D01*
X112584583Y-101664761D01*
X112310773Y-101760000D01*
X111727440Y-101664761D02*
X110584583Y-101664761D01*
X111406011Y-103664761D02*
X111156011Y-101664761D01*
D12*
%TO.C,U5*%
X131863314Y-90651367D02*
X131863314Y-91462389D01*
X131815607Y-91557803D01*
X131767900Y-91605510D01*
X131672485Y-91653217D01*
X131481657Y-91653217D01*
X131386242Y-91605510D01*
X131338535Y-91557803D01*
X131290828Y-91462389D01*
X131290828Y-90651367D01*
X130336685Y-90651367D02*
X130813757Y-90651367D01*
X130861464Y-91128439D01*
X130813757Y-91080732D01*
X130718342Y-91033025D01*
X130479807Y-91033025D01*
X130384392Y-91080732D01*
X130336685Y-91128439D01*
X130288978Y-91223853D01*
X130288978Y-91462389D01*
X130336685Y-91557803D01*
X130384392Y-91605510D01*
X130479807Y-91653217D01*
X130718342Y-91653217D01*
X130813757Y-91605510D01*
X130861464Y-91557803D01*
X138108540Y-89151712D02*
X137441060Y-90152932D01*
X137441060Y-89151712D02*
X138108540Y-90152932D01*
X136725902Y-89628484D02*
X136582871Y-89676161D01*
X136535194Y-89723838D01*
X136487517Y-89819192D01*
X136487517Y-89962224D01*
X136535194Y-90057578D01*
X136582871Y-90105255D01*
X136678225Y-90152932D01*
X137059642Y-90152932D01*
X137059642Y-89151712D01*
X136725902Y-89151712D01*
X136630548Y-89199390D01*
X136582871Y-89247067D01*
X136535194Y-89342421D01*
X136535194Y-89437775D01*
X136582871Y-89533130D01*
X136630548Y-89580807D01*
X136725902Y-89628484D01*
X137059642Y-89628484D01*
X136058422Y-90152932D02*
X136058422Y-89151712D01*
X135677005Y-89151712D01*
X135581651Y-89199390D01*
X135533974Y-89247067D01*
X135486297Y-89342421D01*
X135486297Y-89485452D01*
X135533974Y-89580807D01*
X135581651Y-89628484D01*
X135677005Y-89676161D01*
X136058422Y-89676161D01*
X135009525Y-90152932D02*
X134818817Y-90152932D01*
X134723462Y-90105255D01*
X134675785Y-90057578D01*
X134580431Y-89914547D01*
X134532754Y-89723838D01*
X134532754Y-89342421D01*
X134580431Y-89247067D01*
X134628108Y-89199390D01*
X134723462Y-89151712D01*
X134914171Y-89151712D01*
X135009525Y-89199390D01*
X135057202Y-89247067D01*
X135104880Y-89342421D01*
X135104880Y-89580807D01*
X135057202Y-89676161D01*
X135009525Y-89723838D01*
X134914171Y-89771515D01*
X134723462Y-89771515D01*
X134628108Y-89723838D01*
X134580431Y-89676161D01*
X134532754Y-89580807D01*
X133769920Y-89628484D02*
X133626888Y-89676161D01*
X133579211Y-89723838D01*
X133531534Y-89819192D01*
X133531534Y-89962224D01*
X133579211Y-90057578D01*
X133626888Y-90105255D01*
X133722242Y-90152932D01*
X134103660Y-90152932D01*
X134103660Y-89151712D01*
X133769920Y-89151712D01*
X133674565Y-89199390D01*
X133626888Y-89247067D01*
X133579211Y-89342421D01*
X133579211Y-89437775D01*
X133626888Y-89533130D01*
X133674565Y-89580807D01*
X133769920Y-89628484D01*
X134103660Y-89628484D01*
X133102440Y-89771515D02*
X132339605Y-89771515D01*
X131862834Y-90152932D02*
X131862834Y-89151712D01*
X131624448Y-89151712D01*
X131481417Y-89199390D01*
X131386062Y-89294744D01*
X131338385Y-89390098D01*
X131290708Y-89580807D01*
X131290708Y-89723838D01*
X131338385Y-89914547D01*
X131386062Y-90009901D01*
X131481417Y-90105255D01*
X131624448Y-90152932D01*
X131862834Y-90152932D01*
X130861614Y-90152932D02*
X130861614Y-89151712D01*
X130527874Y-89866870D01*
X130194134Y-89151712D01*
X130194134Y-90152932D01*
X129812717Y-89151712D02*
X129574331Y-90152932D01*
X129383622Y-89437775D01*
X129192914Y-90152932D01*
X128954528Y-89151712D01*
X128716142Y-89151712D02*
X128144017Y-89151712D01*
X128430080Y-90152932D02*
X128430080Y-89151712D01*
X127810277Y-89771515D02*
X127047442Y-89771515D01*
X126379962Y-89151712D02*
X126284608Y-89151712D01*
X126189254Y-89199390D01*
X126141577Y-89247067D01*
X126093900Y-89342421D01*
X126046222Y-89533130D01*
X126046222Y-89771515D01*
X126093900Y-89962224D01*
X126141577Y-90057578D01*
X126189254Y-90105255D01*
X126284608Y-90152932D01*
X126379962Y-90152932D01*
X126475317Y-90105255D01*
X126522994Y-90057578D01*
X126570671Y-89962224D01*
X126618348Y-89771515D01*
X126618348Y-89533130D01*
X126570671Y-89342421D01*
X126522994Y-89247067D01*
X126475317Y-89199390D01*
X126379962Y-89151712D01*
X125426420Y-89151712D02*
X125331065Y-89151712D01*
X125235711Y-89199390D01*
X125188034Y-89247067D01*
X125140357Y-89342421D01*
X125092680Y-89533130D01*
X125092680Y-89771515D01*
X125140357Y-89962224D01*
X125188034Y-90057578D01*
X125235711Y-90105255D01*
X125331065Y-90152932D01*
X125426420Y-90152932D01*
X125521774Y-90105255D01*
X125569451Y-90057578D01*
X125617128Y-89962224D01*
X125664805Y-89771515D01*
X125664805Y-89533130D01*
X125617128Y-89342421D01*
X125569451Y-89247067D01*
X125521774Y-89199390D01*
X125426420Y-89151712D01*
X124711262Y-89247067D02*
X124663585Y-89199390D01*
X124568231Y-89151712D01*
X124329845Y-89151712D01*
X124234491Y-89199390D01*
X124186814Y-89247067D01*
X124139137Y-89342421D01*
X124139137Y-89437775D01*
X124186814Y-89580807D01*
X124758940Y-90152932D01*
X124139137Y-90152932D01*
D10*
X138190000Y-58560000D02*
X130600000Y-52030000D01*
X138190000Y-84970000D02*
X138190000Y-58560000D01*
X130600000Y-52030000D02*
X121400000Y-52030000D01*
X113810000Y-58560000D02*
X113810000Y-84970000D01*
X113810000Y-84970000D02*
X138190000Y-84970000D01*
X113810000Y-58560000D02*
X121400000Y-52030000D01*
%TD*%
M02*
