M48
; DRILL file {KiCad (5.99.0-9885-g7a8abcadd2)} date 03/25/21 06:14:04
; FORMAT={-:-/ absolute / inch / decimal}
; #@! TF.CreationDate,2021-03-25T06:14:04-06:00
; #@! TF.GenerationSoftware,Kicad,Pcbnew,(5.99.0-9885-g7a8abcadd2)
; #@! TF.FileFunction,Plated,1,2,PTH
FMAT,2
INCH
; #@! TA.AperFunction,ComponentDrill,Plated,PTH
T1C0.0118
; #@! TA.AperFunction,ViaDrill
T2C0.0157
; #@! TA.AperFunction,ComponentDrill,Plated,PTH
T3C0.0310
; #@! TA.AperFunction,ComponentDrill,Plated,PTH
T4C0.0315
; #@! TA.AperFunction,ComponentDrill,Plated,PTH
T5C0.0394
%
G90
G05
T1
; plated pad hole
X4.3421Y-2.3864
T2
; via hole
X4.1339Y-2.6575
X4.3976Y-4.1654
X4.563Y-4.2402
X4.6063Y-2.9429
X4.8622Y-2.4803
X4.872Y-2.9429
X4.9114Y-3.1004
X5.0689Y-2.9429
X5.2657Y-2.9429
X5.3642Y-3.9567
T3
; plated pad hole
X3.9126Y-2.6827
X3.9126Y-2.7827
X3.9126Y-2.8827
X3.9126Y-2.9827
X3.9126Y-3.0827
X3.9126Y-3.1827
X3.9126Y-3.2827
X3.9126Y-3.3827
X3.9126Y-3.4827
X3.9126Y-3.5827
X4.2126Y-2.6827
X4.2126Y-2.7827
X4.2126Y-2.8827
X4.2126Y-2.9827
X4.2126Y-3.0827
X4.2126Y-3.1827
X4.2126Y-3.2827
X4.2126Y-3.3827
X4.2126Y-3.4827
X4.2126Y-3.5827
T4
X4.5276Y-2.3524
X4.5276Y-2.4311
X4.5276Y-2.5098
X4.5276Y-2.5886
X4.5276Y-2.6673
X4.5276Y-2.7461
X4.5276Y-2.8248
X4.5276Y-2.9035
X4.5276Y-2.9823
X4.5276Y-3.061
X5.3937Y-2.3524
X5.3937Y-2.4311
X5.3937Y-2.5098
X5.3937Y-2.5886
X5.3937Y-2.6673
X5.3937Y-2.7461
X5.3937Y-2.8248
X5.3937Y-2.9035
X5.3937Y-2.9823
X5.3937Y-3.061
T5
X3.165Y-2.7539
X3.165Y-2.8539
X3.165Y-2.9539
X3.165Y-3.0539
X3.165Y-3.1539
X3.165Y-3.2539
X3.165Y-3.3539
X3.165Y-3.4539
X3.165Y-3.5539
X3.165Y-3.6539
X3.165Y-3.7539
X3.165Y-3.8539
X3.165Y-3.9539
X3.165Y-4.0539
X3.165Y-4.1539
X3.1988Y-2.2819
X3.1988Y-2.3819
X3.1988Y-2.4819
X3.3661Y-2.2819
X3.3661Y-2.3819
X3.3661Y-2.4819
X3.5335Y-2.2807
X3.5335Y-2.3807
X3.5335Y-2.4807
X3.765Y-2.7539
X3.765Y-2.8539
X3.765Y-2.9539
X3.765Y-3.0539
X3.765Y-3.1539
X3.765Y-3.2539
X3.765Y-3.3539
X3.765Y-3.4539
X3.765Y-3.5539
X3.765Y-3.6539
X3.765Y-3.7539
X3.765Y-3.8539
X3.765Y-3.9539
X3.765Y-4.0539
X3.765Y-4.1539
X4.3602Y-2.6437
X4.3602Y-2.7437
X4.3602Y-2.8437
X4.3602Y-2.9437
X4.3602Y-3.0437
X4.3602Y-3.1437
X4.5079Y-3.4402
X4.5079Y-3.5402
X4.5079Y-3.6402
X4.5079Y-3.7402
X4.6555Y-3.4402
X4.6555Y-3.5402
X4.6555Y-3.6402
X4.6555Y-3.7402
X4.8031Y-3.4402
X4.8031Y-3.5402
X4.8031Y-3.6402
X4.8031Y-3.7402
X5.1274Y-2.3917
X5.1553Y-3.435
X5.2274Y-2.3917
X5.2553Y-3.435
X5.3553Y-3.435
T0
M30
