%TF.GenerationSoftware,KiCad,Pcbnew,(5.99.0-10211-g744e70df36)*%
%TF.CreationDate,2021-04-29T03:04:49-06:00*%
%TF.ProjectId,spinnybot-motherboad,7370696e-6e79-4626-9f74-2d6d6f746865,rev?*%
%TF.SameCoordinates,Original*%
%TF.FileFunction,Copper,L1,Top*%
%TF.FilePolarity,Positive*%
%FSLAX46Y46*%
G04 Gerber Fmt 4.6, Leading zero omitted, Abs format (unit mm)*
G04 Created by KiCad (PCBNEW (5.99.0-10211-g744e70df36)) date 2021-04-29 03:04:49*
%MOMM*%
%LPD*%
G01*
G04 APERTURE LIST*
G04 Aperture macros list*
%AMRoundRect*
0 Rectangle with rounded corners*
0 $1 Rounding radius*
0 $2 $3 $4 $5 $6 $7 $8 $9 X,Y pos of 4 corners*
0 Add a 4 corners polygon primitive as box body*
4,1,4,$2,$3,$4,$5,$6,$7,$8,$9,$2,$3,0*
0 Add four circle primitives for the rounded corners*
1,1,$1+$1,$2,$3*
1,1,$1+$1,$4,$5*
1,1,$1+$1,$6,$7*
1,1,$1+$1,$8,$9*
0 Add four rect primitives between the rounded corners*
20,1,$1+$1,$2,$3,$4,$5,0*
20,1,$1+$1,$4,$5,$6,$7,0*
20,1,$1+$1,$6,$7,$8,$9,0*
20,1,$1+$1,$8,$9,$2,$3,0*%
%AMHorizOval*
0 Thick line with rounded ends*
0 $1 width*
0 $2 $3 position (X,Y) of the first rounded end (center of the circle)*
0 $4 $5 position (X,Y) of the second rounded end (center of the circle)*
0 Add line between two ends*
20,1,$1,$2,$3,$4,$5,0*
0 Add two circle primitives to create the rounded ends*
1,1,$1,$2,$3*
1,1,$1,$4,$5*%
%AMRotRect*
0 Rectangle, with rotation*
0 The origin of the aperture is its center*
0 $1 length*
0 $2 width*
0 $3 Rotation angle, in degrees counterclockwise*
0 Add horizontal line*
21,1,$1,$2,0,0,$3*%
G04 Aperture macros list end*
%TA.AperFunction,SMDPad,CuDef*%
%ADD10RoundRect,0.250000X-0.450000X0.350000X-0.450000X-0.350000X0.450000X-0.350000X0.450000X0.350000X0*%
%TD*%
%TA.AperFunction,SMDPad,CuDef*%
%ADD11RotRect,1.000000X5.500000X120.000000*%
%TD*%
%TA.AperFunction,SMDPad,CuDef*%
%ADD12RotRect,1.600000X3.000000X120.000000*%
%TD*%
%TA.AperFunction,ComponentPad*%
%ADD13RotRect,1.050000X1.500000X60.000000*%
%TD*%
%TA.AperFunction,ComponentPad*%
%ADD14HorizOval,1.050000X-0.194856X0.112500X0.194856X-0.112500X0*%
%TD*%
%TA.AperFunction,SMDPad,CuDef*%
%ADD15RotRect,1.295400X4.495800X240.000000*%
%TD*%
%TA.AperFunction,SMDPad,CuDef*%
%ADD16RotRect,1.803400X3.911600X240.000000*%
%TD*%
%TA.AperFunction,SMDPad,CuDef*%
%ADD17R,5.000000X10.000000*%
%TD*%
%TA.AperFunction,SMDPad,CuDef*%
%ADD18RoundRect,0.250000X-0.450000X0.325000X-0.450000X-0.325000X0.450000X-0.325000X0.450000X0.325000X0*%
%TD*%
%TA.AperFunction,SMDPad,CuDef*%
%ADD19RoundRect,0.250000X0.450000X-0.350000X0.450000X0.350000X-0.450000X0.350000X-0.450000X-0.350000X0*%
%TD*%
%TA.AperFunction,SMDPad,CuDef*%
%ADD20RoundRect,0.250000X0.450000X-0.325000X0.450000X0.325000X-0.450000X0.325000X-0.450000X-0.325000X0*%
%TD*%
%TA.AperFunction,SMDPad,CuDef*%
%ADD21RotRect,1.295400X4.495800X120.000000*%
%TD*%
%TA.AperFunction,SMDPad,CuDef*%
%ADD22RotRect,1.803400X3.911600X120.000000*%
%TD*%
%TA.AperFunction,ComponentPad*%
%ADD23R,1.508000X1.508000*%
%TD*%
%TA.AperFunction,ComponentPad*%
%ADD24C,1.508000*%
%TD*%
%TA.AperFunction,SMDPad,CuDef*%
%ADD25RoundRect,0.250000X0.350000X0.450000X-0.350000X0.450000X-0.350000X-0.450000X0.350000X-0.450000X0*%
%TD*%
%TA.AperFunction,SMDPad,CuDef*%
%ADD26RotRect,1.000000X5.500000X240.000000*%
%TD*%
%TA.AperFunction,SMDPad,CuDef*%
%ADD27RotRect,1.600000X3.000000X240.000000*%
%TD*%
%TA.AperFunction,ComponentPad*%
%ADD28C,0.800000*%
%TD*%
%TA.AperFunction,SMDPad,CuDef*%
%ADD29R,1.000000X5.500000*%
%TD*%
%TA.AperFunction,SMDPad,CuDef*%
%ADD30R,1.600000X3.000000*%
%TD*%
%TA.AperFunction,ComponentPad*%
%ADD31R,1.560000X1.560000*%
%TD*%
%TA.AperFunction,ComponentPad*%
%ADD32C,1.560000*%
%TD*%
%TA.AperFunction,ComponentPad*%
%ADD33R,1.400000X1.400000*%
%TD*%
%TA.AperFunction,ComponentPad*%
%ADD34C,1.400000*%
%TD*%
%TA.AperFunction,ViaPad*%
%ADD35C,0.800000*%
%TD*%
%TA.AperFunction,Conductor*%
%ADD36C,0.152400*%
%TD*%
%TA.AperFunction,Conductor*%
%ADD37C,0.400000*%
%TD*%
%TA.AperFunction,Conductor*%
%ADD38C,1.000000*%
%TD*%
%TA.AperFunction,Conductor*%
%ADD39C,0.250000*%
%TD*%
G04 APERTURE END LIST*
D10*
%TO.P,R5,1*%
%TO.N,GND*%
X187150000Y-78700000D03*
%TO.P,R5,2*%
%TO.N,Net-(D3-Pad1)*%
X187150000Y-80700000D03*
%TD*%
D11*
%TO.P,J12,1,Pin_1*%
%TO.N,/LEDSTRIP3_DATA_5V*%
X146947846Y-120635163D03*
%TO.P,J12,2,Pin_2*%
%TO.N,+5V*%
X145947846Y-118903112D03*
%TO.P,J12,3,Pin_3*%
%TO.N,/LEDSTRIP_GND*%
X144947846Y-117171061D03*
D12*
%TO.P,J12,4*%
%TO.N,N/C*%
X141799289Y-116217600D03*
%TO.P,J12,5*%
X146199289Y-123838624D03*
%TD*%
D13*
%TO.P,Q4,1,B*%
%TO.N,Net-(Q4-Pad1)*%
X190036769Y-124129853D03*
D14*
%TO.P,Q4,2,C*%
%TO.N,Net-(Q4-Pad2)*%
X190671769Y-123030001D03*
%TO.P,Q4,3,E*%
%TO.N,GND*%
X191306769Y-121930148D03*
%TD*%
D15*
%TO.P,J8,1,Pin_1*%
%TO.N,+12V*%
X152999062Y-83929759D03*
%TO.P,J8,2,Pin_2*%
%TO.N,/MOTOR_NEG*%
X151749062Y-86094822D03*
%TO.P,J8,3,Pin_3*%
%TO.N,/SCK_5V*%
X150499062Y-88259886D03*
%TO.P,J8,4,Pin_4*%
%TO.N,/MISO_5V*%
X149249062Y-90424949D03*
%TO.P,J8,5,Pin_5*%
%TO.N,/MOSI_5V*%
X147999062Y-92590013D03*
%TO.P,J8,6,Pin_6*%
%TO.N,/MOTOR_CS1_5V*%
X146749062Y-94755076D03*
D16*
%TO.P,J8,7*%
%TO.N,N/C*%
X148710089Y-77758478D03*
%TO.P,J8,8*%
X139260090Y-94126357D03*
%TD*%
D13*
%TO.P,Q5,1,B*%
%TO.N,Net-(Q4-Pad2)*%
X193006769Y-115739853D03*
D14*
%TO.P,Q5,2,C*%
%TO.N,/POWER_TOGGLE*%
X193641769Y-114640001D03*
%TO.P,Q5,3,E*%
%TO.N,+5V*%
X194276769Y-113540148D03*
%TD*%
D10*
%TO.P,R10,1*%
%TO.N,GND*%
X157640000Y-89600000D03*
%TO.P,R10,2*%
%TO.N,Net-(D5-Pad1)*%
X157640000Y-91600000D03*
%TD*%
D17*
%TO.P,J1,1,Pin_1*%
%TO.N,+12V*%
X167777142Y-132565517D03*
%TD*%
D18*
%TO.P,D4,1,K*%
%TO.N,Net-(D4-Pad1)*%
X198630000Y-108807500D03*
%TO.P,D4,2,A*%
%TO.N,/DFF_Q*%
X198630000Y-110857500D03*
%TD*%
D19*
%TO.P,R15,1*%
%TO.N,Net-(Q4-Pad1)*%
X187240000Y-118250000D03*
%TO.P,R15,2*%
%TO.N,/SW2*%
X187240000Y-116250000D03*
%TD*%
D20*
%TO.P,D1,1,K*%
%TO.N,Net-(D1-Pad1)*%
X155640000Y-116305000D03*
%TO.P,D1,2,A*%
%TO.N,+12V*%
X155640000Y-114255000D03*
%TD*%
D19*
%TO.P,R4,1*%
%TO.N,GND*%
X158139999Y-120280000D03*
%TO.P,R4,2*%
%TO.N,Net-(D2-Pad1)*%
X158139999Y-118280000D03*
%TD*%
%TO.P,R18,1*%
%TO.N,/POWER_TOGGLE*%
X189340000Y-114280000D03*
%TO.P,R18,2*%
%TO.N,GND*%
X189340000Y-112280000D03*
%TD*%
D18*
%TO.P,D5,1,K*%
%TO.N,Net-(D5-Pad1)*%
X157640000Y-93837500D03*
%TO.P,D5,2,A*%
%TO.N,Net-(D5-Pad2)*%
X157640000Y-95887500D03*
%TD*%
%TO.P,D3,1,K*%
%TO.N,Net-(D3-Pad1)*%
X187200000Y-82925000D03*
%TO.P,D3,2,A*%
%TO.N,+3V3*%
X187200000Y-84975000D03*
%TD*%
D21*
%TO.P,J6,1,Pin_1*%
%TO.N,+12V*%
X198805222Y-94755076D03*
%TO.P,J6,2,Pin_2*%
%TO.N,/MOTOR_NEG*%
X197555222Y-92590013D03*
%TO.P,J6,3,Pin_3*%
%TO.N,/SCK_5V*%
X196305222Y-90424949D03*
%TO.P,J6,4,Pin_4*%
%TO.N,/MISO_5V*%
X195055222Y-88259886D03*
%TO.P,J6,5,Pin_5*%
%TO.N,/MOSI_5V*%
X193805222Y-86094822D03*
%TO.P,J6,6,Pin_6*%
%TO.N,/MOTOR_CS2_5V*%
X192555222Y-83929759D03*
D22*
%TO.P,J6,7*%
%TO.N,N/C*%
X206294194Y-94126357D03*
%TO.P,J6,8*%
X196844195Y-77758478D03*
%TD*%
D19*
%TO.P,R3,1*%
%TO.N,GND*%
X155639999Y-120280000D03*
%TO.P,R3,2*%
%TO.N,Net-(D1-Pad1)*%
X155639999Y-118280000D03*
%TD*%
D20*
%TO.P,D2,1,K*%
%TO.N,Net-(D2-Pad1)*%
X158140000Y-116305000D03*
%TO.P,D2,2,A*%
%TO.N,+5V*%
X158140000Y-114255000D03*
%TD*%
D23*
%TO.P,PS1,1,+VIN*%
%TO.N,+12V*%
X145650000Y-109010000D03*
D24*
%TO.P,PS1,2,GND*%
%TO.N,GND*%
X148190000Y-109010000D03*
%TO.P,PS1,3,+VOUT*%
%TO.N,+5V*%
X150730000Y-109010000D03*
%TD*%
D25*
%TO.P,R16,1*%
%TO.N,+5V*%
X194140000Y-109590000D03*
%TO.P,R16,2*%
%TO.N,Net-(Q4-Pad2)*%
X192140000Y-109590000D03*
%TD*%
D26*
%TO.P,J4,1,Pin_1*%
%TO.N,/LEDSTRIP2_DATA_5V*%
X200594046Y-117171846D03*
%TO.P,J4,2,Pin_2*%
%TO.N,+5V*%
X199594046Y-118903897D03*
%TO.P,J4,3,Pin_3*%
%TO.N,/LEDSTRIP_GND*%
X198594046Y-120635948D03*
D27*
%TO.P,J4,4*%
%TO.N,N/C*%
X199342603Y-123839409D03*
%TO.P,J4,5*%
X203742603Y-116218385D03*
%TD*%
D19*
%TO.P,R14,1*%
%TO.N,Net-(Q4-Pad1)*%
X189340000Y-118250000D03*
%TO.P,R14,2*%
%TO.N,/SW1*%
X189340000Y-116250000D03*
%TD*%
D28*
%TO.P,J5,1,Pin_1*%
%TO.N,GND*%
X175777142Y-137065517D03*
X178777142Y-134065517D03*
X178777142Y-135065517D03*
X176777142Y-136065517D03*
X177777142Y-134065517D03*
X176777142Y-137065517D03*
X179777142Y-135065517D03*
X177777142Y-137065517D03*
X179777142Y-136065517D03*
D17*
X177777142Y-132565517D03*
D28*
X177777142Y-136065517D03*
X176777142Y-134065517D03*
X176777142Y-135065517D03*
X177777142Y-135065517D03*
X179777142Y-134065517D03*
X175777142Y-136065517D03*
X179777142Y-137065517D03*
X178777142Y-137065517D03*
X178777142Y-136065517D03*
X175777142Y-135065517D03*
X175777142Y-134065517D03*
%TD*%
D29*
%TO.P,J3,1,Pin_1*%
%TO.N,/LEDSTRIP1_DATA_5V*%
X170777142Y-72445518D03*
%TO.P,J3,2,Pin_2*%
%TO.N,+5V*%
X172777142Y-72445518D03*
%TO.P,J3,3,Pin_3*%
%TO.N,/LEDSTRIP_GND*%
X174777142Y-72445518D03*
D30*
%TO.P,J3,4*%
%TO.N,N/C*%
X177177142Y-70195518D03*
%TO.P,J3,5*%
X168377142Y-70195518D03*
%TD*%
D10*
%TO.P,R9,1*%
%TO.N,GND*%
X198630000Y-104300000D03*
%TO.P,R9,2*%
%TO.N,Net-(D4-Pad1)*%
X198630000Y-106300000D03*
%TD*%
D31*
%TO.P,U5,1,3V3*%
%TO.N,unconnected-(U5-Pad1)*%
X161327142Y-78435517D03*
D32*
%TO.P,U5,2,EN*%
%TO.N,unconnected-(U5-Pad2)*%
X161327142Y-80975517D03*
%TO.P,U5,3,SENSOR_VP*%
%TO.N,unconnected-(U5-Pad3)*%
X161327142Y-83515517D03*
%TO.P,U5,4,SENSOR_VN*%
%TO.N,unconnected-(U5-Pad4)*%
X161327142Y-86055517D03*
%TO.P,U5,5,IO34*%
%TO.N,unconnected-(U5-Pad5)*%
X161327142Y-88595517D03*
%TO.P,U5,6,IO35*%
%TO.N,unconnected-(U5-Pad6)*%
X161327142Y-91135517D03*
%TO.P,U5,7,IO32*%
%TO.N,unconnected-(U5-Pad7)*%
X161327142Y-93675517D03*
%TO.P,U5,8,IO33*%
%TO.N,Net-(D5-Pad2)*%
X161327142Y-96215517D03*
%TO.P,U5,9,IO25*%
%TO.N,/MCU and Buffers/LEDSTRIP3_DATA_3V3*%
X161327142Y-98755517D03*
%TO.P,U5,10,IO26*%
%TO.N,/MCU and Buffers/LEDSTRIP1_DATA_3V3*%
X161327142Y-101295517D03*
%TO.P,U5,11,IO27*%
%TO.N,/MCU and Buffers/LEDSTRIP2_DATA_3V3*%
X161327142Y-103835517D03*
%TO.P,U5,12,IO14*%
%TO.N,unconnected-(U5-Pad12)*%
X161327142Y-106375517D03*
%TO.P,U5,13,IO12*%
%TO.N,unconnected-(U5-Pad13)*%
X161327142Y-108915517D03*
%TO.P,U5,14,GND1*%
%TO.N,GND*%
X161327142Y-111455517D03*
%TO.P,U5,15,IO13*%
%TO.N,unconnected-(U5-Pad15)*%
X161327142Y-113995517D03*
%TO.P,U5,16,SD2*%
%TO.N,unconnected-(U5-Pad16)*%
X161327142Y-116535517D03*
%TO.P,U5,17,SD3*%
%TO.N,unconnected-(U5-Pad17)*%
X161327142Y-119075517D03*
%TO.P,U5,18,CMD*%
%TO.N,unconnected-(U5-Pad18)*%
X161327142Y-121615517D03*
%TO.P,U5,19,EXT_5V*%
%TO.N,+5V*%
X161327142Y-124155517D03*
%TO.P,U5,20,GND3*%
%TO.N,GND*%
X184227142Y-78435517D03*
%TO.P,U5,21,IO23*%
%TO.N,/MCU and Buffers/MOSI_3V3*%
X184227142Y-80975517D03*
%TO.P,U5,22,IO22*%
%TO.N,/MCU and Buffers/IMU_CS*%
X184227142Y-83515517D03*
%TO.P,U5,23,TXD0*%
%TO.N,unconnected-(U5-Pad23)*%
X184227142Y-86055517D03*
%TO.P,U5,24,RXD0*%
%TO.N,unconnected-(U5-Pad24)*%
X184227142Y-88595517D03*
%TO.P,U5,25,IO21*%
%TO.N,unconnected-(U5-Pad25)*%
X184227142Y-91135517D03*
%TO.P,U5,26,GND2*%
%TO.N,GND*%
X184227142Y-93675517D03*
%TO.P,U5,27,IO19*%
%TO.N,/MCU and Buffers/MISO_3V3*%
X184227142Y-96215517D03*
%TO.P,U5,28,IO18*%
%TO.N,/MCU and Buffers/SCK_3V3*%
X184227142Y-98755517D03*
%TO.P,U5,29,IO5*%
%TO.N,/MCU and Buffers/MOTOR_CS1_3V3*%
X184227142Y-101295517D03*
%TO.P,U5,30,IO17*%
%TO.N,/XBEE_RX*%
X184227142Y-103835517D03*
%TO.P,U5,31,IO16*%
%TO.N,/XBEE_TX*%
X184227142Y-106375517D03*
%TO.P,U5,32,IO4*%
%TO.N,/MCU and Buffers/MOTOR_CS2_3V3*%
X184227142Y-108915517D03*
%TO.P,U5,33,IO0*%
%TO.N,/MCU and Buffers/MOTOR_CS3_3V3*%
X184227142Y-111455517D03*
%TO.P,U5,34,IO2*%
%TO.N,/12V_SENSE*%
X184227142Y-113995517D03*
%TO.P,U5,35,IO15*%
%TO.N,unconnected-(U5-Pad35)*%
X184227142Y-116535517D03*
%TO.P,U5,36,SD1*%
%TO.N,unconnected-(U5-Pad36)*%
X184227142Y-119075517D03*
%TO.P,U5,37,SD0*%
%TO.N,unconnected-(U5-Pad37)*%
X184227142Y-121615517D03*
%TO.P,U5,38,CLK*%
%TO.N,unconnected-(U5-Pad38)*%
X184227142Y-124155517D03*
%TD*%
D33*
%TO.P,U2,1,VCC*%
%TO.N,+3V3*%
X188700000Y-90500000D03*
D34*
%TO.P,U2,2,DOUT/DIO13*%
%TO.N,/XBEE_TX*%
X188700000Y-92500000D03*
%TO.P,U2,3,DIN/NCONFIG/DIO14*%
%TO.N,/XBEE_RX*%
X188700000Y-94500000D03*
%TO.P,U2,4,DIO12/SPI_MISO*%
%TO.N,unconnected-(U2-Pad4)*%
X188700000Y-96500000D03*
%TO.P,U2,5,~RESET*%
%TO.N,unconnected-(U2-Pad5)*%
X188700000Y-98500000D03*
%TO.P,U2,6,DIO10/PWM0*%
%TO.N,unconnected-(U2-Pad6)*%
X188700000Y-100500000D03*
%TO.P,U2,7,DIO11/PWM1*%
%TO.N,unconnected-(U2-Pad7)*%
X188700000Y-102500000D03*
%TO.P,U2,8*%
%TO.N,N/C*%
X188700000Y-104500000D03*
%TO.P,U2,9,NDTR/SLEEP_RQ/DIO8*%
%TO.N,unconnected-(U2-Pad9)*%
X188700000Y-106500000D03*
%TO.P,U2,10,GND*%
%TO.N,GND*%
X188700000Y-108500000D03*
%TO.P,U2,11,DIO4/SPI_MOSI*%
%TO.N,unconnected-(U2-Pad11)*%
X166700000Y-108500000D03*
%TO.P,U2,12,NCTS/DIO7*%
%TO.N,unconnected-(U2-Pad12)*%
X166700000Y-106500000D03*
%TO.P,U2,13,ON_NSLEEP/DIO9*%
%TO.N,unconnected-(U2-Pad13)*%
X166700000Y-104500000D03*
%TO.P,U2,14,VREF*%
%TO.N,unconnected-(U2-Pad14)*%
X166700000Y-102500000D03*
%TO.P,U2,15,ASSOCIATE/DIO5*%
%TO.N,unconnected-(U2-Pad15)*%
X166700000Y-100500000D03*
%TO.P,U2,16,NRTS/DIO6*%
%TO.N,unconnected-(U2-Pad16)*%
X166700000Y-98500000D03*
%TO.P,U2,17,AD3/DIO3/SPI_NSSEL*%
%TO.N,unconnected-(U2-Pad17)*%
X166700000Y-96500000D03*
%TO.P,U2,18,AD2/DIO2/SPI_CLK*%
%TO.N,unconnected-(U2-Pad18)*%
X166700000Y-94500000D03*
%TO.P,U2,19,AD1/DIO1/SPI_NATTN*%
%TO.N,unconnected-(U2-Pad19)*%
X166700000Y-92500000D03*
%TO.P,U2,20,AD0/DIO0*%
%TO.N,unconnected-(U2-Pad20)*%
X166700000Y-90500000D03*
%TD*%
D35*
%TO.N,+5V*%
X150730000Y-112280000D03*
X155170000Y-79110000D03*
X171830000Y-68410000D03*
X194620000Y-108340000D03*
X155980000Y-95750000D03*
X164630000Y-116010000D03*
X154879603Y-96898246D03*
X195620000Y-106760000D03*
X200480000Y-89140000D03*
X163900000Y-111810000D03*
X150460000Y-115280000D03*
%TO.N,GND*%
X167770000Y-120600000D03*
X156840000Y-122160000D03*
X175810000Y-99380000D03*
X175640000Y-102480000D03*
X167000000Y-122610000D03*
X189290000Y-110820000D03*
X157620000Y-87290000D03*
X198620000Y-102410000D03*
X177300000Y-97120000D03*
X182560000Y-81600000D03*
%TO.N,/FET_G*%
X195127579Y-100376187D03*
X193180000Y-96530000D03*
%TO.N,/LEDSTRIP_GND*%
X195740000Y-125440000D03*
X184180000Y-139100000D03*
X142300000Y-120210000D03*
X202240000Y-121940000D03*
X174110000Y-67930000D03*
X150520000Y-121330000D03*
X149540000Y-127250000D03*
X202680000Y-94530000D03*
X204230000Y-99570000D03*
X203650000Y-110410000D03*
%TO.N,/LEDSTRIP1_DATA_5V*%
X169020000Y-79510000D03*
X171760000Y-76350000D03*
X182480000Y-106070000D03*
%TO.N,/LEDSTRIP3_DATA_5V*%
X149480000Y-114180000D03*
X178180000Y-108060000D03*
%TO.N,/LEDSTRIP2_DATA_5V*%
X197910000Y-121850000D03*
X182350000Y-110340000D03*
%TO.N,/MOTOR_CS3_5V*%
X177250000Y-106800000D03*
X166920000Y-124320000D03*
X176180000Y-114580000D03*
X171670000Y-119570000D03*
%TO.N,/MOTOR_CS2_5V*%
X181980679Y-104579321D03*
%TO.N,/MOTOR_CS1_5V*%
X168070000Y-91410000D03*
%TO.N,/MCU and Buffers/MISO_5V_POSTBUF*%
X163480000Y-89690000D03*
X164360000Y-83740000D03*
%TO.N,+12V*%
X167550000Y-136800000D03*
X180530000Y-124310000D03*
X166550000Y-136800000D03*
X166550000Y-135800000D03*
X167550000Y-135800000D03*
X180530000Y-126910000D03*
%TO.N,+3V3*%
X177480000Y-82750000D03*
X172920000Y-80500000D03*
%TO.N,/SCK_5V*%
X172770000Y-123160000D03*
X172900000Y-95510000D03*
X175680000Y-105610000D03*
X172900000Y-105600000D03*
%TO.N,/MISO_5V*%
X176010000Y-94910000D03*
X172300000Y-125690000D03*
%TO.N,/MOSI_5V*%
X167820000Y-93470000D03*
X173900000Y-95510000D03*
X187990000Y-87750000D03*
X171100000Y-125680000D03*
%TO.N,/MCU and Buffers/MOSI_3V3*%
X182000000Y-91830000D03*
%TO.N,/MCU and Buffers/SCK_3V3*%
X178290000Y-93350000D03*
X178780000Y-79590000D03*
%TO.N,/DFF_Q*%
X187300000Y-111610000D03*
X198920000Y-96820000D03*
%TO.N,/MOTOR_NEG*%
X194870000Y-94050000D03*
X194870000Y-95050000D03*
X193870000Y-94090610D03*
X193870000Y-95050000D03*
%TO.N,/SW1*%
X187010000Y-109250000D03*
%TO.N,/SW2*%
X148045743Y-82324257D03*
X185990000Y-109260000D03*
X141750000Y-93170000D03*
%TO.N,/MCU and Buffers/BUFFER_OE*%
X169180000Y-91090000D03*
X169180000Y-96350000D03*
X169180000Y-112100000D03*
X169100000Y-98620000D03*
%TO.N,/POWER_TOGGLE*%
X201120000Y-90940000D03*
X193180000Y-108320000D03*
X194610000Y-106880000D03*
%TD*%
D36*
%TO.N,+5V*%
X200325000Y-92645000D02*
X200555000Y-92645000D01*
X150730000Y-109010000D02*
X152895000Y-109010000D01*
X171152060Y-68410000D02*
X171830000Y-68410000D01*
X172777142Y-69357142D02*
X172777142Y-72445518D01*
X146706888Y-118903112D02*
X145947846Y-118903112D01*
X154879603Y-96850397D02*
X155980000Y-95750000D01*
X165493260Y-75790000D02*
X169770000Y-71513260D01*
X150730000Y-109010000D02*
X150730000Y-112280000D01*
X162722594Y-112987406D02*
X163900000Y-111810000D01*
X201850000Y-90510000D02*
X200480000Y-89140000D01*
X194140000Y-109590000D02*
X194140000Y-108820000D01*
X152895000Y-109010000D02*
X158140000Y-114255000D01*
X194276769Y-109726769D02*
X194140000Y-109590000D01*
X154879603Y-96898246D02*
X154879603Y-96850397D01*
X159407594Y-112987406D02*
X162722594Y-112987406D01*
X169770000Y-71513260D02*
X169770000Y-70560000D01*
X155170000Y-79110000D02*
X156250000Y-79110000D01*
X196150000Y-106230000D02*
X195620000Y-106760000D01*
X163600000Y-75790000D02*
X165493260Y-75790000D01*
X196135000Y-95115000D02*
X200325000Y-92645000D01*
X169770000Y-69792060D02*
X171152060Y-68410000D01*
X162722594Y-112987406D02*
X162722594Y-114102594D01*
X150330000Y-115280000D02*
X146706888Y-118903112D01*
X158140000Y-114255000D02*
X159407594Y-112987406D01*
X169770000Y-70560000D02*
X169770000Y-69792060D01*
X194276769Y-113586620D02*
X199594046Y-118903897D01*
X150460000Y-115280000D02*
X150330000Y-115280000D01*
X162722594Y-114102594D02*
X164630000Y-116010000D01*
X159590000Y-75770000D02*
X163580000Y-75770000D01*
X196150000Y-95110000D02*
X196150000Y-106230000D01*
X171830000Y-68410000D02*
X172777142Y-69357142D01*
X194276769Y-113540148D02*
X194276769Y-113586620D01*
X194140000Y-108820000D02*
X194620000Y-108340000D01*
X201850000Y-91350000D02*
X201850000Y-90510000D01*
X200555000Y-92645000D02*
X201850000Y-91350000D01*
X156250000Y-79110000D02*
X159590000Y-75770000D01*
X163580000Y-75770000D02*
X163600000Y-75790000D01*
X194276769Y-113540148D02*
X194276769Y-109726769D01*
%TO.N,Net-(D4-Pad1)*%
X198630000Y-106300000D02*
X198630000Y-108807500D01*
%TO.N,GND*%
X175640000Y-102480000D02*
X175810000Y-102310000D01*
X155639999Y-120280000D02*
X155639999Y-120959999D01*
X187150000Y-78700000D02*
X184491625Y-78700000D01*
X155639999Y-120280000D02*
X158139999Y-120280000D01*
X167000000Y-121370000D02*
X167770000Y-120600000D01*
X177300000Y-97120000D02*
X175810000Y-98610000D01*
X184227142Y-78435517D02*
X182560000Y-80102659D01*
X157640000Y-89600000D02*
X157640000Y-87690000D01*
X189290000Y-110820000D02*
X189290000Y-112230000D01*
X184491625Y-78700000D02*
X184227142Y-78435517D01*
X175810000Y-102310000D02*
X175810000Y-99380000D01*
X167000000Y-122610000D02*
X167000000Y-121370000D01*
X182560000Y-80102659D02*
X182560000Y-81600000D01*
X189290000Y-112230000D02*
X189340000Y-112280000D01*
X155639999Y-120959999D02*
X156840000Y-122160000D01*
X157640000Y-87690000D02*
X157660000Y-87670000D01*
X198630000Y-104300000D02*
X198630000Y-102420000D01*
X198630000Y-102420000D02*
X198620000Y-102410000D01*
X175810000Y-98610000D02*
X175810000Y-99380000D01*
%TO.N,/FET_G*%
X193180000Y-96530000D02*
X195127579Y-98477579D01*
X195127579Y-98477579D02*
X195127579Y-100376187D01*
%TO.N,Net-(D5-Pad2)*%
X160999125Y-95887500D02*
X161327142Y-96215517D01*
X157640000Y-95887500D02*
X160999125Y-95887500D01*
%TO.N,Net-(D5-Pad1)*%
X157640000Y-91600000D02*
X157640000Y-93837500D01*
D37*
%TO.N,/LEDSTRIP_GND*%
X185290000Y-134536564D02*
X185638282Y-134188282D01*
X174777142Y-72445518D02*
X174777142Y-68597142D01*
X149590000Y-122260000D02*
X149590000Y-127200000D01*
X185638282Y-134188282D02*
X192066564Y-127760000D01*
X203650000Y-100120000D02*
X204230000Y-99570000D01*
X190430000Y-75960000D02*
X202680000Y-88210000D01*
X202240000Y-121940000D02*
X201480000Y-121180000D01*
X149590000Y-127200000D02*
X149540000Y-127250000D01*
X150520000Y-121330000D02*
X149590000Y-122260000D01*
X193420000Y-127760000D02*
X195740000Y-125440000D01*
X184180000Y-139100000D02*
X185290000Y-137990000D01*
X199138098Y-121180000D02*
X198594046Y-120635948D01*
X144947846Y-117171061D02*
X142300000Y-119818907D01*
X201480000Y-121180000D02*
X199138098Y-121180000D01*
X185290000Y-137990000D02*
X185290000Y-134536564D01*
X192066564Y-127760000D02*
X192241643Y-127760000D01*
X202680000Y-88210000D02*
X202680000Y-94530000D01*
X192066564Y-127760000D02*
X193420000Y-127760000D01*
X203650000Y-110410000D02*
X203650000Y-100120000D01*
X174777142Y-72445518D02*
X178291624Y-75960000D01*
X178291624Y-75960000D02*
X190430000Y-75960000D01*
X204230000Y-99570000D02*
X204130000Y-99640000D01*
X174777142Y-68597142D02*
X174110000Y-67930000D01*
X142300000Y-119818907D02*
X142300000Y-120210000D01*
D36*
%TO.N,/LEDSTRIP1_DATA_5V*%
X170777142Y-75367142D02*
X171760000Y-76350000D01*
X170777142Y-72445518D02*
X170777142Y-75367142D01*
X180800000Y-104290000D02*
X180800000Y-104390000D01*
X169020000Y-86710000D02*
X177850000Y-95540000D01*
X180800000Y-104390000D02*
X182480000Y-106070000D01*
X169020000Y-79510000D02*
X169020000Y-86710000D01*
X177850000Y-95540000D02*
X180800000Y-98490000D01*
X180800000Y-98490000D02*
X180800000Y-104290000D01*
%TO.N,/LEDSTRIP3_DATA_5V*%
X178190000Y-120890000D02*
X178190000Y-108070000D01*
X165810000Y-125010000D02*
X167710000Y-126910000D01*
X178190000Y-108070000D02*
X178180000Y-108060000D01*
X146947846Y-120635163D02*
X152081129Y-115501880D01*
X150759249Y-114180000D02*
X152081129Y-115501880D01*
X165810000Y-119526370D02*
X165810000Y-125010000D01*
X149480000Y-114180000D02*
X150759249Y-114180000D01*
X167710000Y-126910000D02*
X172170000Y-126910000D01*
X161785510Y-115501880D02*
X165810000Y-119526370D01*
X172170000Y-126910000D02*
X178190000Y-120890000D01*
X152081129Y-115501880D02*
X161785510Y-115501880D01*
%TO.N,/LEDSTRIP2_DATA_5V*%
X182350000Y-110340000D02*
X182350000Y-124560000D01*
X202570000Y-122930000D02*
X203870000Y-121630000D01*
X194240000Y-121850000D02*
X197910000Y-121850000D01*
X182350000Y-124560000D02*
X183990000Y-126200000D01*
X199636133Y-122168469D02*
X200397664Y-122930000D01*
X200397664Y-122930000D02*
X202570000Y-122930000D01*
X203870000Y-121630000D02*
X203870000Y-120447800D01*
X198228469Y-122168469D02*
X199636133Y-122168469D01*
X189890000Y-126200000D02*
X194240000Y-121850000D01*
X183990000Y-126200000D02*
X189890000Y-126200000D01*
X197910000Y-121850000D02*
X198228469Y-122168469D01*
X203870000Y-120447800D02*
X200594046Y-117171846D01*
%TO.N,/MOTOR_CS3_5V*%
X176180000Y-107870000D02*
X177250000Y-106800000D01*
X176180000Y-114580000D02*
X176180000Y-107870000D01*
X171670000Y-119570000D02*
X166920000Y-124320000D01*
%TO.N,/MOTOR_CS2_5V*%
X184570000Y-92500000D02*
X183630000Y-92500000D01*
X192555222Y-83929759D02*
X186787007Y-83929759D01*
X183630000Y-92500000D02*
X181980679Y-94149321D01*
X181980679Y-94149321D02*
X181980679Y-104579321D01*
X185630000Y-85086766D02*
X185630000Y-91440000D01*
X185630000Y-91440000D02*
X184570000Y-92500000D01*
X186787007Y-83929759D02*
X185630000Y-85086766D01*
%TO.N,/MOTOR_CS1_5V*%
X166361889Y-91428111D02*
X168051889Y-91428111D01*
X164130000Y-93660000D02*
X166361889Y-91428111D01*
X164130000Y-94904664D02*
X164130000Y-93660000D01*
X155181092Y-97526347D02*
X155265891Y-97441548D01*
X168051889Y-91428111D02*
X168070000Y-91410000D01*
X149520333Y-97526347D02*
X155181092Y-97526347D01*
X146749062Y-94755076D02*
X149520333Y-97526347D01*
X161593116Y-97441548D02*
X164130000Y-94904664D01*
X155265891Y-97441548D02*
X161593116Y-97441548D01*
%TO.N,/MCU and Buffers/MISO_5V_POSTBUF*%
X163480000Y-84620000D02*
X164360000Y-83740000D01*
X163480000Y-89690000D02*
X163480000Y-84620000D01*
D38*
%TO.N,+12V*%
X180550000Y-138600000D02*
X181870000Y-137280000D01*
X138670000Y-112649480D02*
X141032512Y-108557488D01*
X152359303Y-83290000D02*
X152999062Y-83929759D01*
X173811625Y-138600000D02*
X180550000Y-138600000D01*
X142970000Y-90270000D02*
X149950000Y-83290000D01*
X163691625Y-128480000D02*
X144220000Y-128480000D01*
X167777142Y-132565517D02*
X173811625Y-138600000D01*
X141032512Y-108557488D02*
X142098271Y-107491729D01*
X163691625Y-128480000D02*
X167777142Y-132565517D01*
D36*
X180530000Y-124310000D02*
X180530000Y-126910000D01*
D38*
X196390000Y-124190000D02*
X198616987Y-126416987D01*
D39*
X143616542Y-109010000D02*
X142098271Y-107491729D01*
D38*
X142098271Y-107491729D02*
X142970000Y-106620000D01*
X181870000Y-137280000D02*
X181870000Y-135630000D01*
X138670000Y-120491172D02*
X138670000Y-112649480D01*
X181870000Y-135630000D02*
X193310000Y-124190000D01*
X144220000Y-128480000D02*
X142001501Y-126261501D01*
X149950000Y-83290000D02*
X152359303Y-83290000D01*
X193310000Y-124190000D02*
X196390000Y-124190000D01*
D36*
X146110000Y-109010000D02*
X151355000Y-114255000D01*
D38*
X207480000Y-119459361D02*
X207480000Y-116330000D01*
X142970000Y-106620000D02*
X142970000Y-90270000D01*
X207480000Y-116330000D02*
X201820000Y-110670000D01*
D36*
X145650000Y-109010000D02*
X146110000Y-109010000D01*
D38*
X198616987Y-126416987D02*
X203463013Y-126416987D01*
X142001501Y-126261501D02*
X138670000Y-120491172D01*
X201820000Y-110670000D02*
X201820000Y-97769854D01*
X201820000Y-97769854D02*
X198805222Y-94755076D01*
D36*
X151355000Y-114255000D02*
X155640000Y-114255000D01*
D39*
X145650000Y-109010000D02*
X143616542Y-109010000D01*
D38*
X203463013Y-126416987D02*
X207480000Y-119459361D01*
D36*
%TO.N,+3V3*%
X187200000Y-84975000D02*
X187200000Y-89000000D01*
X177480000Y-82750000D02*
X175170000Y-82750000D01*
X187200000Y-89000000D02*
X188700000Y-90500000D01*
X175170000Y-82750000D02*
X172920000Y-80500000D01*
%TO.N,Net-(D1-Pad1)*%
X155640000Y-116305000D02*
X155639999Y-118280000D01*
%TO.N,Net-(D2-Pad1)*%
X158140000Y-116305000D02*
X158139999Y-118280000D01*
%TO.N,Net-(D3-Pad1)*%
X187150000Y-80700000D02*
X187150000Y-82875000D01*
X187150000Y-82875000D02*
X187200000Y-82925000D01*
%TO.N,/SCK_5V*%
X180610000Y-105610000D02*
X175680000Y-105610000D01*
X172900000Y-95510000D02*
X172900000Y-105600000D01*
X172900000Y-123030000D02*
X172770000Y-123160000D01*
X147783749Y-88259886D02*
X143750000Y-92293635D01*
X143750001Y-95170001D02*
X148343628Y-99763628D01*
X189001716Y-103571889D02*
X187518111Y-103571889D01*
X190470000Y-96260171D02*
X190470000Y-102103605D01*
X196305222Y-90424949D02*
X190470000Y-96260171D01*
X182770000Y-107770000D02*
X180610000Y-105610000D01*
X186630000Y-107230000D02*
X186090000Y-107770000D01*
X190470000Y-102103605D02*
X189001716Y-103571889D01*
X186630000Y-104460000D02*
X186630000Y-107230000D01*
X172900000Y-105600000D02*
X172900000Y-123030000D01*
X170838111Y-97571889D02*
X172900000Y-95510000D01*
X187518111Y-103571889D02*
X186630000Y-104460000D01*
X164578111Y-97571889D02*
X170838111Y-97571889D01*
X162386372Y-99763628D02*
X164578111Y-97571889D01*
X148343628Y-99763628D02*
X162386372Y-99763628D01*
X150499062Y-88259886D02*
X147783749Y-88259886D01*
X186090000Y-107770000D02*
X182770000Y-107770000D01*
X143750000Y-92293635D02*
X143750001Y-95170001D01*
%TO.N,/MISO_5V*%
X186325689Y-102934311D02*
X186325689Y-106634311D01*
X180100360Y-104670000D02*
X174900000Y-104670000D01*
X190165689Y-100934311D02*
X189650000Y-101450000D01*
X174900000Y-123080000D02*
X172300000Y-125680000D01*
X189650000Y-101450000D02*
X187810000Y-101450000D01*
X165300000Y-89820000D02*
X165780000Y-89340000D01*
X161664664Y-94830000D02*
X165300000Y-91194664D01*
X185494311Y-107465689D02*
X182896049Y-107465689D01*
X174900000Y-96020000D02*
X176010000Y-94910000D01*
X156626615Y-94830000D02*
X161664664Y-94830000D01*
X187810000Y-101450000D02*
X186325689Y-102934311D01*
X165780000Y-89340000D02*
X170440000Y-89340000D01*
X182896049Y-107465689D02*
X180100360Y-104670000D01*
X165300000Y-91194664D02*
X165300000Y-89820000D01*
X174900000Y-104670000D02*
X174900000Y-123080000D01*
X190165689Y-93149419D02*
X190165689Y-100934311D01*
X186325689Y-106634311D02*
X185494311Y-107465689D01*
X149249062Y-90424949D02*
X152221564Y-90424949D01*
X174900000Y-104670000D02*
X174900000Y-96020000D01*
X152221564Y-90424949D02*
X156626615Y-94830000D01*
X172300000Y-125680000D02*
X172300000Y-125690000D01*
X195055222Y-88259886D02*
X190165689Y-93149419D01*
X170440000Y-89340000D02*
X176010000Y-94910000D01*
%TO.N,/MOSI_5V*%
X155391941Y-97745858D02*
X161719166Y-97745858D01*
X145139987Y-92590013D02*
X144054311Y-93675689D01*
X155307142Y-97830657D02*
X155391941Y-97745858D01*
X189645178Y-86094822D02*
X187990000Y-87750000D01*
X161719166Y-97745858D02*
X165995024Y-93470000D01*
X165995024Y-93470000D02*
X167820000Y-93470000D01*
X173900000Y-95510000D02*
X173900000Y-122959590D01*
X144054311Y-93675689D02*
X144054311Y-95043951D01*
X147999062Y-92590013D02*
X145139987Y-92590013D01*
X144054311Y-95043951D02*
X146841017Y-97830657D01*
X171179590Y-125680000D02*
X171100000Y-125680000D01*
X173900000Y-122959590D02*
X171179590Y-125680000D01*
X193805222Y-86094822D02*
X189645178Y-86094822D01*
X146841017Y-97830657D02*
X155307142Y-97830657D01*
%TO.N,/MCU and Buffers/MOSI_3V3*%
X184227142Y-80975517D02*
X182000000Y-83202659D01*
X182000000Y-83202659D02*
X182000000Y-91830000D01*
%TO.N,Net-(Q4-Pad2)*%
X192140000Y-111560000D02*
X192140000Y-109590000D01*
X190303716Y-119462906D02*
X193006769Y-116759853D01*
X188380000Y-113756766D02*
X188866766Y-113270000D01*
X190430000Y-113270000D02*
X192140000Y-111560000D01*
X190671769Y-123030001D02*
X190303716Y-122661948D01*
X193006769Y-116759853D02*
X193006769Y-115739853D01*
X188776766Y-115200000D02*
X188380000Y-114803234D01*
X192466916Y-115200000D02*
X188776766Y-115200000D01*
X188380000Y-114803234D02*
X188380000Y-113756766D01*
X190303716Y-122661948D02*
X190303716Y-119462906D01*
X188866766Y-113270000D02*
X190430000Y-113270000D01*
X193006769Y-115739853D02*
X192466916Y-115200000D01*
%TO.N,/MCU and Buffers/SCK_3V3*%
X178290000Y-80080000D02*
X178290000Y-93350000D01*
X178780000Y-79590000D02*
X178290000Y-80080000D01*
%TO.N,/XBEE_TX*%
X184227142Y-106375517D02*
X182870000Y-105018375D01*
X182870000Y-105018375D02*
X182870000Y-95760000D01*
X186250000Y-94950000D02*
X188700000Y-92500000D01*
X182870000Y-95760000D02*
X183680000Y-94950000D01*
X183680000Y-94950000D02*
X186250000Y-94950000D01*
%TO.N,/DFF_Q*%
X191230000Y-107680000D02*
X187300000Y-111610000D01*
X199890000Y-97790000D02*
X198920000Y-96820000D01*
X198630000Y-110857500D02*
X199890000Y-109597500D01*
X198630000Y-110857500D02*
X195452500Y-107680000D01*
X199890000Y-109597500D02*
X199890000Y-97790000D01*
X195452500Y-107680000D02*
X191230000Y-107680000D01*
D38*
%TO.N,/MOTOR_NEG*%
X151920794Y-86266554D02*
X156653446Y-86266554D01*
X156653446Y-86266554D02*
X156653446Y-80375773D01*
X189858787Y-77003606D02*
X199227731Y-86372550D01*
X180888876Y-77003606D02*
X189858787Y-77003606D01*
X199227731Y-90917504D02*
X197555222Y-92590013D01*
X199227731Y-86372550D02*
X199227731Y-90917504D01*
X179552482Y-78340000D02*
X180888876Y-77003606D01*
X151749062Y-86094822D02*
X151920794Y-86266554D01*
X194870000Y-93979834D02*
X194870000Y-95050000D01*
X156653446Y-80375773D02*
X160025613Y-77003606D01*
X163965065Y-78340000D02*
X179552482Y-78340000D01*
X162628671Y-77003606D02*
X163965065Y-78340000D01*
X196259821Y-92590013D02*
X194870000Y-93979834D01*
X197555222Y-92590013D02*
X196259821Y-92590013D01*
X160025613Y-77003606D02*
X162628671Y-77003606D01*
D36*
%TO.N,/XBEE_RX*%
X185550000Y-97650000D02*
X188700000Y-94500000D01*
X184227142Y-103835517D02*
X185550000Y-102512659D01*
X185550000Y-102512659D02*
X185550000Y-97650000D01*
%TO.N,/SW1*%
X186450000Y-113390000D02*
X189310000Y-116250000D01*
X186450000Y-109810000D02*
X186450000Y-113390000D01*
X189310000Y-116250000D02*
X189340000Y-116250000D01*
X187010000Y-109250000D02*
X186450000Y-109810000D01*
%TO.N,/SW2*%
X185990000Y-109260000D02*
X185990000Y-115000000D01*
X148045743Y-82324257D02*
X147785743Y-82324257D01*
X147785743Y-82324257D02*
X141750000Y-88360000D01*
X185990000Y-115000000D02*
X187240000Y-116250000D01*
X141750000Y-88360000D02*
X141750000Y-93170000D01*
%TO.N,/MCU and Buffers/BUFFER_OE*%
X169180000Y-91090000D02*
X169180000Y-96350000D01*
X169180000Y-112100000D02*
X168600000Y-111520000D01*
X168600000Y-111520000D02*
X168600000Y-99120000D01*
X168600000Y-99120000D02*
X169100000Y-98620000D01*
%TO.N,/POWER_TOGGLE*%
X195755689Y-94864311D02*
X195755689Y-105734311D01*
X196000000Y-94620000D02*
X195755689Y-94864311D01*
X200190000Y-92150000D02*
X196000000Y-94620000D01*
X195755689Y-105734311D02*
X194610000Y-106880000D01*
X201230000Y-91050000D02*
X201120000Y-90940000D01*
X201120000Y-90940000D02*
X201120000Y-91220000D01*
X193180000Y-114178232D02*
X193641769Y-114640001D01*
X201360000Y-91050000D02*
X201230000Y-91050000D01*
X189700001Y-114640001D02*
X189340000Y-114280000D01*
X201120000Y-91220000D02*
X200190000Y-92150000D01*
X193180000Y-108320000D02*
X193180000Y-114178232D01*
X193641769Y-114640001D02*
X189700001Y-114640001D01*
%TO.N,Net-(Q4-Pad1)*%
X189340000Y-118250000D02*
X189340000Y-123433084D01*
X187240000Y-118250000D02*
X189340000Y-118250000D01*
X189340000Y-123433084D02*
X190036769Y-124129853D01*
%TD*%
%TA.AperFunction,Conductor*%
%TO.N,/MOTOR_NEG*%
G36*
X194928380Y-93590002D02*
G01*
X194969378Y-93633000D01*
X195028155Y-93734804D01*
X195039650Y-93745764D01*
X195041458Y-93746113D01*
X195048945Y-93743720D01*
X195310000Y-93593000D01*
X195310000Y-94179585D01*
X195306900Y-94181375D01*
X195295940Y-94192870D01*
X195295592Y-94194677D01*
X195302110Y-94215068D01*
X195299093Y-94216032D01*
X195310000Y-94256736D01*
X195310000Y-94441971D01*
X195289998Y-94510092D01*
X195283963Y-94518674D01*
X195250023Y-94562906D01*
X195250021Y-94562910D01*
X195244994Y-94569461D01*
X195186083Y-94711685D01*
X195186083Y-94711686D01*
X195165989Y-94864311D01*
X195167067Y-94872499D01*
X195169911Y-94894101D01*
X195170989Y-94910548D01*
X195170989Y-95404000D01*
X195150987Y-95472121D01*
X195097331Y-95518614D01*
X195044989Y-95530000D01*
X193476000Y-95530000D01*
X193407879Y-95509998D01*
X193361386Y-95456342D01*
X193350000Y-95404000D01*
X193350000Y-94259252D01*
X193370002Y-94191131D01*
X193386905Y-94170157D01*
X193950157Y-93606905D01*
X194012469Y-93572879D01*
X194039252Y-93570000D01*
X194860259Y-93570000D01*
X194928380Y-93590002D01*
G37*
%TD.AperFunction*%
%TD*%
M02*
