M48
; DRILL file {KiCad (5.99.0-10211-g744e70df36)} date Thu Apr 29 03:05:01 2021
; FORMAT={-:-/ absolute / inch / decimal}
; #@! TF.CreationDate,2021-04-29T03:05:01-06:00
; #@! TF.GenerationSoftware,Kicad,Pcbnew,(5.99.0-10211-g744e70df36)
; #@! TF.FileFunction,Plated,1,2,PTH
FMAT,2
INCH
; #@! TA.AperFunction,Plated,PTH,ViaDrill
T1C0.0157
; #@! TA.AperFunction,Plated,PTH,ComponentDrill
T2C0.0157
; #@! TA.AperFunction,Plated,PTH,ComponentDrill
T3C0.0295
; #@! TA.AperFunction,Plated,PTH,ComponentDrill
T4C0.0315
; #@! TA.AperFunction,Plated,PTH,ComponentDrill
T5C0.0394
; #@! TA.AperFunction,Plated,PTH,ComponentDrill
T6C0.0409
%
G90
G05
T1
X5.5807Y-3.6681
X5.6024Y-4.7327
X5.8286Y-3.2411
X5.885Y-4.4953
X5.8874Y-5.0098
X5.9236Y-4.5386
X5.926Y-4.7768
X5.9343Y-4.4205
X6.0976Y-3.8149
X6.1091Y-3.1146
X6.1409Y-3.7697
X6.1748Y-4.8094
X6.2055Y-3.4366
X6.4362Y-3.5311
X6.4528Y-4.402
X6.4709Y-3.2969
X6.4815Y-4.5673
X6.5571Y-5.3465
X6.5571Y-5.3858
X6.5717Y-4.8945
X6.5748Y-4.8272
X6.5965Y-5.3465
X6.5965Y-5.3858
X6.6051Y-4.748
X6.6071Y-3.6799
X6.6169Y-3.5988
X6.6543Y-3.1303
X6.6575Y-3.8827
X6.6606Y-3.5862
X6.6606Y-3.7933
X6.6606Y-4.4134
X6.7362Y-4.948
X6.7587Y-4.7075
X6.7622Y-3.0059
X6.765Y-2.6933
X6.7835Y-4.9484
X6.802Y-4.8488
X6.8071Y-3.7602
X6.8071Y-4.1575
X6.8079Y-3.1693
X6.8465Y-3.7602
X6.8547Y-2.6744
X6.915Y-4.0346
X6.9165Y-4.1579
X6.9217Y-3.9126
X6.9295Y-3.7366
X6.9362Y-4.511
X6.9783Y-4.2047
X6.9803Y-3.8236
X6.9874Y-3.2579
X7.015Y-4.2543
X7.0193Y-3.6752
X7.0386Y-3.1335
X7.1075Y-4.8941
X7.1075Y-4.9965
X7.1646Y-4.1173
X7.1654Y-3.6154
X7.1791Y-4.3441
X7.1843Y-4.176
X7.1874Y-3.2126
X7.2512Y-5.4764
X7.3224Y-4.3016
X7.3626Y-4.3012
X7.374Y-4.3941
X7.4012Y-3.4547
X7.4524Y-4.363
X7.6055Y-3.8004
X7.6055Y-4.2646
X7.6327Y-3.7044
X7.6327Y-3.7421
X7.6618Y-4.2079
X7.6622Y-4.2654
X7.672Y-3.7028
X7.672Y-3.7421
X7.6822Y-3.9518
X7.7016Y-4.2031
X7.7063Y-4.9386
X7.7917Y-4.7972
X7.8197Y-4.0319
X7.8315Y-3.8118
X7.8929Y-3.5094
X7.9181Y-3.5803
X7.9622Y-4.8008
X7.9795Y-3.7217
X8.0177Y-4.3469
X8.0406Y-3.9201
T2
X6.9204Y-5.2782
X6.9204Y-5.3175
X6.9204Y-5.3569
X6.9204Y-5.3963
X6.9597Y-5.2782
X6.9597Y-5.3175
X6.9597Y-5.3569
X6.9597Y-5.3963
X6.9991Y-5.2782
X6.9991Y-5.3175
X6.9991Y-5.3569
X6.9991Y-5.3963
X7.0385Y-5.2782
X7.0385Y-5.3175
X7.0385Y-5.3569
X7.0385Y-5.3963
X7.0778Y-5.2782
X7.0778Y-5.3175
X7.0778Y-5.3569
X7.0778Y-5.3963
T3
X7.4818Y-4.887
X7.5068Y-4.8437
X7.5318Y-4.8004
X7.5987Y-4.5567
X7.6237Y-4.5134
X7.6487Y-4.4701
T4
X6.563Y-3.563
X6.563Y-3.6417
X6.563Y-3.7205
X6.563Y-3.7992
X6.563Y-3.878
X6.563Y-3.9567
X6.563Y-4.0354
X6.563Y-4.1142
X6.563Y-4.1929
X6.563Y-4.2717
X7.4291Y-3.563
X7.4291Y-3.6417
X7.4291Y-3.7205
X7.4291Y-3.7992
X7.4291Y-3.878
X7.4291Y-3.9567
X7.4291Y-4.0354
X7.4291Y-4.1142
X7.4291Y-4.1929
X7.4291Y-4.2717
T5
X5.7343Y-4.2917
X5.8343Y-4.2917
X5.9343Y-4.2917
T6
X6.3515Y-3.088
X6.3515Y-3.188
X6.3515Y-3.288
X6.3515Y-3.388
X6.3515Y-3.488
X6.3515Y-3.588
X6.3515Y-3.688
X6.3515Y-3.788
X6.3515Y-3.888
X6.3515Y-3.988
X6.3515Y-4.088
X6.3515Y-4.188
X6.3515Y-4.288
X6.3515Y-4.388
X6.3515Y-4.488
X6.3515Y-4.588
X6.3515Y-4.688
X6.3515Y-4.788
X6.3515Y-4.888
X7.253Y-3.088
X7.253Y-3.188
X7.253Y-3.288
X7.253Y-3.388
X7.253Y-3.488
X7.253Y-3.588
X7.253Y-3.688
X7.253Y-3.788
X7.253Y-3.888
X7.253Y-3.988
X7.253Y-4.088
X7.253Y-4.188
X7.253Y-4.288
X7.253Y-4.388
X7.253Y-4.488
X7.253Y-4.588
X7.253Y-4.688
X7.253Y-4.788
X7.253Y-4.888
T0
M30
