%TF.GenerationSoftware,KiCad,Pcbnew,(5.99.0-10211-g744e70df36)*%
%TF.CreationDate,2021-04-29T03:04:50-06:00*%
%TF.ProjectId,spinnybot-motherboad,7370696e-6e79-4626-9f74-2d6d6f746865,rev?*%
%TF.SameCoordinates,Original*%
%TF.FileFunction,Legend,Top*%
%TF.FilePolarity,Positive*%
%FSLAX46Y46*%
G04 Gerber Fmt 4.6, Leading zero omitted, Abs format (unit mm)*
G04 Created by KiCad (PCBNEW (5.99.0-10211-g744e70df36)) date 2021-04-29 03:04:50*
%MOMM*%
%LPD*%
G01*
G04 APERTURE LIST*
%ADD10C,0.150000*%
%ADD11C,0.015000*%
%ADD12C,0.120000*%
%ADD13C,0.200000*%
%ADD14C,0.152400*%
%ADD15C,0.127000*%
G04 APERTURE END LIST*
D10*
X158457150Y-127608834D02*
X158695246Y-128021227D01*
X158144238Y-127638283D02*
X159239430Y-127535212D01*
X158477572Y-128215634D01*
X158882334Y-128916702D02*
X158644238Y-128504309D01*
X159572764Y-128112562D01*
X159287096Y-129617770D02*
X159049000Y-129205377D01*
X159977526Y-128813630D01*
X159834715Y-130566274D02*
X160763240Y-130174527D01*
X160453762Y-131638496D02*
X161382288Y-131246749D01*
X161501335Y-131452946D01*
X161528548Y-131595318D01*
X161487736Y-131715106D01*
X161423115Y-131793654D01*
X161270062Y-131909512D01*
X161137416Y-131965476D01*
X160936744Y-131998855D01*
X160824504Y-131994925D01*
X160688454Y-131949756D01*
X160572810Y-131844692D01*
X160453762Y-131638496D01*
X161977526Y-132277732D02*
X162072764Y-132442689D01*
X162076167Y-132543822D01*
X162035355Y-132663610D01*
X161882303Y-132779468D01*
X161572794Y-132910050D01*
X161372123Y-132943429D01*
X161236073Y-132898260D01*
X161144238Y-132834436D01*
X161049000Y-132669478D01*
X161045597Y-132568345D01*
X161086409Y-132448557D01*
X161239461Y-132332700D01*
X161548970Y-132202117D01*
X161749641Y-132168738D01*
X161885691Y-132213908D01*
X161977526Y-132277732D01*
X161858524Y-134071615D02*
X162787050Y-133679868D01*
X162117025Y-134424114D02*
X162144238Y-134566487D01*
X162263286Y-134772683D01*
X162355121Y-134836507D01*
X162423146Y-134859092D01*
X162535386Y-134863022D01*
X162623817Y-134825713D01*
X162688439Y-134747164D01*
X162708845Y-134687270D01*
X162705441Y-134586137D01*
X162654418Y-134402525D01*
X162651015Y-134301392D01*
X162671421Y-134241498D01*
X162736042Y-134162949D01*
X162824473Y-134125640D01*
X162936714Y-134129570D01*
X163004739Y-134152155D01*
X163096573Y-134215979D01*
X163215621Y-134422176D01*
X163242834Y-134564548D01*
X156032248Y-127104971D02*
X156059461Y-127247343D01*
X156178509Y-127453540D01*
X156270343Y-127517364D01*
X156338368Y-127539949D01*
X156450609Y-127543879D01*
X156539040Y-127506570D01*
X156603661Y-127428021D01*
X156624067Y-127368127D01*
X156620664Y-127266994D01*
X156569641Y-127083382D01*
X156566238Y-126982249D01*
X156586644Y-126922355D01*
X156651265Y-126843806D01*
X156739696Y-126806497D01*
X156851937Y-126810427D01*
X156919962Y-126833012D01*
X157011796Y-126896836D01*
X157130844Y-127103032D01*
X157158057Y-127245405D01*
X156488033Y-127989651D02*
X157416558Y-127597904D01*
X157607034Y-127927819D01*
X157610438Y-128028952D01*
X157590032Y-128088846D01*
X157525410Y-128167394D01*
X157392764Y-128223358D01*
X157280523Y-128219428D01*
X157212498Y-128196843D01*
X157120664Y-128133019D01*
X156930188Y-127803105D01*
X156988033Y-128855676D02*
X157916558Y-128463930D01*
X157226128Y-129268069D02*
X158154653Y-128876323D01*
X157511842Y-129762941D01*
X158440368Y-129371194D01*
X158151296Y-130775269D02*
X158178509Y-130917642D01*
X158297556Y-131123838D01*
X158389391Y-131187662D01*
X158457416Y-131210247D01*
X158569657Y-131214177D01*
X158658088Y-131176868D01*
X158722709Y-131098319D01*
X158743115Y-131038425D01*
X158739711Y-130937292D01*
X158688689Y-130753680D01*
X158685285Y-130652547D01*
X158705691Y-130592653D01*
X158770313Y-130514105D01*
X158858744Y-130476795D01*
X158970984Y-130480725D01*
X159039009Y-130503310D01*
X159130844Y-130567134D01*
X159249891Y-130773331D01*
X159277104Y-130915703D01*
X158607080Y-131659949D02*
X159535606Y-131268202D01*
X159726082Y-131598117D01*
X159729485Y-131699250D01*
X159709079Y-131759144D01*
X159644458Y-131837692D01*
X159511811Y-131893656D01*
X159399571Y-131889726D01*
X159331546Y-131867141D01*
X159239711Y-131803317D01*
X159049235Y-131473403D01*
X159107080Y-132525974D02*
X160035606Y-132134228D01*
X159345176Y-132938368D02*
X160273701Y-132546621D01*
X159630890Y-133433239D01*
X160559415Y-133041492D01*
X160270343Y-134445567D02*
X160297556Y-134587940D01*
X160416604Y-134794136D01*
X160508439Y-134857960D01*
X160576464Y-134880545D01*
X160688704Y-134884475D01*
X160777135Y-134847166D01*
X160841757Y-134768617D01*
X160862163Y-134708723D01*
X160858759Y-134607590D01*
X160807736Y-134423978D01*
X160804333Y-134322845D01*
X160824739Y-134262951D01*
X160889360Y-134184403D01*
X160977791Y-134147093D01*
X161090032Y-134151024D01*
X161158057Y-134173608D01*
X161249891Y-134237432D01*
X161368939Y-134443629D01*
X161396152Y-134586001D01*
X160726128Y-135330247D02*
X161654653Y-134938500D01*
X161845129Y-135268415D01*
X161848533Y-135369548D01*
X161828127Y-135429442D01*
X161763506Y-135507990D01*
X161630859Y-135563954D01*
X161518619Y-135560024D01*
X161450594Y-135537440D01*
X161358759Y-135473616D01*
X161168283Y-135143701D01*
X161226128Y-136196273D02*
X162154653Y-135804526D01*
X161464223Y-136608666D02*
X162392749Y-136216919D01*
X161749937Y-137103537D01*
X162678463Y-136711791D01*
X154391351Y-127578091D02*
X155319876Y-127186345D01*
X154677065Y-128072963D01*
X155605590Y-127681216D01*
X155938924Y-128258567D02*
X156034162Y-128423524D01*
X156037565Y-128524657D01*
X155996753Y-128644445D01*
X155843701Y-128760303D01*
X155534192Y-128890885D01*
X155333521Y-128924264D01*
X155197471Y-128879095D01*
X155105636Y-128815271D01*
X155010398Y-128650313D01*
X155006995Y-128549180D01*
X155047807Y-128429392D01*
X155200859Y-128313535D01*
X155510368Y-128182952D01*
X155711039Y-128149573D01*
X155847089Y-128194743D01*
X155938924Y-128258567D01*
X155819922Y-130052450D02*
X156748448Y-129660703D01*
X156251882Y-130229197D01*
X157081781Y-130238053D01*
X156153255Y-130629800D01*
X156632834Y-130889026D02*
X156870929Y-131301419D01*
X156319922Y-130918475D02*
X157415114Y-130815403D01*
X156653255Y-131495825D01*
X157677019Y-131269036D02*
X157962733Y-131763907D01*
X156891351Y-131908218D02*
X157819876Y-131516472D01*
X158057971Y-131928865D02*
X158343686Y-132423736D01*
X157272303Y-132568047D02*
X158200828Y-132176301D01*
X158068197Y-132898958D02*
X158234864Y-133187633D01*
X157819922Y-133516551D02*
X157581827Y-133104158D01*
X158510352Y-132712411D01*
X158748448Y-133124805D01*
X158319922Y-134382577D02*
X158595410Y-133907356D01*
X158034208Y-133887705D02*
X158962733Y-133495958D01*
X159153209Y-133825873D01*
X159156613Y-133927006D01*
X159136207Y-133986900D01*
X159071586Y-134065448D01*
X158938939Y-134121412D01*
X158826699Y-134117482D01*
X158758674Y-134094897D01*
X158666839Y-134031073D01*
X158476363Y-133701159D01*
X159796067Y-134939334D02*
X158986589Y-135537277D01*
X159745059Y-135422415D01*
X159177065Y-135867192D01*
X160224638Y-135681641D01*
X159486589Y-136403303D02*
X160415114Y-136011556D01*
X159972959Y-136198102D02*
X160258674Y-136692974D01*
X159772303Y-136898174D02*
X160700828Y-136506428D01*
X160251882Y-137157400D02*
X160489977Y-137569793D01*
X159938970Y-137186849D02*
X161034162Y-137083778D01*
X160272303Y-137764200D01*
X161296067Y-137537410D02*
X161581781Y-138032282D01*
X160510398Y-138176593D02*
X161438924Y-137784846D01*
%TO.C,R5*%
X189252380Y-79866666D02*
X188776190Y-80200000D01*
X189252380Y-80438095D02*
X188252380Y-80438095D01*
X188252380Y-80057142D01*
X188300000Y-79961904D01*
X188347619Y-79914285D01*
X188442857Y-79866666D01*
X188585714Y-79866666D01*
X188680952Y-79914285D01*
X188728571Y-79961904D01*
X188776190Y-80057142D01*
X188776190Y-80438095D01*
X188252380Y-78961904D02*
X188252380Y-79438095D01*
X188728571Y-79485714D01*
X188680952Y-79438095D01*
X188633333Y-79342857D01*
X188633333Y-79104761D01*
X188680952Y-79009523D01*
X188728571Y-78961904D01*
X188823809Y-78914285D01*
X189061904Y-78914285D01*
X189157142Y-78961904D01*
X189204761Y-79009523D01*
X189252380Y-79104761D01*
X189252380Y-79342857D01*
X189204761Y-79438095D01*
X189157142Y-79485714D01*
%TO.C,J12*%
X142940358Y-124196707D02*
X142320614Y-124554516D01*
X142172811Y-124584762D01*
X142042471Y-124549837D01*
X141929592Y-124449742D01*
X141881885Y-124367110D01*
X142573649Y-125565281D02*
X142287402Y-125069486D01*
X142430525Y-125317384D02*
X143298167Y-124816451D01*
X143126510Y-124805380D01*
X142996170Y-124770456D01*
X142907146Y-124711677D01*
X143549490Y-125442586D02*
X143614660Y-125460049D01*
X143703684Y-125518827D01*
X143822954Y-125725409D01*
X143829345Y-125831895D01*
X143811883Y-125897065D01*
X143753105Y-125986089D01*
X143670472Y-126033797D01*
X143522669Y-126064043D01*
X142740627Y-125854495D01*
X143050728Y-126391607D01*
X137747137Y-117204585D02*
X137508843Y-116791848D01*
X138375592Y-116291431D01*
X138367954Y-117231378D02*
X138534760Y-117520294D01*
X138152237Y-117906239D02*
X137913943Y-117493502D01*
X138780692Y-116993084D01*
X139018986Y-117405821D01*
X138366702Y-118277703D02*
X139233450Y-117777285D01*
X139352597Y-117983654D01*
X139382812Y-118131304D01*
X139347923Y-118261511D01*
X139289205Y-118350443D01*
X139147940Y-118487035D01*
X139024118Y-118558523D01*
X138835194Y-118612567D01*
X138728817Y-118618952D01*
X138598611Y-118584063D01*
X138485849Y-118484071D01*
X138366702Y-118277703D01*
X138884564Y-119079348D02*
X138914778Y-119226999D01*
X139033925Y-119433367D01*
X139122858Y-119492085D01*
X139187961Y-119509530D01*
X139294338Y-119503145D01*
X139376885Y-119455486D01*
X139435603Y-119366553D01*
X139453048Y-119301450D01*
X139446663Y-119195073D01*
X139392619Y-119006149D01*
X139386234Y-118899772D01*
X139403678Y-118834669D01*
X139462396Y-118745736D01*
X139544943Y-118698078D01*
X139651320Y-118691692D01*
X139716423Y-118709137D01*
X139805356Y-118767855D01*
X139924503Y-118974224D01*
X139954718Y-119121874D01*
X140138968Y-119345687D02*
X140424921Y-119840972D01*
X139415196Y-120093747D02*
X140281944Y-119593330D01*
X140010931Y-121125591D02*
X140256862Y-120598380D01*
X139724978Y-120630306D02*
X140591726Y-120129888D01*
X140782362Y-120460078D01*
X140788747Y-120566455D01*
X140771302Y-120631558D01*
X140712584Y-120720491D01*
X140588763Y-120791979D01*
X140482386Y-120798364D01*
X140417283Y-120780920D01*
X140328350Y-120722202D01*
X140137715Y-120392012D01*
X140225395Y-121497054D02*
X141092144Y-120996637D01*
X140463689Y-121909792D02*
X141330438Y-121409374D01*
X141521073Y-121739564D01*
X141527458Y-121845941D01*
X141510014Y-121911044D01*
X141451296Y-121999977D01*
X141327475Y-122071465D01*
X141221098Y-122077850D01*
X141155995Y-122060406D01*
X141067062Y-122001688D01*
X140876427Y-121671498D01*
X141783197Y-122193575D02*
X142092979Y-122730134D01*
X141595983Y-122631853D01*
X141667471Y-122755674D01*
X141673856Y-122862051D01*
X141656412Y-122927154D01*
X141597694Y-123016087D01*
X141391325Y-123135234D01*
X141284948Y-123141619D01*
X141219845Y-123124175D01*
X141130913Y-123065456D01*
X140987936Y-122817814D01*
X140981551Y-122711437D01*
X140998996Y-122646334D01*
%TO.C,Q4*%
X188015351Y-121606289D02*
X187926493Y-121664958D01*
X187796395Y-121699817D01*
X187601249Y-121752107D01*
X187512391Y-121810776D01*
X187464772Y-121893254D01*
X187694778Y-121971063D02*
X187605919Y-122029732D01*
X187475822Y-122064591D01*
X187287055Y-122010592D01*
X186998380Y-121843926D01*
X186857232Y-121707448D01*
X186822372Y-121577351D01*
X186828752Y-121471063D01*
X186923990Y-121306105D01*
X187012849Y-121247436D01*
X187142946Y-121212577D01*
X187331713Y-121266576D01*
X187620388Y-121433242D01*
X187761536Y-121569720D01*
X187796395Y-121699817D01*
X187790016Y-121806105D01*
X187694778Y-121971063D01*
X187760284Y-120524268D02*
X188337635Y-120857601D01*
X187311322Y-120539988D02*
X187810864Y-121103328D01*
X188120388Y-120567217D01*
%TO.C,J8*%
X140781514Y-97316903D02*
X140424371Y-97935492D01*
X140311703Y-98035401D01*
X140181605Y-98070260D01*
X140034078Y-98040071D01*
X139951599Y-97992452D01*
X141103339Y-97997580D02*
X141044670Y-97908722D01*
X141027240Y-97843673D01*
X141033620Y-97737385D01*
X141057430Y-97696146D01*
X141146288Y-97637477D01*
X141211337Y-97620047D01*
X141317625Y-97626427D01*
X141482582Y-97721665D01*
X141541251Y-97810523D01*
X141558681Y-97875572D01*
X141552301Y-97981860D01*
X141528492Y-98023099D01*
X141439633Y-98081768D01*
X141374584Y-98099198D01*
X141268296Y-98092818D01*
X141103339Y-97997580D01*
X140997051Y-97991201D01*
X140932002Y-98008630D01*
X140843144Y-98067300D01*
X140747906Y-98232257D01*
X140741526Y-98338545D01*
X140758956Y-98403594D01*
X140817625Y-98492452D01*
X140982582Y-98587690D01*
X141088870Y-98594070D01*
X141153919Y-98576640D01*
X141242777Y-98517971D01*
X141338015Y-98353014D01*
X141344395Y-98246726D01*
X141326965Y-98181677D01*
X141268296Y-98092818D01*
X150198929Y-76195937D02*
X150698929Y-75329912D01*
X150630461Y-76115168D01*
X151276279Y-75663245D01*
X150776279Y-76529271D01*
X151853630Y-75996579D02*
X152018587Y-76091817D01*
X152077256Y-76180675D01*
X152112115Y-76310773D01*
X152058117Y-76499539D01*
X151891450Y-76788215D01*
X151754973Y-76929362D01*
X151624875Y-76964222D01*
X151518587Y-76957842D01*
X151353630Y-76862604D01*
X151294960Y-76773746D01*
X151260101Y-76643648D01*
X151314100Y-76454881D01*
X151480766Y-76166206D01*
X151617244Y-76025058D01*
X151747341Y-75990199D01*
X151853630Y-75996579D01*
X152472219Y-76353721D02*
X152967091Y-76639436D01*
X152219655Y-77362604D02*
X152719655Y-76496579D01*
X153420723Y-76901340D02*
X153585680Y-76996579D01*
X153644349Y-77085437D01*
X153679209Y-77215535D01*
X153625210Y-77404301D01*
X153458544Y-77692976D01*
X153322066Y-77834124D01*
X153191968Y-77868984D01*
X153085680Y-77862604D01*
X152920723Y-77767366D01*
X152862054Y-77678507D01*
X152827194Y-77548410D01*
X152881193Y-77359643D01*
X153047860Y-77070968D01*
X153184337Y-76929820D01*
X153314435Y-76894961D01*
X153420723Y-76901340D01*
X154157902Y-78481652D02*
X154107322Y-77902592D01*
X153663031Y-78195937D02*
X154163031Y-77329912D01*
X154492945Y-77520388D01*
X154551614Y-77609246D01*
X154569044Y-77674295D01*
X154562664Y-77780583D01*
X154491236Y-77904301D01*
X154402377Y-77962970D01*
X154337328Y-77980400D01*
X154231040Y-77974020D01*
X153901126Y-77783544D01*
X154982688Y-78957842D02*
X154487817Y-78672128D01*
X154735253Y-78814985D02*
X155235253Y-77948959D01*
X155081345Y-78025058D01*
X154951248Y-78059918D01*
X154844960Y-78053538D01*
X156000138Y-83527080D02*
X156000138Y-83765176D01*
X155762042Y-83669938D02*
X156000138Y-83765176D01*
X156238233Y-83669938D01*
X155857280Y-83955652D02*
X156000138Y-83765176D01*
X156142995Y-83955652D01*
%TO.C,Q5*%
X193146632Y-118686288D02*
X193057774Y-118744957D01*
X192927676Y-118779816D01*
X192732530Y-118832106D01*
X192643672Y-118890775D01*
X192596053Y-118973253D01*
X192826059Y-119051062D02*
X192737200Y-119109731D01*
X192607103Y-119144590D01*
X192418336Y-119090591D01*
X192129661Y-118923925D01*
X191988513Y-118787447D01*
X191953653Y-118657350D01*
X191960033Y-118551062D01*
X192055271Y-118386104D01*
X192144130Y-118327435D01*
X192274227Y-118292576D01*
X192462994Y-118346575D01*
X192751669Y-118513241D01*
X192892817Y-118649719D01*
X192927676Y-118779816D01*
X192921297Y-118886104D01*
X192826059Y-119051062D01*
X192626700Y-117396361D02*
X192388605Y-117808754D01*
X192777188Y-118088089D01*
X192759758Y-118023040D01*
X192766138Y-117916752D01*
X192885186Y-117710555D01*
X192974044Y-117651886D01*
X193039093Y-117634456D01*
X193145381Y-117640836D01*
X193351578Y-117759884D01*
X193410247Y-117848742D01*
X193427676Y-117913791D01*
X193421297Y-118020079D01*
X193302249Y-118226276D01*
X193213391Y-118284945D01*
X193148342Y-118302374D01*
%TO.C,R10*%
X159742380Y-91272857D02*
X159266190Y-91606190D01*
X159742380Y-91844285D02*
X158742380Y-91844285D01*
X158742380Y-91463333D01*
X158790000Y-91368095D01*
X158837619Y-91320476D01*
X158932857Y-91272857D01*
X159075714Y-91272857D01*
X159170952Y-91320476D01*
X159218571Y-91368095D01*
X159266190Y-91463333D01*
X159266190Y-91844285D01*
X159742380Y-90320476D02*
X159742380Y-90891904D01*
X159742380Y-90606190D02*
X158742380Y-90606190D01*
X158885238Y-90701428D01*
X158980476Y-90796666D01*
X159028095Y-90891904D01*
X158742380Y-89701428D02*
X158742380Y-89606190D01*
X158790000Y-89510952D01*
X158837619Y-89463333D01*
X158932857Y-89415714D01*
X159123333Y-89368095D01*
X159361428Y-89368095D01*
X159551904Y-89415714D01*
X159647142Y-89463333D01*
X159694761Y-89510952D01*
X159742380Y-89606190D01*
X159742380Y-89701428D01*
X159694761Y-89796666D01*
X159647142Y-89844285D01*
X159551904Y-89891904D01*
X159361428Y-89939523D01*
X159123333Y-89939523D01*
X158932857Y-89891904D01*
X158837619Y-89844285D01*
X158790000Y-89796666D01*
X158742380Y-89701428D01*
%TO.C,J1*%
X163729522Y-136898850D02*
X164443808Y-136898850D01*
X164586665Y-136946469D01*
X164681903Y-137041707D01*
X164729522Y-137184564D01*
X164729522Y-137279802D01*
X164729522Y-135898850D02*
X164729522Y-136470278D01*
X164729522Y-136184564D02*
X163729522Y-136184564D01*
X163872380Y-136279802D01*
X163967618Y-136375040D01*
X164015237Y-136470278D01*
X164348570Y-134327421D02*
X164348570Y-133565517D01*
X164729522Y-133946469D02*
X163967618Y-133946469D01*
X164729522Y-132565517D02*
X164729522Y-133136945D01*
X164729522Y-132851231D02*
X163729522Y-132851231D01*
X163872380Y-132946469D01*
X163967618Y-133041707D01*
X164015237Y-133136945D01*
X163824761Y-132184564D02*
X163777142Y-132136945D01*
X163729522Y-132041707D01*
X163729522Y-131803612D01*
X163777142Y-131708374D01*
X163824761Y-131660755D01*
X163919999Y-131613136D01*
X164015237Y-131613136D01*
X164158094Y-131660755D01*
X164729522Y-132232183D01*
X164729522Y-131613136D01*
X163729522Y-131327421D02*
X164729522Y-130994088D01*
X163729522Y-130660755D01*
%TO.C,D4*%
X200952380Y-110570595D02*
X199952380Y-110570595D01*
X199952380Y-110332500D01*
X200000000Y-110189642D01*
X200095238Y-110094404D01*
X200190476Y-110046785D01*
X200380952Y-109999166D01*
X200523809Y-109999166D01*
X200714285Y-110046785D01*
X200809523Y-110094404D01*
X200904761Y-110189642D01*
X200952380Y-110332500D01*
X200952380Y-110570595D01*
X200285714Y-109142023D02*
X200952380Y-109142023D01*
X199904761Y-109380119D02*
X200619047Y-109618214D01*
X200619047Y-108999166D01*
X196902380Y-111631428D02*
X195902380Y-111631428D01*
X196616666Y-111298095D01*
X195902380Y-110964761D01*
X196902380Y-110964761D01*
X195902380Y-110298095D02*
X195902380Y-110107619D01*
X195950000Y-110012380D01*
X196045238Y-109917142D01*
X196235714Y-109869523D01*
X196569047Y-109869523D01*
X196759523Y-109917142D01*
X196854761Y-110012380D01*
X196902380Y-110107619D01*
X196902380Y-110298095D01*
X196854761Y-110393333D01*
X196759523Y-110488571D01*
X196569047Y-110536190D01*
X196235714Y-110536190D01*
X196045238Y-110488571D01*
X195950000Y-110393333D01*
X195902380Y-110298095D01*
X195902380Y-109583809D02*
X195902380Y-109012380D01*
X196902380Y-109298095D02*
X195902380Y-109298095D01*
X195902380Y-108488571D02*
X195902380Y-108298095D01*
X195950000Y-108202857D01*
X196045238Y-108107619D01*
X196235714Y-108060000D01*
X196569047Y-108060000D01*
X196759523Y-108107619D01*
X196854761Y-108202857D01*
X196902380Y-108298095D01*
X196902380Y-108488571D01*
X196854761Y-108583809D01*
X196759523Y-108679047D01*
X196569047Y-108726666D01*
X196235714Y-108726666D01*
X196045238Y-108679047D01*
X195950000Y-108583809D01*
X195902380Y-108488571D01*
X196902380Y-107060000D02*
X196426190Y-107393333D01*
X196902380Y-107631428D02*
X195902380Y-107631428D01*
X195902380Y-107250476D01*
X195950000Y-107155238D01*
X195997619Y-107107619D01*
X196092857Y-107060000D01*
X196235714Y-107060000D01*
X196330952Y-107107619D01*
X196378571Y-107155238D01*
X196426190Y-107250476D01*
X196426190Y-107631428D01*
X196616666Y-105917142D02*
X196616666Y-105440952D01*
X196902380Y-106012380D02*
X195902380Y-105679047D01*
X196902380Y-105345714D01*
X196807142Y-104440952D02*
X196854761Y-104488571D01*
X196902380Y-104631428D01*
X196902380Y-104726666D01*
X196854761Y-104869523D01*
X196759523Y-104964761D01*
X196664285Y-105012380D01*
X196473809Y-105060000D01*
X196330952Y-105060000D01*
X196140476Y-105012380D01*
X196045238Y-104964761D01*
X195950000Y-104869523D01*
X195902380Y-104726666D01*
X195902380Y-104631428D01*
X195950000Y-104488571D01*
X195997619Y-104440952D01*
X195902380Y-104155238D02*
X195902380Y-103583809D01*
X196902380Y-103869523D02*
X195902380Y-103869523D01*
X196902380Y-103250476D02*
X195902380Y-103250476D01*
X195902380Y-102917142D02*
X196902380Y-102583809D01*
X195902380Y-102250476D01*
X196378571Y-101917142D02*
X196378571Y-101583809D01*
X196902380Y-101440952D02*
X196902380Y-101917142D01*
X195902380Y-101917142D01*
X195902380Y-101440952D01*
%TO.C,R15*%
X186702380Y-114642857D02*
X186226190Y-114976190D01*
X186702380Y-115214285D02*
X185702380Y-115214285D01*
X185702380Y-114833333D01*
X185750000Y-114738095D01*
X185797619Y-114690476D01*
X185892857Y-114642857D01*
X186035714Y-114642857D01*
X186130952Y-114690476D01*
X186178571Y-114738095D01*
X186226190Y-114833333D01*
X186226190Y-115214285D01*
X186702380Y-113690476D02*
X186702380Y-114261904D01*
X186702380Y-113976190D02*
X185702380Y-113976190D01*
X185845238Y-114071428D01*
X185940476Y-114166666D01*
X185988095Y-114261904D01*
X185702380Y-112785714D02*
X185702380Y-113261904D01*
X186178571Y-113309523D01*
X186130952Y-113261904D01*
X186083333Y-113166666D01*
X186083333Y-112928571D01*
X186130952Y-112833333D01*
X186178571Y-112785714D01*
X186273809Y-112738095D01*
X186511904Y-112738095D01*
X186607142Y-112785714D01*
X186654761Y-112833333D01*
X186702380Y-112928571D01*
X186702380Y-113166666D01*
X186654761Y-113261904D01*
X186607142Y-113309523D01*
%TO.C,D1*%
X156092380Y-113018095D02*
X155092380Y-113018095D01*
X155092380Y-112780000D01*
X155140000Y-112637142D01*
X155235238Y-112541904D01*
X155330476Y-112494285D01*
X155520952Y-112446666D01*
X155663809Y-112446666D01*
X155854285Y-112494285D01*
X155949523Y-112541904D01*
X156044761Y-112637142D01*
X156092380Y-112780000D01*
X156092380Y-113018095D01*
X156092380Y-111494285D02*
X156092380Y-112065714D01*
X156092380Y-111780000D02*
X155092380Y-111780000D01*
X155235238Y-111875238D01*
X155330476Y-111970476D01*
X155378095Y-112065714D01*
X156092380Y-109899047D02*
X156092380Y-110470476D01*
X156092380Y-110184761D02*
X155092380Y-110184761D01*
X155235238Y-110280000D01*
X155330476Y-110375238D01*
X155378095Y-110470476D01*
X155187619Y-109518095D02*
X155140000Y-109470476D01*
X155092380Y-109375238D01*
X155092380Y-109137142D01*
X155140000Y-109041904D01*
X155187619Y-108994285D01*
X155282857Y-108946666D01*
X155378095Y-108946666D01*
X155520952Y-108994285D01*
X156092380Y-109565714D01*
X156092380Y-108946666D01*
X155092380Y-108660952D02*
X156092380Y-108327619D01*
X155092380Y-107994285D01*
%TO.C,R4*%
X158592379Y-122446666D02*
X158116189Y-122780000D01*
X158592379Y-123018095D02*
X157592379Y-123018095D01*
X157592379Y-122637142D01*
X157639999Y-122541904D01*
X157687618Y-122494285D01*
X157782856Y-122446666D01*
X157925713Y-122446666D01*
X158020951Y-122494285D01*
X158068570Y-122541904D01*
X158116189Y-122637142D01*
X158116189Y-123018095D01*
X157925713Y-121589523D02*
X158592379Y-121589523D01*
X157544760Y-121827619D02*
X158259046Y-122065714D01*
X158259046Y-121446666D01*
%TO.C,R18*%
X188142380Y-113922857D02*
X187666190Y-114256190D01*
X188142380Y-114494285D02*
X187142380Y-114494285D01*
X187142380Y-114113333D01*
X187190000Y-114018095D01*
X187237619Y-113970476D01*
X187332857Y-113922857D01*
X187475714Y-113922857D01*
X187570952Y-113970476D01*
X187618571Y-114018095D01*
X187666190Y-114113333D01*
X187666190Y-114494285D01*
X188142380Y-112970476D02*
X188142380Y-113541904D01*
X188142380Y-113256190D02*
X187142380Y-113256190D01*
X187285238Y-113351428D01*
X187380476Y-113446666D01*
X187428095Y-113541904D01*
X187570952Y-112399047D02*
X187523333Y-112494285D01*
X187475714Y-112541904D01*
X187380476Y-112589523D01*
X187332857Y-112589523D01*
X187237619Y-112541904D01*
X187190000Y-112494285D01*
X187142380Y-112399047D01*
X187142380Y-112208571D01*
X187190000Y-112113333D01*
X187237619Y-112065714D01*
X187332857Y-112018095D01*
X187380476Y-112018095D01*
X187475714Y-112065714D01*
X187523333Y-112113333D01*
X187570952Y-112208571D01*
X187570952Y-112399047D01*
X187618571Y-112494285D01*
X187666190Y-112541904D01*
X187761428Y-112589523D01*
X187951904Y-112589523D01*
X188047142Y-112541904D01*
X188094761Y-112494285D01*
X188142380Y-112399047D01*
X188142380Y-112208571D01*
X188094761Y-112113333D01*
X188047142Y-112065714D01*
X187951904Y-112018095D01*
X187761428Y-112018095D01*
X187666190Y-112065714D01*
X187618571Y-112113333D01*
X187570952Y-112208571D01*
%TO.C,D5*%
X159882380Y-95288095D02*
X158882380Y-95288095D01*
X158882380Y-95050000D01*
X158930000Y-94907142D01*
X159025238Y-94811904D01*
X159120476Y-94764285D01*
X159310952Y-94716666D01*
X159453809Y-94716666D01*
X159644285Y-94764285D01*
X159739523Y-94811904D01*
X159834761Y-94907142D01*
X159882380Y-95050000D01*
X159882380Y-95288095D01*
X158882380Y-93811904D02*
X158882380Y-94288095D01*
X159358571Y-94335714D01*
X159310952Y-94288095D01*
X159263333Y-94192857D01*
X159263333Y-93954761D01*
X159310952Y-93859523D01*
X159358571Y-93811904D01*
X159453809Y-93764285D01*
X159691904Y-93764285D01*
X159787142Y-93811904D01*
X159834761Y-93859523D01*
X159882380Y-93954761D01*
X159882380Y-94192857D01*
X159834761Y-94288095D01*
X159787142Y-94335714D01*
X155864761Y-94766190D02*
X155912380Y-94623333D01*
X155912380Y-94385238D01*
X155864761Y-94290000D01*
X155817142Y-94242380D01*
X155721904Y-94194761D01*
X155626666Y-94194761D01*
X155531428Y-94242380D01*
X155483809Y-94290000D01*
X155436190Y-94385238D01*
X155388571Y-94575714D01*
X155340952Y-94670952D01*
X155293333Y-94718571D01*
X155198095Y-94766190D01*
X155102857Y-94766190D01*
X155007619Y-94718571D01*
X154960000Y-94670952D01*
X154912380Y-94575714D01*
X154912380Y-94337619D01*
X154960000Y-94194761D01*
X154912380Y-93909047D02*
X154912380Y-93337619D01*
X155912380Y-93623333D02*
X154912380Y-93623333D01*
X155626666Y-93051904D02*
X155626666Y-92575714D01*
X155912380Y-93147142D02*
X154912380Y-92813809D01*
X155912380Y-92480476D01*
X154912380Y-92290000D02*
X154912380Y-91718571D01*
X155912380Y-92004285D02*
X154912380Y-92004285D01*
X154912380Y-91385238D02*
X155721904Y-91385238D01*
X155817142Y-91337619D01*
X155864761Y-91290000D01*
X155912380Y-91194761D01*
X155912380Y-91004285D01*
X155864761Y-90909047D01*
X155817142Y-90861428D01*
X155721904Y-90813809D01*
X154912380Y-90813809D01*
X155864761Y-90385238D02*
X155912380Y-90242380D01*
X155912380Y-90004285D01*
X155864761Y-89909047D01*
X155817142Y-89861428D01*
X155721904Y-89813809D01*
X155626666Y-89813809D01*
X155531428Y-89861428D01*
X155483809Y-89909047D01*
X155436190Y-90004285D01*
X155388571Y-90194761D01*
X155340952Y-90290000D01*
X155293333Y-90337619D01*
X155198095Y-90385238D01*
X155102857Y-90385238D01*
X155007619Y-90337619D01*
X154960000Y-90290000D01*
X154912380Y-90194761D01*
X154912380Y-89956666D01*
X154960000Y-89813809D01*
%TO.C,D3*%
X189302380Y-84688095D02*
X188302380Y-84688095D01*
X188302380Y-84450000D01*
X188350000Y-84307142D01*
X188445238Y-84211904D01*
X188540476Y-84164285D01*
X188730952Y-84116666D01*
X188873809Y-84116666D01*
X189064285Y-84164285D01*
X189159523Y-84211904D01*
X189254761Y-84307142D01*
X189302380Y-84450000D01*
X189302380Y-84688095D01*
X188302380Y-83783333D02*
X188302380Y-83164285D01*
X188683333Y-83497619D01*
X188683333Y-83354761D01*
X188730952Y-83259523D01*
X188778571Y-83211904D01*
X188873809Y-83164285D01*
X189111904Y-83164285D01*
X189207142Y-83211904D01*
X189254761Y-83259523D01*
X189302380Y-83354761D01*
X189302380Y-83640476D01*
X189254761Y-83735714D01*
X189207142Y-83783333D01*
%TO.C,J6*%
X192195419Y-76865626D02*
X192552562Y-77484216D01*
X192582751Y-77631743D01*
X192547891Y-77761841D01*
X192447983Y-77874509D01*
X192365504Y-77922128D01*
X192978966Y-76413245D02*
X192814008Y-76508483D01*
X192755339Y-76597342D01*
X192737910Y-76662390D01*
X192726860Y-76833727D01*
X192780858Y-77022494D01*
X192971334Y-77352409D01*
X193060193Y-77411078D01*
X193125242Y-77428507D01*
X193231530Y-77422128D01*
X193396487Y-77326890D01*
X193455156Y-77238031D01*
X193472586Y-77172982D01*
X193466206Y-77066694D01*
X193347159Y-76860498D01*
X193258300Y-76801829D01*
X193193251Y-76784399D01*
X193086963Y-76790779D01*
X192922006Y-76886017D01*
X192863337Y-76974875D01*
X192845907Y-77039924D01*
X192852287Y-77146212D01*
X202612834Y-99718643D02*
X202112834Y-98852617D01*
X202758652Y-99304540D01*
X202690184Y-98519284D01*
X203190184Y-99385309D01*
X203267534Y-98185950D02*
X203432492Y-98090712D01*
X203538780Y-98084333D01*
X203668877Y-98119192D01*
X203805355Y-98260340D01*
X203972022Y-98549015D01*
X204026020Y-98737782D01*
X203991161Y-98867879D01*
X203932492Y-98956738D01*
X203767534Y-99051976D01*
X203661246Y-99058356D01*
X203531149Y-99023496D01*
X203394671Y-98882348D01*
X203228005Y-98593673D01*
X203174006Y-98404906D01*
X203208865Y-98274809D01*
X203267534Y-98185950D01*
X203886124Y-97828808D02*
X204380996Y-97543093D01*
X204633560Y-98551976D02*
X204133560Y-97685950D01*
X204834628Y-97281189D02*
X204999585Y-97185950D01*
X205105873Y-97179571D01*
X205235971Y-97214430D01*
X205372448Y-97355578D01*
X205539115Y-97644253D01*
X205593114Y-97833020D01*
X205558254Y-97963117D01*
X205499585Y-98051976D01*
X205334628Y-98147214D01*
X205228340Y-98153594D01*
X205098242Y-98118734D01*
X204961765Y-97977586D01*
X204795098Y-97688911D01*
X204741099Y-97500145D01*
X204775959Y-97370047D01*
X204834628Y-97281189D01*
X206571807Y-97432928D02*
X206045037Y-97187202D01*
X206076936Y-97718643D02*
X205576936Y-96852617D01*
X205906850Y-96662141D01*
X206013138Y-96655761D01*
X206078187Y-96673191D01*
X206167045Y-96731860D01*
X206238474Y-96855578D01*
X206244854Y-96961866D01*
X206227424Y-97026915D01*
X206168755Y-97115773D01*
X205838840Y-97306249D01*
X206449341Y-96458905D02*
X206466770Y-96393856D01*
X206525440Y-96304998D01*
X206731636Y-96185950D01*
X206837924Y-96179571D01*
X206902973Y-96197000D01*
X206991831Y-96255670D01*
X207039450Y-96338148D01*
X207069640Y-96485676D01*
X206860482Y-97266262D01*
X207396593Y-96956738D01*
X196977408Y-97300890D02*
X197183605Y-97419938D01*
X196982079Y-97578515D02*
X197183605Y-97419938D01*
X197220174Y-97166122D01*
X197277134Y-97638894D02*
X197183605Y-97419938D01*
X197419991Y-97391458D01*
%TO.C,R3*%
X156092379Y-122446666D02*
X155616189Y-122780000D01*
X156092379Y-123018095D02*
X155092379Y-123018095D01*
X155092379Y-122637142D01*
X155139999Y-122541904D01*
X155187618Y-122494285D01*
X155282856Y-122446666D01*
X155425713Y-122446666D01*
X155520951Y-122494285D01*
X155568570Y-122541904D01*
X155616189Y-122637142D01*
X155616189Y-123018095D01*
X155092379Y-122113333D02*
X155092379Y-121494285D01*
X155473332Y-121827619D01*
X155473332Y-121684761D01*
X155520951Y-121589523D01*
X155568570Y-121541904D01*
X155663808Y-121494285D01*
X155901903Y-121494285D01*
X155997141Y-121541904D01*
X156044760Y-121589523D01*
X156092379Y-121684761D01*
X156092379Y-121970476D01*
X156044760Y-122065714D01*
X155997141Y-122113333D01*
%TO.C,D2*%
X158592380Y-113018095D02*
X157592380Y-113018095D01*
X157592380Y-112780000D01*
X157640000Y-112637142D01*
X157735238Y-112541904D01*
X157830476Y-112494285D01*
X158020952Y-112446666D01*
X158163809Y-112446666D01*
X158354285Y-112494285D01*
X158449523Y-112541904D01*
X158544761Y-112637142D01*
X158592380Y-112780000D01*
X158592380Y-113018095D01*
X157687619Y-112065714D02*
X157640000Y-112018095D01*
X157592380Y-111922857D01*
X157592380Y-111684761D01*
X157640000Y-111589523D01*
X157687619Y-111541904D01*
X157782857Y-111494285D01*
X157878095Y-111494285D01*
X158020952Y-111541904D01*
X158592380Y-112113333D01*
X158592380Y-111494285D01*
X157592380Y-109470476D02*
X157592380Y-109946666D01*
X158068571Y-109994285D01*
X158020952Y-109946666D01*
X157973333Y-109851428D01*
X157973333Y-109613333D01*
X158020952Y-109518095D01*
X158068571Y-109470476D01*
X158163809Y-109422857D01*
X158401904Y-109422857D01*
X158497142Y-109470476D01*
X158544761Y-109518095D01*
X158592380Y-109613333D01*
X158592380Y-109851428D01*
X158544761Y-109946666D01*
X158497142Y-109994285D01*
X157592380Y-109137142D02*
X158592380Y-108803809D01*
X157592380Y-108470476D01*
D11*
%TO.C,PS1*%
X142185714Y-102022380D02*
X142185714Y-101022380D01*
X142566666Y-101022380D01*
X142661904Y-101070000D01*
X142709523Y-101117619D01*
X142757142Y-101212857D01*
X142757142Y-101355714D01*
X142709523Y-101450952D01*
X142661904Y-101498571D01*
X142566666Y-101546190D01*
X142185714Y-101546190D01*
X143138095Y-101974761D02*
X143280952Y-102022380D01*
X143519047Y-102022380D01*
X143614285Y-101974761D01*
X143661904Y-101927142D01*
X143709523Y-101831904D01*
X143709523Y-101736666D01*
X143661904Y-101641428D01*
X143614285Y-101593809D01*
X143519047Y-101546190D01*
X143328571Y-101498571D01*
X143233333Y-101450952D01*
X143185714Y-101403333D01*
X143138095Y-101308095D01*
X143138095Y-101212857D01*
X143185714Y-101117619D01*
X143233333Y-101070000D01*
X143328571Y-101022380D01*
X143566666Y-101022380D01*
X143709523Y-101070000D01*
X144661904Y-102022380D02*
X144090476Y-102022380D01*
X144376190Y-102022380D02*
X144376190Y-101022380D01*
X144280952Y-101165238D01*
X144185714Y-101260476D01*
X144090476Y-101308095D01*
D10*
%TO.C,R16*%
X192497142Y-111692380D02*
X192163809Y-111216190D01*
X191925714Y-111692380D02*
X191925714Y-110692380D01*
X192306666Y-110692380D01*
X192401904Y-110740000D01*
X192449523Y-110787619D01*
X192497142Y-110882857D01*
X192497142Y-111025714D01*
X192449523Y-111120952D01*
X192401904Y-111168571D01*
X192306666Y-111216190D01*
X191925714Y-111216190D01*
X193449523Y-111692380D02*
X192878095Y-111692380D01*
X193163809Y-111692380D02*
X193163809Y-110692380D01*
X193068571Y-110835238D01*
X192973333Y-110930476D01*
X192878095Y-110978095D01*
X194306666Y-110692380D02*
X194116190Y-110692380D01*
X194020952Y-110740000D01*
X193973333Y-110787619D01*
X193878095Y-110930476D01*
X193830476Y-111120952D01*
X193830476Y-111501904D01*
X193878095Y-111597142D01*
X193925714Y-111644761D01*
X194020952Y-111692380D01*
X194211428Y-111692380D01*
X194306666Y-111644761D01*
X194354285Y-111597142D01*
X194401904Y-111501904D01*
X194401904Y-111263809D01*
X194354285Y-111168571D01*
X194306666Y-111120952D01*
X194211428Y-111073333D01*
X194020952Y-111073333D01*
X193925714Y-111120952D01*
X193878095Y-111168571D01*
X193830476Y-111263809D01*
%TO.C,J4*%
X205963504Y-118124389D02*
X206583248Y-118482198D01*
X206683342Y-118595076D01*
X206718267Y-118725417D01*
X206688021Y-118873220D01*
X206640314Y-118955852D01*
X206705943Y-117506358D02*
X207284370Y-117840313D01*
X206256143Y-117522107D02*
X206756617Y-118086498D01*
X207066718Y-117549387D01*
X202527679Y-126078210D02*
X202289385Y-126490948D01*
X201422637Y-125990530D01*
X202240474Y-125527171D02*
X202407280Y-125238254D01*
X202932779Y-125376557D02*
X202694485Y-125789294D01*
X201827737Y-125288877D01*
X202066031Y-124876139D01*
X203147244Y-125005093D02*
X202280495Y-124504676D01*
X202399642Y-124298307D01*
X202512404Y-124198315D01*
X202642611Y-124163426D01*
X202748987Y-124169811D01*
X202937912Y-124223855D01*
X203061733Y-124295344D01*
X203202999Y-124431935D01*
X203261717Y-124520867D01*
X203296605Y-124651074D01*
X203266391Y-124798724D01*
X203147244Y-125005093D01*
X203582558Y-124155789D02*
X203695320Y-124055797D01*
X203814467Y-123849428D01*
X203820852Y-123743051D01*
X203803408Y-123677948D01*
X203744690Y-123589016D01*
X203662142Y-123541357D01*
X203555765Y-123534972D01*
X203490662Y-123552416D01*
X203401730Y-123611134D01*
X203265138Y-123752400D01*
X203176206Y-123811118D01*
X203111103Y-123828562D01*
X203004726Y-123822177D01*
X202922178Y-123774518D01*
X202863460Y-123685586D01*
X202846016Y-123620483D01*
X202852401Y-123514106D01*
X202971548Y-123307737D01*
X203084310Y-123207745D01*
X203186013Y-122936273D02*
X203471966Y-122440989D01*
X204195738Y-123189049D02*
X203328989Y-122688631D01*
X204791473Y-122157205D02*
X204211930Y-122207827D01*
X204505520Y-122652490D02*
X203638771Y-122152072D01*
X203829407Y-121821882D01*
X203918339Y-121763164D01*
X203983442Y-121745720D01*
X204089819Y-121752105D01*
X204213640Y-121823593D01*
X204272358Y-121912526D01*
X204289803Y-121977629D01*
X204283418Y-122084006D01*
X204092783Y-122414196D01*
X205005937Y-121785741D02*
X204139189Y-121285324D01*
X205244231Y-121373004D02*
X204377483Y-120872586D01*
X204568118Y-120542397D01*
X204657051Y-120483678D01*
X204722154Y-120466234D01*
X204828531Y-120472619D01*
X204952352Y-120544107D01*
X205011070Y-120633040D01*
X205028514Y-120698143D01*
X205022129Y-120804520D01*
X204831494Y-121134710D01*
X204936618Y-120094770D02*
X204919174Y-120029667D01*
X204925559Y-119923290D01*
X205044706Y-119716922D01*
X205133639Y-119658204D01*
X205198742Y-119640759D01*
X205305119Y-119647144D01*
X205387666Y-119694803D01*
X205487658Y-119807565D01*
X205696990Y-120588803D01*
X206006772Y-120052244D01*
%TO.C,R14*%
X191412380Y-118902857D02*
X190936190Y-119236190D01*
X191412380Y-119474285D02*
X190412380Y-119474285D01*
X190412380Y-119093333D01*
X190460000Y-118998095D01*
X190507619Y-118950476D01*
X190602857Y-118902857D01*
X190745714Y-118902857D01*
X190840952Y-118950476D01*
X190888571Y-118998095D01*
X190936190Y-119093333D01*
X190936190Y-119474285D01*
X191412380Y-117950476D02*
X191412380Y-118521904D01*
X191412380Y-118236190D02*
X190412380Y-118236190D01*
X190555238Y-118331428D01*
X190650476Y-118426666D01*
X190698095Y-118521904D01*
X190745714Y-117093333D02*
X191412380Y-117093333D01*
X190364761Y-117331428D02*
X191079047Y-117569523D01*
X191079047Y-116950476D01*
%TO.C,J5*%
X180729522Y-136898850D02*
X181443808Y-136898850D01*
X181586665Y-136946469D01*
X181681903Y-137041707D01*
X181729522Y-137184564D01*
X181729522Y-137279802D01*
X180729522Y-135946469D02*
X180729522Y-136422659D01*
X181205713Y-136470278D01*
X181158094Y-136422659D01*
X181110475Y-136327421D01*
X181110475Y-136089326D01*
X181158094Y-135994088D01*
X181205713Y-135946469D01*
X181300951Y-135898850D01*
X181539046Y-135898850D01*
X181634284Y-135946469D01*
X181681903Y-135994088D01*
X181729522Y-136089326D01*
X181729522Y-136327421D01*
X181681903Y-136422659D01*
X181634284Y-136470278D01*
X180777142Y-133327421D02*
X180729522Y-133422659D01*
X180729522Y-133565517D01*
X180777142Y-133708374D01*
X180872380Y-133803612D01*
X180967618Y-133851231D01*
X181158094Y-133898850D01*
X181300951Y-133898850D01*
X181491427Y-133851231D01*
X181586665Y-133803612D01*
X181681903Y-133708374D01*
X181729522Y-133565517D01*
X181729522Y-133470278D01*
X181681903Y-133327421D01*
X181634284Y-133279802D01*
X181300951Y-133279802D01*
X181300951Y-133470278D01*
X181729522Y-132851231D02*
X180729522Y-132851231D01*
X181729522Y-132279802D01*
X180729522Y-132279802D01*
X181729522Y-131803612D02*
X180729522Y-131803612D01*
X180729522Y-131565517D01*
X180777142Y-131422659D01*
X180872380Y-131327421D01*
X180967618Y-131279802D01*
X181158094Y-131232183D01*
X181300951Y-131232183D01*
X181491427Y-131279802D01*
X181586665Y-131327421D01*
X181681903Y-131422659D01*
X181729522Y-131565517D01*
X181729522Y-131803612D01*
%TO.C,J3*%
X168074428Y-66096877D02*
X168074428Y-66812495D01*
X168026721Y-66955619D01*
X167931305Y-67051035D01*
X167788181Y-67098743D01*
X167692765Y-67098743D01*
X168456092Y-66096877D02*
X169076294Y-66096877D01*
X168742339Y-66478540D01*
X168885463Y-66478540D01*
X168980879Y-66526248D01*
X169028587Y-66573956D01*
X169076294Y-66669371D01*
X169076294Y-66907911D01*
X169028587Y-67003327D01*
X168980879Y-67051035D01*
X168885463Y-67098743D01*
X168599215Y-67098743D01*
X168503800Y-67051035D01*
X168456092Y-67003327D01*
X171914524Y-67098276D02*
X171437936Y-67098276D01*
X171437936Y-66097441D01*
X172248135Y-66574029D02*
X172581747Y-66574029D01*
X172724723Y-67098276D02*
X172248135Y-67098276D01*
X172248135Y-66097441D01*
X172724723Y-66097441D01*
X173153653Y-67098276D02*
X173153653Y-66097441D01*
X173391947Y-66097441D01*
X173534923Y-66145100D01*
X173630241Y-66240418D01*
X173677900Y-66335735D01*
X173725558Y-66526370D01*
X173725558Y-66669347D01*
X173677900Y-66859982D01*
X173630241Y-66955300D01*
X173534923Y-67050617D01*
X173391947Y-67098276D01*
X173153653Y-67098276D01*
X174106829Y-67050617D02*
X174249805Y-67098276D01*
X174488099Y-67098276D01*
X174583417Y-67050617D01*
X174631076Y-67002959D01*
X174678735Y-66907641D01*
X174678735Y-66812323D01*
X174631076Y-66717006D01*
X174583417Y-66669347D01*
X174488099Y-66621688D01*
X174297464Y-66574029D01*
X174202147Y-66526370D01*
X174154488Y-66478712D01*
X174106829Y-66383394D01*
X174106829Y-66288076D01*
X174154488Y-66192759D01*
X174202147Y-66145100D01*
X174297464Y-66097441D01*
X174535758Y-66097441D01*
X174678735Y-66145100D01*
X174964687Y-66097441D02*
X175536593Y-66097441D01*
X175250640Y-67098276D02*
X175250640Y-66097441D01*
X176442111Y-67098276D02*
X176108499Y-66621688D01*
X175870205Y-67098276D02*
X175870205Y-66097441D01*
X176251475Y-66097441D01*
X176346793Y-66145100D01*
X176394452Y-66192759D01*
X176442111Y-66288076D01*
X176442111Y-66431053D01*
X176394452Y-66526370D01*
X176346793Y-66574029D01*
X176251475Y-66621688D01*
X175870205Y-66621688D01*
X176871040Y-67098276D02*
X176871040Y-66097441D01*
X177347628Y-67098276D02*
X177347628Y-66097441D01*
X177728898Y-66097441D01*
X177824216Y-66145100D01*
X177871875Y-66192759D01*
X177919534Y-66288076D01*
X177919534Y-66431053D01*
X177871875Y-66526370D01*
X177824216Y-66574029D01*
X177728898Y-66621688D01*
X177347628Y-66621688D01*
X178872710Y-67098276D02*
X178300804Y-67098276D01*
X178586757Y-67098276D02*
X178586757Y-66097441D01*
X178491439Y-66240418D01*
X178396122Y-66335735D01*
X178300804Y-66383394D01*
%TO.C,R9*%
X200732380Y-105466666D02*
X200256190Y-105800000D01*
X200732380Y-106038095D02*
X199732380Y-106038095D01*
X199732380Y-105657142D01*
X199780000Y-105561904D01*
X199827619Y-105514285D01*
X199922857Y-105466666D01*
X200065714Y-105466666D01*
X200160952Y-105514285D01*
X200208571Y-105561904D01*
X200256190Y-105657142D01*
X200256190Y-106038095D01*
X200732380Y-104990476D02*
X200732380Y-104800000D01*
X200684761Y-104704761D01*
X200637142Y-104657142D01*
X200494285Y-104561904D01*
X200303809Y-104514285D01*
X199922857Y-104514285D01*
X199827619Y-104561904D01*
X199780000Y-104609523D01*
X199732380Y-104704761D01*
X199732380Y-104895238D01*
X199780000Y-104990476D01*
X199827619Y-105038095D01*
X199922857Y-105085714D01*
X200160952Y-105085714D01*
X200256190Y-105038095D01*
X200303809Y-104990476D01*
X200351428Y-104895238D01*
X200351428Y-104704761D01*
X200303809Y-104609523D01*
X200256190Y-104561904D01*
X200160952Y-104514285D01*
D11*
%TO.C,U5*%
X161764943Y-75247686D02*
X161764943Y-76057522D01*
X161812580Y-76152797D01*
X161860218Y-76200435D01*
X161955492Y-76248072D01*
X162146042Y-76248072D01*
X162241317Y-76200435D01*
X162288954Y-76152797D01*
X162336592Y-76057522D01*
X162336592Y-75247686D01*
X163289340Y-75247686D02*
X162812966Y-75247686D01*
X162765329Y-75724060D01*
X162812966Y-75676423D01*
X162908241Y-75628786D01*
X163146428Y-75628786D01*
X163241703Y-75676423D01*
X163289340Y-75724060D01*
X163336978Y-75819335D01*
X163336978Y-76057522D01*
X163289340Y-76152797D01*
X163241703Y-76200435D01*
X163146428Y-76248072D01*
X162908241Y-76248072D01*
X162812966Y-76200435D01*
X162765329Y-76152797D01*
D12*
%TO.C,R5*%
X186415000Y-79472936D02*
X186415000Y-79927064D01*
X187885000Y-79472936D02*
X187885000Y-79927064D01*
D13*
%TO.C,J12*%
X144321725Y-125586588D02*
X139346725Y-116969636D01*
X150212756Y-118834460D02*
G75*
G03*
X150212756Y-118834460I-240000J0D01*
G01*
D12*
%TO.C,Q4*%
X191373916Y-125513846D02*
X193173916Y-122396155D01*
X193183176Y-122357072D02*
G75*
G03*
X188420103Y-121730001I-2511407J-672929D01*
G01*
X191344698Y-125541408D02*
G75*
G02*
X188420103Y-121730001I-672929J2511407D01*
G01*
D14*
%TO.C,J8*%
X156300733Y-81365094D02*
X151027973Y-78320865D01*
X140906073Y-95852510D02*
X146178833Y-98896740D01*
X151105003Y-90364363D02*
X151374563Y-89897471D01*
X148605003Y-94694490D02*
X148874563Y-94227598D01*
X146178833Y-98896740D02*
X147624563Y-96392662D01*
X152355003Y-88199299D02*
X152624563Y-87732408D01*
X153605003Y-86034236D02*
X153874563Y-85567344D01*
X146460756Y-77885234D02*
X138245197Y-92115000D01*
X154855003Y-83869172D02*
X156300733Y-81365094D01*
X149855003Y-92529426D02*
X150124563Y-92062535D01*
X158132201Y-82141209D02*
G75*
G03*
X158132201Y-82141209I-380999J0D01*
G01*
D12*
%TO.C,Q5*%
X194343916Y-117123846D02*
X196143916Y-114006155D01*
X196153176Y-113967072D02*
G75*
G03*
X191390103Y-113340001I-2511407J-672929D01*
G01*
X194314698Y-117151408D02*
G75*
G02*
X191390103Y-113340001I-672929J2511407D01*
G01*
%TO.C,R10*%
X158375000Y-90372936D02*
X158375000Y-90827064D01*
X156905000Y-90372936D02*
X156905000Y-90827064D01*
%TO.C,D4*%
X197670000Y-107972500D02*
X197670000Y-110832500D01*
X199590000Y-107972500D02*
X197670000Y-107972500D01*
X199590000Y-110832500D02*
X199590000Y-107972500D01*
%TO.C,R15*%
X186505000Y-117477064D02*
X186505000Y-117022936D01*
X187975000Y-117477064D02*
X187975000Y-117022936D01*
%TO.C,D1*%
X156600000Y-117140000D02*
X156600000Y-114280000D01*
X154680000Y-117140000D02*
X156600000Y-117140000D01*
X154680000Y-114280000D02*
X154680000Y-117140000D01*
%TO.C,R4*%
X157404999Y-119507064D02*
X157404999Y-119052936D01*
X158874999Y-119507064D02*
X158874999Y-119052936D01*
%TO.C,R18*%
X190075000Y-113507064D02*
X190075000Y-113052936D01*
X188605000Y-113507064D02*
X188605000Y-113052936D01*
%TO.C,D5*%
X156680000Y-93002500D02*
X156680000Y-95862500D01*
X158600000Y-93002500D02*
X156680000Y-93002500D01*
X158600000Y-95862500D02*
X158600000Y-93002500D01*
%TO.C,D3*%
X186240000Y-82090000D02*
X186240000Y-84950000D01*
X188160000Y-84950000D02*
X188160000Y-82090000D01*
X188160000Y-82090000D02*
X186240000Y-82090000D01*
D14*
%TO.C,J6*%
X191679721Y-85567344D02*
X191949281Y-86034236D01*
X199375451Y-98896740D02*
X204648211Y-95852510D01*
X197929721Y-96392662D02*
X199375451Y-98896740D01*
X189253551Y-81365094D02*
X190699281Y-83869172D01*
X194179721Y-89897471D02*
X194449281Y-90364363D01*
X196679721Y-94227598D02*
X196949281Y-94694490D01*
X192929721Y-87732408D02*
X193199281Y-88199299D01*
X194526311Y-78320865D02*
X189253551Y-81365094D01*
X195429721Y-92062535D02*
X195699281Y-92529426D01*
X207309087Y-92115000D02*
X199093528Y-77885234D01*
X198359081Y-99764825D02*
G75*
G03*
X198359081Y-99764825I-380999J0D01*
G01*
D12*
%TO.C,R3*%
X156374999Y-119507064D02*
X156374999Y-119052936D01*
X154904999Y-119507064D02*
X154904999Y-119052936D01*
%TO.C,D2*%
X157180000Y-114280000D02*
X157180000Y-117140000D01*
X157180000Y-117140000D02*
X159100000Y-117140000D01*
X159100000Y-117140000D02*
X159100000Y-114280000D01*
D15*
%TO.C,PS1*%
X153940000Y-111010000D02*
X153940000Y-102510000D01*
X153940000Y-102510000D02*
X142340000Y-102510000D01*
X142340000Y-102510000D02*
X142340000Y-111010000D01*
X142340000Y-111010000D02*
X153940000Y-111010000D01*
D13*
X141890000Y-109010000D02*
G75*
G03*
X141890000Y-109010000I-100000J0D01*
G01*
D12*
%TO.C,R16*%
X193367064Y-108855000D02*
X192912936Y-108855000D01*
X193367064Y-110325000D02*
X192912936Y-110325000D01*
D13*
%TO.C,J4*%
X206195167Y-116970421D02*
X201220167Y-125587373D01*
X197762136Y-115452549D02*
G75*
G03*
X197762136Y-115452549I-240000J0D01*
G01*
D12*
%TO.C,R14*%
X190075000Y-117477064D02*
X190075000Y-117022936D01*
X188605000Y-117477064D02*
X188605000Y-117022936D01*
D13*
%TO.C,J3*%
X167802142Y-67695518D02*
X177752142Y-67695518D01*
X171064142Y-75965518D02*
G75*
G03*
X171064142Y-75965518I-240000J0D01*
G01*
D12*
%TO.C,R9*%
X199365000Y-105072936D02*
X199365000Y-105527064D01*
X197895000Y-105072936D02*
X197895000Y-105527064D01*
D15*
%TO.C,U5*%
X160077142Y-125445517D02*
X160077142Y-77195517D01*
X185477142Y-77195517D02*
X185477142Y-125445517D01*
X185477142Y-125445517D02*
X160077142Y-125445517D01*
X160077142Y-77195517D02*
X185477142Y-77195517D01*
D12*
X169077142Y-121145517D02*
X176477142Y-121145517D01*
X176477142Y-121145517D02*
X176477142Y-126445517D01*
X176477142Y-126445517D02*
X169077142Y-126445517D01*
X169077142Y-126445517D02*
X169077142Y-121145517D01*
%TD*%
M02*
