%TF.GenerationSoftware,KiCad,Pcbnew,(5.99.0-10211-g744e70df36)*%
%TF.CreationDate,2021-04-29T03:04:50-06:00*%
%TF.ProjectId,spinnybot-motherboad,7370696e-6e79-4626-9f74-2d6d6f746865,rev?*%
%TF.SameCoordinates,Original*%
%TF.FileFunction,Soldermask,Top*%
%TF.FilePolarity,Negative*%
%FSLAX46Y46*%
G04 Gerber Fmt 4.6, Leading zero omitted, Abs format (unit mm)*
G04 Created by KiCad (PCBNEW (5.99.0-10211-g744e70df36)) date 2021-04-29 03:04:50*
%MOMM*%
%LPD*%
G01*
G04 APERTURE LIST*
G04 Aperture macros list*
%AMRoundRect*
0 Rectangle with rounded corners*
0 $1 Rounding radius*
0 $2 $3 $4 $5 $6 $7 $8 $9 X,Y pos of 4 corners*
0 Add a 4 corners polygon primitive as box body*
4,1,4,$2,$3,$4,$5,$6,$7,$8,$9,$2,$3,0*
0 Add four circle primitives for the rounded corners*
1,1,$1+$1,$2,$3*
1,1,$1+$1,$4,$5*
1,1,$1+$1,$6,$7*
1,1,$1+$1,$8,$9*
0 Add four rect primitives between the rounded corners*
20,1,$1+$1,$2,$3,$4,$5,0*
20,1,$1+$1,$4,$5,$6,$7,0*
20,1,$1+$1,$6,$7,$8,$9,0*
20,1,$1+$1,$8,$9,$2,$3,0*%
%AMHorizOval*
0 Thick line with rounded ends*
0 $1 width*
0 $2 $3 position (X,Y) of the first rounded end (center of the circle)*
0 $4 $5 position (X,Y) of the second rounded end (center of the circle)*
0 Add line between two ends*
20,1,$1,$2,$3,$4,$5,0*
0 Add two circle primitives to create the rounded ends*
1,1,$1,$2,$3*
1,1,$1,$4,$5*%
%AMRotRect*
0 Rectangle, with rotation*
0 The origin of the aperture is its center*
0 $1 length*
0 $2 width*
0 $3 Rotation angle, in degrees counterclockwise*
0 Add horizontal line*
21,1,$1,$2,0,0,$3*%
G04 Aperture macros list end*
%ADD10RoundRect,0.250000X-0.450000X0.350000X-0.450000X-0.350000X0.450000X-0.350000X0.450000X0.350000X0*%
%ADD11RotRect,1.000000X5.500000X120.000000*%
%ADD12RotRect,1.600000X3.000000X120.000000*%
%ADD13RotRect,1.050000X1.500000X60.000000*%
%ADD14HorizOval,1.050000X-0.194856X0.112500X0.194856X-0.112500X0*%
%ADD15RotRect,1.295400X4.495800X240.000000*%
%ADD16RotRect,1.803400X3.911600X240.000000*%
%ADD17R,5.000000X10.000000*%
%ADD18RoundRect,0.250000X-0.450000X0.325000X-0.450000X-0.325000X0.450000X-0.325000X0.450000X0.325000X0*%
%ADD19RoundRect,0.250000X0.450000X-0.350000X0.450000X0.350000X-0.450000X0.350000X-0.450000X-0.350000X0*%
%ADD20RoundRect,0.250000X0.450000X-0.325000X0.450000X0.325000X-0.450000X0.325000X-0.450000X-0.325000X0*%
%ADD21C,3.300000*%
%ADD22RotRect,1.295400X4.495800X120.000000*%
%ADD23RotRect,1.803400X3.911600X120.000000*%
%ADD24R,1.508000X1.508000*%
%ADD25C,1.508000*%
%ADD26RoundRect,0.250000X0.350000X0.450000X-0.350000X0.450000X-0.350000X-0.450000X0.350000X-0.450000X0*%
%ADD27RotRect,1.000000X5.500000X240.000000*%
%ADD28RotRect,1.600000X3.000000X240.000000*%
%ADD29C,0.800000*%
%ADD30R,1.000000X5.500000*%
%ADD31R,1.600000X3.000000*%
%ADD32R,1.560000X1.560000*%
%ADD33C,1.560000*%
%ADD34R,1.400000X1.400000*%
%ADD35C,1.400000*%
G04 APERTURE END LIST*
D10*
%TO.C,R5*%
X187150000Y-78700000D03*
X187150000Y-80700000D03*
%TD*%
D11*
%TO.C,J12*%
X146947846Y-120635163D03*
X145947846Y-118903112D03*
X144947846Y-117171061D03*
D12*
X141799289Y-116217600D03*
X146199289Y-123838624D03*
%TD*%
D13*
%TO.C,Q4*%
X190036769Y-124129853D03*
D14*
X190671769Y-123030001D03*
X191306769Y-121930148D03*
%TD*%
D15*
%TO.C,J8*%
X152999062Y-83929759D03*
X151749062Y-86094822D03*
X150499062Y-88259886D03*
X149249062Y-90424949D03*
X147999062Y-92590013D03*
X146749062Y-94755076D03*
D16*
X148710089Y-77758478D03*
X139260090Y-94126357D03*
%TD*%
D13*
%TO.C,Q5*%
X193006769Y-115739853D03*
D14*
X193641769Y-114640001D03*
X194276769Y-113540148D03*
%TD*%
D10*
%TO.C,R10*%
X157640000Y-89600000D03*
X157640000Y-91600000D03*
%TD*%
D17*
%TO.C,J1*%
X167777142Y-132565517D03*
%TD*%
D18*
%TO.C,D4*%
X198630000Y-108807500D03*
X198630000Y-110857500D03*
%TD*%
D19*
%TO.C,R15*%
X187240000Y-118250000D03*
X187240000Y-116250000D03*
%TD*%
D20*
%TO.C,D1*%
X155640000Y-116305000D03*
X155640000Y-114255000D03*
%TD*%
D19*
%TO.C,R4*%
X158139999Y-120280000D03*
X158139999Y-118280000D03*
%TD*%
%TO.C,R18*%
X189340000Y-114280000D03*
X189340000Y-112280000D03*
%TD*%
D21*
%TO.C,H4*%
X192810000Y-104060000D03*
%TD*%
D18*
%TO.C,D5*%
X157640000Y-93837500D03*
X157640000Y-95887500D03*
%TD*%
%TO.C,D3*%
X187200000Y-82925000D03*
X187200000Y-84975000D03*
%TD*%
D22*
%TO.C,J6*%
X198805222Y-94755076D03*
X197555222Y-92590013D03*
X196305222Y-90424949D03*
X195055222Y-88259886D03*
X193805222Y-86094822D03*
X192555222Y-83929759D03*
D23*
X206294194Y-94126357D03*
X196844195Y-77758478D03*
%TD*%
D19*
%TO.C,R3*%
X155639999Y-120280000D03*
X155639999Y-118280000D03*
%TD*%
D21*
%TO.C,H1*%
X152920000Y-125000000D03*
%TD*%
D20*
%TO.C,D2*%
X158140000Y-116305000D03*
X158140000Y-114255000D03*
%TD*%
D24*
%TO.C,PS1*%
X145650000Y-109010000D03*
D25*
X148190000Y-109010000D03*
X150730000Y-109010000D03*
%TD*%
D26*
%TO.C,R16*%
X194140000Y-109590000D03*
X192140000Y-109590000D03*
%TD*%
D21*
%TO.C,H3*%
X164290000Y-72930000D03*
%TD*%
D27*
%TO.C,J4*%
X200594046Y-117171846D03*
X199594046Y-118903897D03*
X198594046Y-120635948D03*
D28*
X199342603Y-123839409D03*
X203742603Y-116218385D03*
%TD*%
D19*
%TO.C,R14*%
X189340000Y-118250000D03*
X189340000Y-116250000D03*
%TD*%
D29*
%TO.C,J5*%
X175777142Y-137065517D03*
X178777142Y-134065517D03*
X178777142Y-135065517D03*
X176777142Y-136065517D03*
X177777142Y-134065517D03*
X176777142Y-137065517D03*
X179777142Y-135065517D03*
X177777142Y-137065517D03*
X179777142Y-136065517D03*
D17*
X177777142Y-132565517D03*
D29*
X177777142Y-136065517D03*
X176777142Y-134065517D03*
X176777142Y-135065517D03*
X177777142Y-135065517D03*
X179777142Y-134065517D03*
X175777142Y-136065517D03*
X179777142Y-137065517D03*
X178777142Y-137065517D03*
X178777142Y-136065517D03*
X175777142Y-135065517D03*
X175777142Y-134065517D03*
%TD*%
D30*
%TO.C,J3*%
X170777142Y-72445518D03*
X172777142Y-72445518D03*
X174777142Y-72445518D03*
D31*
X177177142Y-70195518D03*
X168377142Y-70195518D03*
%TD*%
D10*
%TO.C,R9*%
X198630000Y-104300000D03*
X198630000Y-106300000D03*
%TD*%
D32*
%TO.C,U5*%
X161327142Y-78435517D03*
D33*
X161327142Y-80975517D03*
X161327142Y-83515517D03*
X161327142Y-86055517D03*
X161327142Y-88595517D03*
X161327142Y-91135517D03*
X161327142Y-93675517D03*
X161327142Y-96215517D03*
X161327142Y-98755517D03*
X161327142Y-101295517D03*
X161327142Y-103835517D03*
X161327142Y-106375517D03*
X161327142Y-108915517D03*
X161327142Y-111455517D03*
X161327142Y-113995517D03*
X161327142Y-116535517D03*
X161327142Y-119075517D03*
X161327142Y-121615517D03*
X161327142Y-124155517D03*
X184227142Y-78435517D03*
X184227142Y-80975517D03*
X184227142Y-83515517D03*
X184227142Y-86055517D03*
X184227142Y-88595517D03*
X184227142Y-91135517D03*
X184227142Y-93675517D03*
X184227142Y-96215517D03*
X184227142Y-98755517D03*
X184227142Y-101295517D03*
X184227142Y-103835517D03*
X184227142Y-106375517D03*
X184227142Y-108915517D03*
X184227142Y-111455517D03*
X184227142Y-113995517D03*
X184227142Y-116535517D03*
X184227142Y-119075517D03*
X184227142Y-121615517D03*
X184227142Y-124155517D03*
%TD*%
D34*
%TO.C,U2*%
X188700000Y-90500000D03*
D35*
X188700000Y-92500000D03*
X188700000Y-94500000D03*
X188700000Y-96500000D03*
X188700000Y-98500000D03*
X188700000Y-100500000D03*
X188700000Y-102500000D03*
X188700000Y-104500000D03*
X188700000Y-106500000D03*
X188700000Y-108500000D03*
X166700000Y-108500000D03*
X166700000Y-106500000D03*
X166700000Y-104500000D03*
X166700000Y-102500000D03*
X166700000Y-100500000D03*
X166700000Y-98500000D03*
X166700000Y-96500000D03*
X166700000Y-94500000D03*
X166700000Y-92500000D03*
X166700000Y-90500000D03*
%TD*%
D29*
X150730000Y-112280000D03*
X155170000Y-79110000D03*
X171830000Y-68410000D03*
X194620000Y-108340000D03*
X155980000Y-95750000D03*
X164630000Y-116010000D03*
X154879603Y-96898246D03*
X195620000Y-106760000D03*
X200480000Y-89140000D03*
X163900000Y-111810000D03*
X150460000Y-115280000D03*
X167770000Y-120600000D03*
X156840000Y-122160000D03*
X175810000Y-99380000D03*
X175640000Y-102480000D03*
X167000000Y-122610000D03*
X189290000Y-110820000D03*
X157620000Y-87290000D03*
X198620000Y-102410000D03*
X177300000Y-97120000D03*
X182560000Y-81600000D03*
X195127579Y-100376187D03*
X193180000Y-96530000D03*
X195740000Y-125440000D03*
X184180000Y-139100000D03*
X142300000Y-120210000D03*
X202240000Y-121940000D03*
X174110000Y-67930000D03*
X150520000Y-121330000D03*
X149540000Y-127250000D03*
X202680000Y-94530000D03*
X204230000Y-99570000D03*
X203650000Y-110410000D03*
X169020000Y-79510000D03*
X171760000Y-76350000D03*
X182480000Y-106070000D03*
X149480000Y-114180000D03*
X178180000Y-108060000D03*
X197910000Y-121850000D03*
X182350000Y-110340000D03*
X177250000Y-106800000D03*
X166920000Y-124320000D03*
X176180000Y-114580000D03*
X171670000Y-119570000D03*
X181980679Y-104579321D03*
X168070000Y-91410000D03*
X163480000Y-89690000D03*
X164360000Y-83740000D03*
X167550000Y-136800000D03*
X180530000Y-124310000D03*
X166550000Y-136800000D03*
X166550000Y-135800000D03*
X167550000Y-135800000D03*
X180530000Y-126910000D03*
X177480000Y-82750000D03*
X172920000Y-80500000D03*
X172770000Y-123160000D03*
X172900000Y-95510000D03*
X175680000Y-105610000D03*
X172900000Y-105600000D03*
X176010000Y-94910000D03*
X172300000Y-125690000D03*
X167820000Y-93470000D03*
X173900000Y-95510000D03*
X187990000Y-87750000D03*
X171100000Y-125680000D03*
X182000000Y-91830000D03*
X178290000Y-93350000D03*
X178780000Y-79590000D03*
X187300000Y-111610000D03*
X198920000Y-96820000D03*
X194870000Y-94050000D03*
X194870000Y-95050000D03*
X193870000Y-94090610D03*
X193870000Y-95050000D03*
X187010000Y-109250000D03*
X148045743Y-82324257D03*
X185990000Y-109260000D03*
X141750000Y-93170000D03*
X169180000Y-91090000D03*
X169180000Y-96350000D03*
X169180000Y-112100000D03*
X169100000Y-98620000D03*
X201120000Y-90940000D03*
X193180000Y-108320000D03*
X194610000Y-106880000D03*
M02*
