  0
SECTION
  2
HEADER
  9
$ACADVER
  1
AC1014
  9
$HANDSEED
  5
FFFF
  9
$MEASUREMENT
 70
     1
  0
ENDSEC
  0
SECTION
  2
TABLES
  0
TABLE
  2
VPORT
  5
8
330
0
100
AcDbSymbolTable
 70
     4
  0
VPORT
  5
2E
330
8
100
AcDbSymbolTableRecord
100
AcDbViewportTableRecord
  2
*ACTIVE
 70
     0
 10
0.0
 20
0.0
 11
1.0
 21
1.0
 12
210.0
 22
148.5
 13
0.0
 23
0.0
 14
10.0
 24
10.0
 15
10.0
 25
10.0
 16
0.0
 26
0.0
 36
1.0
 17
0.0
 27
0.0
 37
0.0
 40
341.0
 41
1.24
 42
50.0
 43
0.0
 44
0.0
 50
0.0
 51
0.0
 71
     0
 72
   100
 73
     1
 74
     3
 75
     0
 76
     0
 77
     0
 78
     0
  0
ENDTAB
  0
TABLE
  2
LTYPE
  5
5
330
0
100
AcDbSymbolTable
 70
     1
  0
LTYPE
  5
14
330
5
100
AcDbSymbolTableRecord
100
AcDbLinetypeTableRecord
  2
BYBLOCK
 70
     0
  3

 72
    65
 73
     0
 40
0.0
  0
LTYPE
  5
15
330
5
100
AcDbSymbolTableRecord
100
AcDbLinetypeTableRecord
  2
BYLAYER
 70
     0
  3

 72
    65
 73
     0
 40
0.0
  0
LTYPE
  5
16
330
5
100
AcDbSymbolTableRecord
100
AcDbLinetypeTableRecord
  2
CONTINUOUS
 70
     0
  3
Solid line
 72
    65
 73
     0
 40
0.0
  0
ENDTAB
  0
TABLE
  2
LAYER
  5
2
100
AcDbSymbolTable
 70
5
  0
LAYER
  5
50
100
AcDbSymbolTableRecord
100
AcDbLayerTableRecord
  2
0
 70
0
  6
CONTINUOUS
  0
LAYER
  5
51
100
AcDbSymbolTableRecord
100
AcDbLayerTableRecord
  2
Layer_4
 70
0
  6
CONTINUOUS
  0
LAYER
  5
52
100
AcDbSymbolTableRecord
100
AcDbLayerTableRecord
  2
Layer_2
 70
0
  6
CONTINUOUS
  0
LAYER
  5
53
100
AcDbSymbolTableRecord
100
AcDbLayerTableRecord
  2
Layer_3
 70
0
  6
CONTINUOUS
  0
LAYER
  5
54
100
AcDbSymbolTableRecord
100
AcDbLayerTableRecord
  2
Layer_1
 70
0
  6
CONTINUOUS
  0
ENDTAB
  0
TABLE
  2
STYLE
  5
3
330
0
100
AcDbSymbolTable
 70
     1
  0
STYLE
  5
11
330
3
100
AcDbSymbolTableRecord
100
AcDbTextStyleTableRecord
  2
STANDARD
 70
     0
 40
0.0
 41
1.0
 50
0.0
 71
     0
 42
2.5
  3
txt
  4

  0
ENDTAB
  0
TABLE
  2
VIEW
  5
6
330
0
100
AcDbSymbolTable
 70
     0
  0
ENDTAB
  0
TABLE
  2
UCS
  5
7
330
0
100
AcDbSymbolTable
 70
     0
  0
ENDTAB
  0
TABLE
  2
APPID
  5
9
330
0
100
AcDbSymbolTable
 70
     2
  0
APPID
  5
12
330
9
100
AcDbSymbolTableRecord
100
AcDbRegAppTableRecord
  2
ACAD
 70
     0
  0
ENDTAB
  0
TABLE
  2
DIMSTYLE
  5
A
330
0
100
AcDbSymbolTable
 70
     1
  0
DIMSTYLE
105
27
330
A
100
AcDbSymbolTableRecord
100
AcDbDimStyleTableRecord
  2
ISO-25
 70
     0
  3

  4

  5

  6

  7

 40
1.0
 41
2.5
 42
0.625
 43
3.75
 44
1.25
 45
0.0
 46
0.0
 47
0.0
 48
0.0
140
2.5
141
2.5
142
0.0
143
0.03937007874016
144
1.0
145
0.0
146
1.0
147
0.625
 71
     0
 72
     0
 73
     0
 74
     0
 75
     0
 76
     0
 77
     1
 78
     8
170
     0
171
     3
172
     1
173
     0
174
     0
175
     0
176
     0
177
     0
178
     0
270
     2
271
     2
272
     2
273
     2
274
     3
340
11
275
     0
280
     0
281
     0
282
     0
283
     0
284
     8
285
     0
286
     0
287
     3
288
     0
  0
ENDTAB
  0
TABLE
  2
BLOCK_RECORD
  5
1
330
0
100
AcDbSymbolTable
 70
     1
  0
BLOCK_RECORD
  5
1F
330
1
100
AcDbSymbolTableRecord
100
AcDbBlockTableRecord
  2
*MODEL_SPACE
  0
BLOCK_RECORD
  5
1B
330
1
100
AcDbSymbolTableRecord
100
AcDbBlockTableRecord
  2
*PAPER_SPACE
  0
ENDTAB
  0
ENDSEC
  0
SECTION
  2
BLOCKS
  0
BLOCK
  5
20
330
1F
100
AcDbEntity
  8
0
100
AcDbBlockBegin
  2
*MODEL_SPACE
 70
     0
 10
0.0
 20
0.0
 30
0.0
  3
*MODEL_SPACE
  1

  0
ENDBLK
  5
21
330
1F
100
AcDbEntity
  8
0
100
AcDbBlockEnd
  0
BLOCK
  5
1C
330
1B
100
AcDbEntity
 67
     1
  8
0
100
AcDbBlockBegin
  2
*PAPER_SPACE
  1

  0
ENDBLK
  5
1D
330
1B
100
AcDbEntity
 67
     1
  8
0
100
AcDbBlockEnd
  0
ENDSEC
  0
SECTION
  2
ENTITIES
  0
SPLINE
  5
100
100
AcDbEntity
  8
Layer_4
 62
7
100
AcDbSpline
 70
8
 71
3
 72
8
 73
4
 74
0
 40
0
 40
0
 40
0
 40
0
 40
1
 40
1
 40
1
 40
1
 10
70.272949
 20
122.840194
 30
0.0
 10
69.698010
 20
122.826434
 30
0.0
 10
69.122278
 20
122.797508
 30
0.0
 10
68.547362
 20
122.747909
 30
0.0
  0
SPLINE
  5
101
100
AcDbEntity
  8
Layer_4
 62
7
100
AcDbSpline
 70
8
 71
3
 72
8
 73
4
 74
0
 40
0
 40
0
 40
0
 40
0
 40
1
 40
1
 40
1
 40
1
 10
68.547362
 20
122.746444
 30
0.0
 10
67.436947
 20
122.650349
 30
0.0
 10
65.662460
 20
122.822162
 30
0.0
 10
64.807616
 20
121.971542
 30
0.0
  0
SPLINE
  5
102
100
AcDbEntity
  8
Layer_4
 62
7
100
AcDbSpline
 70
8
 71
3
 72
8
 73
4
 74
0
 40
0
 40
0
 40
0
 40
0
 40
1
 40
1
 40
1
 40
1
 10
64.807616
 20
121.971542
 30
0.0
 10
62.676274
 20
119.851028
 30
0.0
 10
63.794828
 20
114.982113
 30
0.0
 10
60.619628
 20
113.743515
 30
0.0
  0
SPLINE
  5
103
100
AcDbEntity
  8
Layer_4
 62
7
100
AcDbSpline
 70
8
 71
3
 72
8
 73
4
 74
0
 40
0
 40
0
 40
0
 40
0
 40
1
 40
1
 40
1
 40
1
 10
60.619628
 20
113.743515
 30
0.0
 10
58.259729
 20
112.822963
 30
0.0
 10
55.851267
 20
112.162726
 30
0.0
 10
53.540039
 20
111.089217
 30
0.0
  0
SPLINE
  5
104
100
AcDbEntity
  8
Layer_4
 62
7
100
AcDbSpline
 70
8
 71
3
 72
8
 73
4
 74
0
 40
0
 40
0
 40
0
 40
0
 40
1
 40
1
 40
1
 40
1
 10
53.540039
 20
111.089217
 30
0.0
 10
52.375311
 20
110.548225
 30
0.0
 10
51.023761
 20
109.420500
 30
0.0
 10
49.686035
 20
109.489608
 30
0.0
  0
SPLINE
  5
105
100
AcDbEntity
  8
Layer_4
 62
7
100
AcDbSpline
 70
8
 71
3
 72
8
 73
4
 74
0
 40
0
 40
0
 40
0
 40
0
 40
1
 40
1
 40
1
 40
1
 10
49.686035
 20
109.489608
 30
0.0
 10
47.003439
 20
109.628223
 30
0.0
 10
43.847729
 20
113.724174
 30
0.0
 10
41.167968
 20
112.250838
 30
0.0
  0
SPLINE
  5
106
100
AcDbEntity
  8
Layer_4
 62
7
100
AcDbSpline
 70
8
 71
3
 72
8
 73
4
 74
0
 40
0
 40
0
 40
0
 40
0
 40
1
 40
1
 40
1
 40
1
 10
41.167968
 20
112.250838
 30
0.0
 10
38.829414
 20
110.965044
 30
0.0
 10
36.808349
 20
108.588129
 30
0.0
 10
35.063964
 20
106.615584
 30
0.0
  0
SPLINE
  5
107
100
AcDbEntity
  8
Layer_4
 62
7
100
AcDbSpline
 70
8
 71
3
 72
8
 73
4
 74
0
 40
0
 40
0
 40
0
 40
0
 40
1
 40
1
 40
1
 40
1
 10
35.063964
 20
106.615584
 30
0.0
 10
34.338522
 20
105.795238
 30
0.0
 10
33.337425
 20
104.866024
 30
0.0
 10
33.042480
 20
103.775253
 30
0.0
  0
SPLINE
  5
108
100
AcDbEntity
  8
Layer_4
 62
7
100
AcDbSpline
 70
8
 71
3
 72
8
 73
4
 74
0
 40
0
 40
0
 40
0
 40
0
 40
1
 40
1
 40
1
 40
1
 10
33.042480
 20
103.775253
 30
0.0
 10
32.218675
 20
100.728632
 30
0.0
 10
37.001696
 20
97.988102
 30
0.0
 10
35.893066
 20
94.851425
 30
0.0
  0
SPLINE
  5
109
100
AcDbEntity
  8
Layer_4
 62
7
100
AcDbSpline
 70
8
 71
3
 72
8
 73
4
 74
0
 40
0
 40
0
 40
0
 40
0
 40
1
 40
1
 40
1
 40
1
 10
35.893066
 20
94.851425
 30
0.0
 10
35.060814
 20
92.496798
 30
0.0
 10
33.655616
 20
90.330506
 30
0.0
 10
32.802246
 20
87.956405
 30
0.0
  0
SPLINE
  5
10a
100
AcDbEntity
  8
Layer_4
 62
7
100
AcDbSpline
 70
8
 71
3
 72
8
 73
4
 74
0
 40
0
 40
0
 40
0
 40
0
 40
1
 40
1
 40
1
 40
1
 10
32.802246
 20
87.956405
 30
0.0
 10
32.354060
 20
86.709529
 30
0.0
 10
32.168583
 20
84.877904
 30
0.0
 10
31.218750
 20
83.903182
 30
0.0
  0
SPLINE
  5
10b
100
AcDbEntity
  8
Layer_4
 62
7
100
AcDbSpline
 70
8
 71
3
 72
8
 73
4
 74
0
 40
0
 40
0
 40
0
 40
0
 40
1
 40
1
 40
1
 40
1
 10
31.218750
 20
83.903182
 30
0.0
 10
29.345474
 20
81.980527
 30
0.0
 10
25.754071
 20
82.535572
 30
0.0
 10
23.711425
 20
80.862167
 30
0.0
  0
SPLINE
  5
10c
100
AcDbEntity
  8
Layer_4
 62
7
100
AcDbSpline
 70
8
 71
3
 72
8
 73
4
 74
0
 40
0
 40
0
 40
0
 40
0
 40
1
 40
1
 40
1
 40
1
 10
23.711425
 20
80.862167
 30
0.0
 10
22.825372
 20
80.136526
 30
0.0
 10
22.946193
 20
78.642205
 30
0.0
 10
22.858887
 20
77.613143
 30
0.0
  0
SPLINE
  5
10d
100
AcDbEntity
  8
Layer_4
 62
7
100
AcDbSpline
 70
8
 71
3
 72
8
 73
4
 74
0
 40
0
 40
0
 40
0
 40
0
 40
1
 40
1
 40
1
 40
1
 10
22.858887
 20
77.613143
 30
0.0
 10
22.616524
 20
74.757578
 30
0.0
 10
22.564494
 20
71.746730
 30
0.0
 10
23.028808
 20
68.907578
 30
0.0
  0
SPLINE
  5
10e
100
AcDbEntity
  8
Layer_4
 62
7
100
AcDbSpline
 70
8
 71
3
 72
8
 73
4
 74
0
 40
0
 40
0
 40
0
 40
0
 40
1
 40
1
 40
1
 40
1
 10
23.028808
 20
68.907578
 30
0.0
 10
23.541936
 20
65.769479
 30
0.0
 10
29.066092
 20
66.407954
 30
0.0
 10
31.073730
 20
64.593614
 30
0.0
  0
SPLINE
  5
10f
100
AcDbEntity
  8
Layer_4
 62
7
100
AcDbSpline
 70
8
 71
3
 72
8
 73
4
 74
0
 40
0
 40
0
 40
0
 40
0
 40
1
 40
1
 40
1
 40
1
 10
31.073730
 20
64.593614
 30
0.0
 10
32.103472
 20
63.663112
 30
0.0
 10
32.285721
 20
61.833839
 30
0.0
 10
32.729004
 20
60.577012
 30
0.0
  0
SPLINE
  5
110
100
AcDbEntity
  8
Layer_4
 62
7
100
AcDbSpline
 70
8
 71
3
 72
8
 73
4
 74
0
 40
0
 40
0
 40
0
 40
0
 40
1
 40
1
 40
1
 40
1
 10
32.729004
 20
60.577012
 30
0.0
 10
33.574238
 20
58.180770
 30
0.0
 10
34.862043
 20
56.019585
 30
0.0
 10
35.812500
 20
53.681992
 30
0.0
  0
SPLINE
  5
111
100
AcDbEntity
  8
Layer_4
 62
7
100
AcDbSpline
 70
8
 71
3
 72
8
 73
4
 74
0
 40
0
 40
0
 40
0
 40
0
 40
1
 40
1
 40
1
 40
1
 10
35.812500
 20
53.681992
 30
0.0
 10
37.018840
 20
50.715255
 30
0.0
 10
33.107901
 20
48.034087
 30
0.0
 10
32.975097
 20
45.163927
 30
0.0
  0
SPLINE
  5
112
100
AcDbEntity
  8
Layer_4
 62
7
100
AcDbSpline
 70
8
 71
3
 72
8
 73
4
 74
0
 40
0
 40
0
 40
0
 40
0
 40
1
 40
1
 40
1
 40
1
 10
32.975097
 20
45.163927
 30
0.0
 10
32.885806
 20
43.232340
 30
0.0
 10
35.681636
 20
40.945785
 30
0.0
 10
36.924316
 20
39.702990
 30
0.0
  0
SPLINE
  5
113
100
AcDbEntity
  8
Layer_4
 62
7
100
AcDbSpline
 70
8
 71
3
 72
8
 73
4
 74
0
 40
0
 40
0
 40
0
 40
0
 40
1
 40
1
 40
1
 40
1
 10
36.924316
 20
39.702990
 30
0.0
 10
38.167025
 20
38.460367
 30
0.0
 10
40.453640
 20
35.664337
 30
0.0
 10
42.385253
 20
35.753767
 30
0.0
  0
SPLINE
  5
114
100
AcDbEntity
  8
Layer_4
 62
7
100
AcDbSpline
 70
8
 71
3
 72
8
 73
4
 74
0
 40
0
 40
0
 40
0
 40
0
 40
1
 40
1
 40
1
 40
1
 10
42.385253
 20
35.753767
 30
0.0
 10
45.049991
 20
35.877075
 30
0.0
 10
47.193030
 20
38.925472
 30
0.0
 10
49.888183
 20
38.856307
 30
0.0
  0
SPLINE
  5
115
100
AcDbEntity
  8
Layer_4
 62
7
100
AcDbSpline
 70
8
 71
3
 72
8
 73
4
 74
0
 40
0
 40
0
 40
0
 40
0
 40
1
 40
1
 40
1
 40
1
 10
49.888183
 20
38.856307
 30
0.0
 10
51.207484
 20
38.822295
 30
0.0
 10
52.576637
 20
37.734427
 30
0.0
 10
53.742187
 20
37.187850
 30
0.0
  0
SPLINE
  5
116
100
AcDbEntity
  8
Layer_4
 62
7
100
AcDbSpline
 70
8
 71
3
 72
8
 73
4
 74
0
 40
0
 40
0
 40
0
 40
0
 40
1
 40
1
 40
1
 40
1
 10
53.742187
 20
37.187850
 30
0.0
 10
55.987311
 20
36.135090
 30
0.0
 10
58.329291
 20
35.515777
 30
0.0
 10
60.619628
 20
34.612657
 30
0.0
  0
SPLINE
  5
117
100
AcDbEntity
  8
Layer_4
 62
7
100
AcDbSpline
 70
8
 71
3
 72
8
 73
4
 74
0
 40
0
 40
0
 40
0
 40
0
 40
1
 40
1
 40
1
 40
1
 10
60.619628
 20
34.612657
 30
0.0
 10
63.643345
 20
33.420345
 30
0.0
 10
62.871436
 20
28.710450
 30
0.0
 10
64.690429
 20
26.490097
 30
0.0
  0
SPLINE
  5
118
100
AcDbEntity
  8
Layer_4
 62
7
100
AcDbSpline
 70
8
 71
3
 72
8
 73
4
 74
0
 40
0
 40
0
 40
0
 40
0
 40
1
 40
1
 40
1
 40
1
 10
64.690429
 20
26.490097
 30
0.0
 10
65.381402
 20
25.646595
 30
0.0
 10
66.753010
 20
25.735470
 30
0.0
 10
67.735839
 20
25.655137
 30
0.0
  0
SPLINE
  5
119
100
AcDbEntity
  8
Layer_4
 62
7
100
AcDbSpline
 70
8
 71
3
 72
8
 73
4
 74
0
 40
0
 40
0
 40
0
 40
0
 40
1
 40
1
 40
1
 40
1
 10
67.735839
 20
25.655137
 30
0.0
 10
70.455937
 20
25.433182
 30
0.0
 10
73.130682
 20
25.480867
 30
0.0
 10
75.848144
 20
25.718122
 30
0.0
  0
SPLINE
  5
11a
100
AcDbEntity
  8
Layer_4
 62
7
100
AcDbSpline
 70
8
 71
3
 72
8
 73
4
 74
0
 40
0
 40
0
 40
0
 40
0
 40
1
 40
1
 40
1
 40
1
 10
75.848144
 20
25.718122
 30
0.0
 10
80.673006
 20
26.139555
 30
0.0
 10
78.245332
 20
33.071287
 30
0.0
 10
82.154294
 20
34.612657
 30
0.0
  0
SPLINE
  5
11b
100
AcDbEntity
  8
Layer_4
 62
7
100
AcDbSpline
 70
8
 71
3
 72
8
 73
4
 74
0
 40
0
 40
0
 40
0
 40
0
 40
1
 40
1
 40
1
 40
1
 10
82.154294
 20
34.612657
 30
0.0
 10
84.515616
 20
35.543752
 30
0.0
 10
86.922854
 20
36.188295
 30
0.0
 10
89.233889
 20
37.283070
 30
0.0
  0
LWPOLYLINE
  5
11c
100
AcDbEntity
  8
Layer_4
 62
7
100
AcDbPolyline
 90
2
 70
0
 10
68.547362
 20
122.747909
 30
0.0
 10
68.547362
 20
122.746444
 30
0.0
  0
SPLINE
  5
11d
100
AcDbEntity
  8
Layer_4
 62
7
100
AcDbSpline
 70
8
 71
3
 72
8
 73
4
 74
0
 40
0
 40
0
 40
0
 40
0
 40
1
 40
1
 40
1
 40
1
 10
85.902831
 20
44.198595
 30
0.0
 10
82.193069
 20
42.403147
 30
0.0
 10
78.116962
 20
41.339685
 30
0.0
 10
74.022949
 20
40.981800
 30
0.0
  0
SPLINE
  5
11e
100
AcDbEntity
  8
Layer_4
 62
7
100
AcDbSpline
 70
8
 71
3
 72
8
 73
4
 74
0
 40
0
 40
0
 40
0
 40
0
 40
1
 40
1
 40
1
 40
1
 10
74.022949
 20
40.981800
 30
0.0
 10
70.217578
 20
40.649152
 30
0.0
 10
66.347454
 20
41.071005
 30
0.0
 10
62.666015
 20
42.054060
 30
0.0
  0
SPLINE
  5
11f
100
AcDbEntity
  8
Layer_4
 62
7
100
AcDbSpline
 70
8
 71
3
 72
8
 73
4
 74
0
 40
0
 40
0
 40
0
 40
0
 40
1
 40
1
 40
1
 40
1
 10
62.666015
 20
42.054060
 30
0.0
 10
39.965407
 20
48.115470
 30
0.0
 10
30.852909
 20
76.235843
 30
0.0
 10
45.108398
 20
94.649276
 30
0.0
  0
SPLINE
  5
120
100
AcDbEntity
  8
Layer_4
 62
7
100
AcDbSpline
 70
8
 71
3
 72
8
 73
4
 74
0
 40
0
 40
0
 40
0
 40
0
 40
1
 40
1
 40
1
 40
1
 10
45.108398
 20
94.649276
 30
0.0
 10
47.781837
 20
98.102725
 30
0.0
 10
51.152288
 20
101.020257
 30
0.0
 10
54.959472
 20
103.160018
 30
0.0
  0
SPLINE
  5
121
100
AcDbEntity
  8
Layer_4
 62
7
100
AcDbSpline
 70
8
 71
3
 72
8
 73
4
 74
0
 40
0
 40
0
 40
0
 40
0
 40
1
 40
1
 40
1
 40
1
 10
54.959472
 20
103.160018
 30
0.0
 10
59.211412
 20
105.549681
 30
0.0
 10
63.900132
 20
106.925748
 30
0.0
 10
68.750976
 20
107.349471
 30
0.0
  0
SPLINE
  5
122
100
AcDbEntity
  8
Layer_4
 62
7
100
AcDbSpline
 70
8
 71
3
 72
8
 73
4
 74
0
 40
0
 40
0
 40
0
 40
0
 40
1
 40
1
 40
1
 40
1
 10
68.750976
 20
107.349471
 30
0.0
 10
72.956456
 20
107.716785
 30
0.0
 10
77.303467
 20
107.207956
 30
0.0
 10
81.325191
 20
105.947616
 30
0.0
  0
SPLINE
  5
123
100
AcDbEntity
  8
Layer_4
 62
7
100
AcDbSpline
 70
8
 71
3
 72
8
 73
4
 74
0
 40
0
 40
0
 40
0
 40
0
 40
1
 40
1
 40
1
 40
1
 10
81.325191
 20
105.947616
 30
0.0
 10
82.840484
 20
105.472728
 30
0.0
 10
84.309479
 20
104.898592
 30
0.0
 10
85.728516
 20
104.224959
 30
0.0
  0
LWPOLYLINE
  5
124
100
AcDbEntity
  8
Layer_4
 62
7
100
AcDbPolyline
 90
2
 70
0
 10
89.233889
 20
37.283070
 30
0.0
 10
85.902831
 20
44.198595
 30
0.0
  0
SPLINE
  5
125
100
AcDbEntity
  8
Layer_4
 62
7
100
AcDbSpline
 70
8
 71
3
 72
8
 73
4
 74
0
 40
0
 40
0
 40
0
 40
0
 40
1
 40
1
 40
1
 40
1
 10
89.031734
 20
111.181503
 30
0.0
 10
86.782559
 20
112.205121
 30
0.0
 10
84.443624
 20
112.850487
 30
0.0
 10
82.154294
 20
113.743515
 30
0.0
  0
SPLINE
  5
126
100
AcDbEntity
  8
Layer_4
 62
7
100
AcDbSpline
 70
8
 71
3
 72
8
 73
4
 74
0
 40
0
 40
0
 40
0
 40
0
 40
1
 40
1
 40
1
 40
1
 10
82.154294
 20
113.743515
 30
0.0
 10
79.125314
 20
114.925080
 30
0.0
 10
79.901481
 20
119.620433
 30
0.0
 10
78.083497
 20
121.839705
 30
0.0
  0
SPLINE
  5
127
100
AcDbEntity
  8
Layer_4
 62
7
100
AcDbSpline
 70
8
 71
3
 72
8
 73
4
 74
0
 40
0
 40
0
 40
0
 40
0
 40
1
 40
1
 40
1
 40
1
 10
78.083497
 20
121.839705
 30
0.0
 10
77.467754
 20
122.591453
 30
0.0
 10
76.327244
 20
122.574314
 30
0.0
 10
75.442379
 20
122.643905
 30
0.0
  0
SPLINE
  5
128
100
AcDbEntity
  8
Layer_4
 62
7
100
AcDbSpline
 70
8
 71
3
 72
8
 73
4
 74
0
 40
0
 40
0
 40
0
 40
0
 40
1
 40
1
 40
1
 40
1
 10
75.442379
 20
122.643905
 30
0.0
 10
73.721122
 20
122.779330
 30
0.0
 10
71.997765
 20
122.881474
 30
0.0
 10
70.272949
 20
122.840194
 30
0.0
  0
LWPOLYLINE
  5
129
100
AcDbEntity
  8
Layer_4
 62
7
100
AcDbPolyline
 90
2
 70
0
 10
85.728516
 20
104.224959
 30
0.0
 10
89.031734
 20
111.181503
 30
0.0
  0
SPLINE
  5
12a
100
AcDbEntity
  8
Layer_4
 62
7
100
AcDbSpline
 70
8
 71
3
 72
8
 73
4
 74
0
 40
0
 40
0
 40
0
 40
0
 40
1
 40
1
 40
1
 40
1
 10
58.352050
 20
71.979355
 30
0.0
 10
57.521682
 20
71.998205
 30
0.0
 10
56.746195
 20
71.565989
 30
0.0
 10
56.325474
 20
70.849847
 30
0.0
  0
SPLINE
  5
12b
100
AcDbEntity
  8
Layer_4
 62
7
100
AcDbSpline
 70
8
 71
3
 72
8
 73
4
 74
0
 40
0
 40
0
 40
0
 40
0
 40
1
 40
1
 40
1
 40
1
 10
56.325474
 20
70.849847
 30
0.0
 10
55.904753
 20
70.133705
 30
0.0
 10
55.904753
 20
69.245903
 30
0.0
 10
56.325474
 20
68.529761
 30
0.0
  0
SPLINE
  5
12c
100
AcDbEntity
  8
Layer_4
 62
7
100
AcDbSpline
 70
8
 71
3
 72
8
 73
4
 74
0
 40
0
 40
0
 40
0
 40
0
 40
1
 40
1
 40
1
 40
1
 10
56.325474
 20
68.529761
 30
0.0
 10
56.746195
 20
67.813619
 30
0.0
 10
57.521682
 20
67.381403
 30
0.0
 10
58.352050
 20
67.400253
 30
0.0
  0
LWPOLYLINE
  5
12d
100
AcDbEntity
  8
Layer_4
 62
7
100
AcDbPolyline
 90
1
 70
1
 10
70.272949
 20
122.840194
 30
0.0
  0
SPLINE
  5
12e
100
AcDbEntity
  8
Layer_4
 62
7
100
AcDbSpline
 70
8
 71
3
 72
8
 73
4
 74
0
 40
0
 40
0
 40
0
 40
0
 40
1
 40
1
 40
1
 40
1
 10
383.128413
 20
55.010602
 30
0.0
 10
384.074763
 20
52.590375
 30
0.0
 10
386.431818
 20
50.851912
 30
0.0
 10
389.169430
 20
50.851912
 30
0.0
  0
SPLINE
  5
12f
100
AcDbEntity
  8
Layer_4
 62
7
100
AcDbSpline
 70
8
 71
3
 72
8
 73
4
 74
0
 40
0
 40
0
 40
0
 40
0
 40
1
 40
1
 40
1
 40
1
 10
389.169430
 20
50.851912
 30
0.0
 10
392.729830
 20
50.851912
 30
0.0
 10
395.664543
 20
53.786632
 30
0.0
 10
395.664543
 20
57.347032
 30
0.0
  0
SPLINE
  5
130
100
AcDbEntity
  8
Layer_4
 62
7
100
AcDbSpline
 70
8
 71
3
 72
8
 73
4
 74
0
 40
0
 40
0
 40
0
 40
0
 40
1
 40
1
 40
1
 40
1
 10
395.664543
 20
57.347032
 30
0.0
 10
395.664543
 20
60.907432
 30
0.0
 10
392.729830
 20
63.840682
 30
0.0
 10
389.169430
 20
63.840682
 30
0.0
  0
SPLINE
  5
131
100
AcDbEntity
  8
Layer_4
 62
7
100
AcDbSpline
 70
8
 71
3
 72
8
 73
4
 74
0
 40
0
 40
0
 40
0
 40
0
 40
1
 40
1
 40
1
 40
1
 10
389.169430
 20
63.840682
 30
0.0
 10
386.398518
 20
63.840682
 30
0.0
 10
384.017523
 20
62.060497
 30
0.0
 10
383.094723
 20
59.594100
 30
0.0
  0
LWPOLYLINE
  5
132
100
AcDbEntity
  8
Layer_4
 62
7
100
AcDbPolyline
 90
4
 70
0
 10
58.352050
 20
67.400253
 30
0.0
 10
102.416016
 20
67.400253
 30
0.0
 10
108.114254
 20
55.010602
 30
0.0
 10
383.128413
 20
55.010602
 30
0.0
  0
SPLINE
  5
133
100
AcDbEntity
  8
Layer_4
 62
7
100
AcDbSpline
 70
8
 71
3
 72
8
 73
4
 74
0
 40
0
 40
0
 40
0
 40
0
 40
1
 40
1
 40
1
 40
1
 10
389.169430
 20
59.588242
 30
0.0
 10
390.431898
 20
59.588242
 30
0.0
 10
391.412103
 20
58.609500
 30
0.0
 10
391.412103
 20
57.347032
 30
0.0
  0
SPLINE
  5
134
100
AcDbEntity
  8
Layer_4
 62
7
100
AcDbSpline
 70
8
 71
3
 72
8
 73
4
 74
0
 40
0
 40
0
 40
0
 40
0
 40
1
 40
1
 40
1
 40
1
 10
391.412103
 20
57.347032
 30
0.0
 10
391.412103
 20
56.084565
 30
0.0
 10
390.431898
 20
55.104352
 30
0.0
 10
389.169430
 20
55.104352
 30
0.0
  0
SPLINE
  5
135
100
AcDbEntity
  8
Layer_4
 62
7
100
AcDbSpline
 70
8
 71
3
 72
8
 73
4
 74
0
 40
0
 40
0
 40
0
 40
0
 40
1
 40
1
 40
1
 40
1
 10
389.169430
 20
55.104352
 30
0.0
 10
387.906993
 20
55.104352
 30
0.0
 10
386.932615
 20
56.084565
 30
0.0
 10
386.932615
 20
57.347032
 30
0.0
  0
SPLINE
  5
136
100
AcDbEntity
  8
Layer_4
 62
7
100
AcDbSpline
 70
8
 71
3
 72
8
 73
4
 74
0
 40
0
 40
0
 40
0
 40
0
 40
1
 40
1
 40
1
 40
1
 10
386.932615
 20
57.347032
 30
0.0
 10
386.932615
 20
58.609500
 30
0.0
 10
387.906993
 20
59.588242
 30
0.0
 10
389.169430
 20
59.588242
 30
0.0
  0
LWPOLYLINE
  5
137
100
AcDbEntity
  8
Layer_4
 62
7
100
AcDbPolyline
 90
5
 70
0
 10
383.094723
 20
59.594100
 30
0.0
 10
111.048336
 20
59.594100
 30
0.0
 10
105.351561
 20
71.979355
 30
0.0
 10
58.352050
 20
71.979355
 30
0.0
 10
58.352050
 20
71.979355
 30
0.0
  0
SPLINE
  5
138
100
AcDbEntity
  8
Layer_4
 62
7
100
AcDbSpline
 70
8
 71
3
 72
8
 73
4
 74
0
 40
0
 40
0
 40
0
 40
0
 40
1
 40
1
 40
1
 40
1
 10
107.411129
 20
114.499374
 30
0.0
 10
103.850744
 20
114.499374
 30
0.0
 10
100.916031
 20
111.570488
 30
0.0
 10
100.916016
 20
108.010116
 30
0.0
  0
SPLINE
  5
139
100
AcDbEntity
  8
Layer_4
 62
7
100
AcDbSpline
 70
8
 71
3
 72
8
 73
4
 74
0
 40
0
 40
0
 40
0
 40
0
 40
1
 40
1
 40
1
 40
1
 10
100.916016
 20
108.010116
 30
0.0
 10
100.916009
 20
106.360920
 30
0.0
 10
101.550426
 20
104.851562
 30
0.0
 10
102.580079
 20
103.700546
 30
0.0
  0
SPLINE
  5
13a
100
AcDbEntity
  8
Layer_4
 62
7
100
AcDbSpline
 70
8
 71
3
 72
8
 73
4
 74
0
 40
0
 40
0
 40
0
 40
0
 40
1
 40
1
 40
1
 40
1
 10
102.580079
 20
103.700546
 30
0.0
 10
102.563790
 20
103.672102
 30
0.0
 10
102.548160
 20
103.643286
 30
0.0
 10
102.533204
 20
103.614120
 30
0.0
  0
LWPOLYLINE
  5
13b
100
AcDbEntity
  8
Layer_4
 62
7
100
AcDbPolyline
 90
1
 70
1
 10
389.169430
 20
59.588242
 30
0.0
  0
SPLINE
  5
13c
100
AcDbEntity
  8
Layer_4
 62
7
100
AcDbSpline
 70
8
 71
3
 72
8
 73
4
 74
0
 40
0
 40
0
 40
0
 40
0
 40
1
 40
1
 40
1
 40
1
 10
97.390139
 20
93.560897
 30
0.0
 10
97.390139
 20
93.560897
 30
0.0
 10
58.124999
 20
93.560897
 30
0.0
 10
58.124999
 20
93.560873
 30
0.0
  0
SPLINE
  5
13d
100
AcDbEntity
  8
Layer_4
 62
7
100
AcDbSpline
 70
8
 71
3
 72
8
 73
4
 74
0
 40
0
 40
0
 40
0
 40
0
 40
1
 40
1
 40
1
 40
1
 10
58.124999
 20
93.560873
 30
0.0
 10
57.365382
 20
93.560873
 30
0.0
 10
56.663467
 20
93.155622
 30
0.0
 10
56.283659
 20
92.497775
 30
0.0
  0
SPLINE
  5
13e
100
AcDbEntity
  8
Layer_4
 62
7
100
AcDbSpline
 70
8
 71
3
 72
8
 73
4
 74
0
 40
0
 40
0
 40
0
 40
0
 40
1
 40
1
 40
1
 40
1
 10
56.283659
 20
92.497775
 30
0.0
 10
55.903850
 20
91.839927
 30
0.0
 10
55.903850
 20
91.029426
 30
0.0
 10
56.283659
 20
90.371578
 30
0.0
  0
SPLINE
  5
13f
100
AcDbEntity
  8
Layer_4
 62
7
100
AcDbSpline
 70
8
 71
3
 72
8
 73
4
 74
0
 40
0
 40
0
 40
0
 40
0
 40
1
 40
1
 40
1
 40
1
 10
56.283659
 20
90.371578
 30
0.0
 10
56.663467
 20
89.713730
 30
0.0
 10
57.365382
 20
89.308480
 30
0.0
 10
58.124999
 20
89.308480
 30
0.0
  0
LWPOLYLINE
  5
140
100
AcDbEntity
  8
Layer_4
 62
7
100
AcDbPolyline
 90
2
 70
0
 10
102.533204
 20
103.614120
 30
0.0
 10
97.390139
 20
93.560897
 30
0.0
  0
SPLINE
  5
141
100
AcDbEntity
  8
Layer_4
 62
7
100
AcDbSpline
 70
8
 71
3
 72
8
 73
4
 74
0
 40
0
 40
0
 40
0
 40
0
 40
1
 40
1
 40
1
 40
1
 10
106.291994
 20
101.621932
 30
0.0
 10
106.656336
 20
101.557377
 30
0.0
 10
107.029559
 20
101.516463
 30
0.0
 10
107.411129
 20
101.516463
 30
0.0
  0
SPLINE
  5
142
100
AcDbEntity
  8
Layer_4
 62
7
100
AcDbSpline
 70
8
 71
3
 72
8
 73
4
 74
0
 40
0
 40
0
 40
0
 40
0
 40
1
 40
1
 40
1
 40
1
 10
107.411129
 20
101.516463
 30
0.0
 10
110.971529
 20
101.516463
 30
0.0
 10
113.898929
 20
104.449716
 30
0.0
 10
113.898921
 20
108.010116
 30
0.0
  0
SPLINE
  5
143
100
AcDbEntity
  8
Layer_4
 62
7
100
AcDbSpline
 70
8
 71
3
 72
8
 73
4
 74
0
 40
0
 40
0
 40
0
 40
0
 40
1
 40
1
 40
1
 40
1
 10
113.898921
 20
108.010116
 30
0.0
 10
113.898906
 20
111.570488
 30
0.0
 10
110.971514
 20
114.499374
 30
0.0
 10
107.411129
 20
114.499374
 30
0.0
  0
LWPOLYLINE
  5
144
100
AcDbEntity
  8
Layer_4
 62
7
100
AcDbPolyline
 90
3
 70
0
 10
58.124999
 20
89.308480
 30
0.0
 10
99.991701
 20
89.308456
 30
0.0
 10
106.291994
 20
101.621932
 30
0.0
  0
SPLINE
  5
145
100
AcDbEntity
  8
Layer_4
 62
7
100
AcDbSpline
 70
8
 71
3
 72
8
 73
4
 74
0
 40
0
 40
0
 40
0
 40
0
 40
1
 40
1
 40
1
 40
1
 10
107.411129
 20
110.246932
 30
0.0
 10
108.673589
 20
110.246932
 30
0.0
 10
109.647944
 20
109.272554
 30
0.0
 10
109.647951
 20
108.010116
 30
0.0
  0
SPLINE
  5
146
100
AcDbEntity
  8
Layer_4
 62
7
100
AcDbSpline
 70
8
 71
3
 72
8
 73
4
 74
0
 40
0
 40
0
 40
0
 40
0
 40
1
 40
1
 40
1
 40
1
 10
109.647951
 20
108.010116
 30
0.0
 10
109.647951
 20
106.747650
 30
0.0
 10
108.673596
 20
105.767440
 30
0.0
 10
107.411129
 20
105.767440
 30
0.0
  0
SPLINE
  5
147
100
AcDbEntity
  8
Layer_4
 62
7
100
AcDbSpline
 70
8
 71
3
 72
8
 73
4
 74
0
 40
0
 40
0
 40
0
 40
0
 40
1
 40
1
 40
1
 40
1
 10
107.411129
 20
105.767440
 30
0.0
 10
106.148669
 20
105.767440
 30
0.0
 10
105.168456
 20
106.747650
 30
0.0
 10
105.168456
 20
108.010116
 30
0.0
  0
SPLINE
  5
148
100
AcDbEntity
  8
Layer_4
 62
7
100
AcDbSpline
 70
8
 71
3
 72
8
 73
4
 74
0
 40
0
 40
0
 40
0
 40
0
 40
1
 40
1
 40
1
 40
1
 10
105.168456
 20
108.010116
 30
0.0
 10
105.168464
 20
109.272554
 30
0.0
 10
106.148669
 20
110.246932
 30
0.0
 10
107.411129
 20
110.246932
 30
0.0
  0
LWPOLYLINE
  5
149
100
AcDbEntity
  8
Layer_4
 62
7
100
AcDbPolyline
 90
1
 70
1
 10
107.411129
 20
114.499374
 30
0.0
  0
SPLINE
  5
14a
100
AcDbEntity
  8
Layer_4
 62
7
100
AcDbSpline
 70
8
 71
3
 72
8
 73
4
 74
0
 40
0
 40
0
 40
0
 40
0
 40
1
 40
1
 40
1
 40
1
 10
58.130858
 20
61.277204
 30
0.0
 10
57.358460
 20
61.298180
 30
0.0
 10
56.635481
 20
60.898471
 30
0.0
 10
56.242488
 20
60.233193
 30
0.0
  0
SPLINE
  5
14b
100
AcDbEntity
  8
Layer_4
 62
7
100
AcDbSpline
 70
8
 71
3
 72
8
 73
4
 74
0
 40
0
 40
0
 40
0
 40
0
 40
1
 40
1
 40
1
 40
1
 10
56.242488
 20
60.233193
 30
0.0
 10
55.849495
 20
59.567914
 30
0.0
 10
55.848356
 20
58.741800
 30
0.0
 10
56.239514
 20
58.075440
 30
0.0
  0
SPLINE
  5
14c
100
AcDbEntity
  8
Layer_4
 62
7
100
AcDbSpline
 70
8
 71
3
 72
8
 73
4
 74
0
 40
0
 40
0
 40
0
 40
0
 40
1
 40
1
 40
1
 40
1
 10
56.239514
 20
58.075440
 30
0.0
 10
56.630671
 20
57.409081
 30
0.0
 10
57.352546
 20
57.007380
 30
0.0
 10
58.124999
 20
57.026227
 30
0.0
  0
LWPOLYLINE
  5
14d
100
AcDbEntity
  8
Layer_4
 62
7
100
AcDbPolyline
 90
1
 70
1
 10
107.411129
 20
110.246932
 30
0.0
  0
SPLINE
  5
14e
100
AcDbEntity
  8
Layer_4
 62
7
100
AcDbSpline
 70
8
 71
3
 72
8
 73
4
 74
0
 40
0
 40
0
 40
0
 40
0
 40
1
 40
1
 40
1
 40
1
 10
103.562984
 20
38.268907
 30
0.0
 10
103.589556
 20
38.208989
 30
0.0
 10
103.618885
 20
38.150331
 30
0.0
 10
103.650876
 20
38.093122
 30
0.0
  0
SPLINE
  5
14f
100
AcDbEntity
  8
Layer_4
 62
7
100
AcDbSpline
 70
8
 71
3
 72
8
 73
4
 74
0
 40
0
 40
0
 40
0
 40
0
 40
1
 40
1
 40
1
 40
1
 10
103.650876
 20
38.093122
 30
0.0
 10
102.540831
 20
36.925567
 30
0.0
 10
101.852046
 20
35.354820
 30
0.0
 10
101.852046
 20
33.634140
 30
0.0
  0
SPLINE
  5
150
100
AcDbEntity
  8
Layer_4
 62
7
100
AcDbSpline
 70
8
 71
3
 72
8
 73
4
 74
0
 40
0
 40
0
 40
0
 40
0
 40
1
 40
1
 40
1
 40
1
 10
101.852046
 20
33.634140
 30
0.0
 10
101.852046
 20
30.073740
 30
0.0
 10
104.785304
 20
27.140490
 30
0.0
 10
108.345704
 20
27.140490
 30
0.0
  0
SPLINE
  5
151
100
AcDbEntity
  8
Layer_4
 62
7
100
AcDbSpline
 70
8
 71
3
 72
8
 73
4
 74
0
 40
0
 40
0
 40
0
 40
0
 40
1
 40
1
 40
1
 40
1
 10
108.345704
 20
27.140490
 30
0.0
 10
111.906096
 20
27.140490
 30
0.0
 10
114.840816
 20
30.073740
 30
0.0
 10
114.840816
 20
33.634140
 30
0.0
  0
SPLINE
  5
152
100
AcDbEntity
  8
Layer_4
 62
7
100
AcDbSpline
 70
8
 71
3
 72
8
 73
4
 74
0
 40
0
 40
0
 40
0
 40
0
 40
1
 40
1
 40
1
 40
1
 10
114.840816
 20
33.634140
 30
0.0
 10
114.840816
 20
37.194510
 30
0.0
 10
111.906096
 20
40.127790
 30
0.0
 10
108.345704
 20
40.127790
 30
0.0
  0
SPLINE
  5
153
100
AcDbEntity
  8
Layer_4
 62
7
100
AcDbSpline
 70
8
 71
3
 72
8
 73
4
 74
0
 40
0
 40
0
 40
0
 40
0
 40
1
 40
1
 40
1
 40
1
 10
108.345704
 20
40.127790
 30
0.0
 10
108.031769
 20
40.127790
 30
0.0
 10
107.725461
 20
40.098585
 30
0.0
 10
107.422851
 20
40.054552
 30
0.0
  0
LWPOLYLINE
  5
154
100
AcDbEntity
  8
Layer_4
 62
7
100
AcDbPolyline
 90
3
 70
0
 10
58.124999
 20
57.026227
 30
0.0
 10
95.235351
 20
56.958847
 30
0.0
 10
103.562984
 20
38.268907
 30
0.0
  0
SPLINE
  5
155
100
AcDbEntity
  8
Layer_4
 62
7
100
AcDbSpline
 70
8
 71
3
 72
8
 73
4
 74
0
 40
0
 40
0
 40
0
 40
0
 40
1
 40
1
 40
1
 40
1
 10
108.345704
 20
35.876820
 30
0.0
 10
109.608164
 20
35.876820
 30
0.0
 10
110.588376
 20
34.896577
 30
0.0
 10
110.588376
 20
33.634140
 30
0.0
  0
SPLINE
  5
156
100
AcDbEntity
  8
Layer_4
 62
7
100
AcDbSpline
 70
8
 71
3
 72
8
 73
4
 74
0
 40
0
 40
0
 40
0
 40
0
 40
1
 40
1
 40
1
 40
1
 10
110.588376
 20
33.634140
 30
0.0
 10
110.588376
 20
32.371672
 30
0.0
 10
109.608164
 20
31.391467
 30
0.0
 10
108.345704
 20
31.391467
 30
0.0
  0
SPLINE
  5
157
100
AcDbEntity
  8
Layer_4
 62
7
100
AcDbSpline
 70
8
 71
3
 72
8
 73
4
 74
0
 40
0
 40
0
 40
0
 40
0
 40
1
 40
1
 40
1
 40
1
 10
108.345704
 20
31.391467
 30
0.0
 10
107.083236
 20
31.391467
 30
0.0
 10
106.104494
 20
32.371672
 30
0.0
 10
106.104494
 20
33.634140
 30
0.0
  0
SPLINE
  5
158
100
AcDbEntity
  8
Layer_4
 62
7
100
AcDbSpline
 70
8
 71
3
 72
8
 73
4
 74
0
 40
0
 40
0
 40
0
 40
0
 40
1
 40
1
 40
1
 40
1
 10
106.104494
 20
33.634140
 30
0.0
 10
106.104494
 20
34.896577
 30
0.0
 10
107.083236
 20
35.876820
 30
0.0
 10
108.345704
 20
35.876820
 30
0.0
  0
LWPOLYLINE
  5
159
100
AcDbEntity
  8
Layer_4
 62
7
100
AcDbPolyline
 90
4
 70
0
 10
107.422851
 20
40.054552
 30
0.0
 10
97.998044
 20
61.205429
 30
0.0
 10
58.130858
 20
61.277204
 30
0.0
 10
58.130858
 20
61.277204
 30
0.0
  0
SPLINE
  5
15a
100
AcDbEntity
  8
Layer_4
 62
7
100
AcDbSpline
 70
8
 71
3
 72
8
 73
4
 74
0
 40
0
 40
0
 40
0
 40
0
 40
1
 40
1
 40
1
 40
1
 10
116.994141
 20
87.037948
 30
0.0
 10
114.187851
 20
87.037948
 30
0.0
 10
111.776399
 20
85.213123
 30
0.0
 10
110.878416
 20
82.697616
 30
0.0
  0
LWPOLYLINE
  5
15b
100
AcDbEntity
  8
Layer_4
 62
7
100
AcDbPolyline
 90
1
 70
1
 10
108.345704
 20
35.876820
 30
0.0
  0
SPLINE
  5
15c
100
AcDbEntity
  8
Layer_4
 62
7
100
AcDbSpline
 70
8
 71
3
 72
8
 73
4
 74
0
 40
0
 40
0
 40
0
 40
0
 40
1
 40
1
 40
1
 40
1
 10
104.266109
 20
82.697616
 30
0.0
 10
104.266109
 20
82.697616
 30
0.0
 10
58.108886
 20
82.697616
 30
0.0
 10
58.108886
 20
82.697592
 30
0.0
  0
SPLINE
  5
15d
100
AcDbEntity
  8
Layer_4
 62
7
100
AcDbSpline
 70
8
 71
3
 72
8
 73
4
 74
0
 40
0
 40
0
 40
0
 40
0
 40
1
 40
1
 40
1
 40
1
 10
58.108886
 20
82.697592
 30
0.0
 10
57.349269
 20
82.697592
 30
0.0
 10
56.647354
 20
82.292342
 30
0.0
 10
56.267546
 20
81.634494
 30
0.0
  0
SPLINE
  5
15e
100
AcDbEntity
  8
Layer_4
 62
7
100
AcDbSpline
 70
8
 71
3
 72
8
 73
4
 74
0
 40
0
 40
0
 40
0
 40
0
 40
1
 40
1
 40
1
 40
1
 10
56.267546
 20
81.634494
 30
0.0
 10
55.887737
 20
80.976646
 30
0.0
 10
55.887737
 20
80.166145
 30
0.0
 10
56.267546
 20
79.508297
 30
0.0
  0
SPLINE
  5
15f
100
AcDbEntity
  8
Layer_4
 62
7
100
AcDbSpline
 70
8
 71
3
 72
8
 73
4
 74
0
 40
0
 40
0
 40
0
 40
0
 40
1
 40
1
 40
1
 40
1
 10
56.267546
 20
79.508297
 30
0.0
 10
56.647354
 20
78.850450
 30
0.0
 10
57.349269
 20
78.445199
 30
0.0
 10
58.108886
 20
78.445199
 30
0.0
  0
LWPOLYLINE
  5
160
100
AcDbEntity
  8
Layer_4
 62
7
100
AcDbPolyline
 90
2
 70
0
 10
110.878416
 20
82.697616
 30
0.0
 10
104.266109
 20
82.697616
 30
0.0
  0
SPLINE
  5
161
100
AcDbEntity
  8
Layer_4
 62
7
100
AcDbSpline
 70
8
 71
3
 72
8
 73
4
 74
0
 40
0
 40
0
 40
0
 40
0
 40
1
 40
1
 40
1
 40
1
 10
110.859374
 20
78.445175
 30
0.0
 10
111.742026
 20
75.903542
 30
0.0
 10
114.168029
 20
74.055038
 30
0.0
 10
116.994141
 20
74.055038
 30
0.0
  0
SPLINE
  5
162
100
AcDbEntity
  8
Layer_4
 62
7
100
AcDbSpline
 70
8
 71
3
 72
8
 73
4
 74
0
 40
0
 40
0
 40
0
 40
0
 40
1
 40
1
 40
1
 40
1
 10
116.994141
 20
74.055038
 30
0.0
 10
120.554533
 20
74.055038
 30
0.0
 10
123.483396
 20
76.983896
 30
0.0
 10
123.483396
 20
80.544296
 30
0.0
  0
SPLINE
  5
163
100
AcDbEntity
  8
Layer_4
 62
7
100
AcDbSpline
 70
8
 71
3
 72
8
 73
4
 74
0
 40
0
 40
0
 40
0
 40
0
 40
1
 40
1
 40
1
 40
1
 10
123.483396
 20
80.544296
 30
0.0
 10
123.483396
 20
84.104696
 30
0.0
 10
120.554533
 20
87.037948
 30
0.0
 10
116.994141
 20
87.037948
 30
0.0
  0
LWPOLYLINE
  5
164
100
AcDbEntity
  8
Layer_4
 62
7
100
AcDbPolyline
 90
3
 70
0
 10
58.108886
 20
78.445199
 30
0.0
 10
104.266109
 20
78.445175
 30
0.0
 10
110.859374
 20
78.445175
 30
0.0
  0
SPLINE
  5
165
100
AcDbEntity
  8
Layer_4
 62
7
100
AcDbSpline
 70
8
 71
3
 72
8
 73
4
 74
0
 40
0
 40
0
 40
0
 40
0
 40
1
 40
1
 40
1
 40
1
 10
116.994141
 20
82.786972
 30
0.0
 10
118.256601
 20
82.786972
 30
0.0
 10
119.230956
 20
81.806762
 30
0.0
 10
119.230956
 20
80.544296
 30
0.0
  0
SPLINE
  5
166
100
AcDbEntity
  8
Layer_4
 62
7
100
AcDbSpline
 70
8
 71
3
 72
8
 73
4
 74
0
 40
0
 40
0
 40
0
 40
0
 40
1
 40
1
 40
1
 40
1
 10
119.230956
 20
80.544296
 30
0.0
 10
119.230956
 20
79.281830
 30
0.0
 10
118.256601
 20
78.307480
 30
0.0
 10
116.994141
 20
78.307480
 30
0.0
  0
SPLINE
  5
167
100
AcDbEntity
  8
Layer_4
 62
7
100
AcDbSpline
 70
8
 71
3
 72
8
 73
4
 74
0
 40
0
 40
0
 40
0
 40
0
 40
1
 40
1
 40
1
 40
1
 10
116.994141
 20
78.307480
 30
0.0
 10
115.731674
 20
78.307480
 30
0.0
 10
114.751461
 20
79.281830
 30
0.0
 10
114.751461
 20
80.544296
 30
0.0
  0
SPLINE
  5
168
100
AcDbEntity
  8
Layer_4
 62
7
100
AcDbSpline
 70
8
 71
3
 72
8
 73
4
 74
0
 40
0
 40
0
 40
0
 40
0
 40
1
 40
1
 40
1
 40
1
 10
114.751461
 20
80.544296
 30
0.0
 10
114.751461
 20
81.806762
 30
0.0
 10
115.731674
 20
82.786972
 30
0.0
 10
116.994141
 20
82.786972
 30
0.0
  0
LWPOLYLINE
  5
169
100
AcDbEntity
  8
Layer_4
 62
7
100
AcDbPolyline
 90
1
 70
1
 10
116.994141
 20
87.037948
 30
0.0
  0
SPLINE
  5
16a
100
AcDbEntity
  8
Layer_4
 62
7
100
AcDbSpline
 70
8
 71
3
 72
8
 73
4
 74
0
 40
0
 40
0
 40
0
 40
0
 40
1
 40
1
 40
1
 40
1
 10
168.329412
 20
45.973069
 30
0.0
 10
164.945412
 20
45.973069
 30
0.0
 10
163.529422
 20
45.325069
 30
0.0
 10
163.529422
 20
41.533050
 30
0.0
  0
SPLINE
  5
16b
100
AcDbEntity
  8
Layer_4
 62
7
100
AcDbSpline
 70
8
 71
3
 72
8
 73
4
 74
0
 40
0
 40
0
 40
0
 40
0
 40
1
 40
1
 40
1
 40
1
 10
163.529422
 20
41.533050
 30
0.0
 10
163.529422
 20
39.061069
 30
0.0
 10
164.249422
 20
37.525059
 30
0.0
 10
166.289431
 20
36.733059
 30
0.0
  0
LWPOLYLINE
  5
16c
100
AcDbEntity
  8
Layer_4
 62
7
100
AcDbPolyline
 90
1
 70
1
 10
116.994141
 20
82.786972
 30
0.0
  0
SPLINE
  5
16d
100
AcDbEntity
  8
Layer_4
 62
7
100
AcDbSpline
 70
8
 71
3
 72
8
 73
4
 74
0
 40
0
 40
0
 40
0
 40
0
 40
1
 40
1
 40
1
 40
1
 10
168.929422
 20
35.677069
 30
0.0
 10
169.745431
 20
35.293059
 30
0.0
 10
170.153422
 20
35.005059
 30
0.0
 10
170.153422
 20
33.493059
 30
0.0
  0
SPLINE
  5
16e
100
AcDbEntity
  8
Layer_4
 62
7
100
AcDbSpline
 70
8
 71
3
 72
8
 73
4
 74
0
 40
0
 40
0
 40
0
 40
0
 40
1
 40
1
 40
1
 40
1
 10
170.153422
 20
33.493059
 30
0.0
 10
170.153422
 20
31.789069
 30
0.0
 10
169.793422
 20
31.477059
 30
0.0
 10
168.233431
 20
31.477059
 30
0.0
  0
SPLINE
  5
16f
100
AcDbEntity
  8
Layer_4
 62
7
100
AcDbSpline
 70
8
 71
3
 72
8
 73
4
 74
0
 40
0
 40
0
 40
0
 40
0
 40
1
 40
1
 40
1
 40
1
 10
168.233431
 20
31.477059
 30
0.0
 10
167.441431
 20
31.477059
 30
0.0
 10
166.577431
 20
31.499736
 30
0.0
 10
163.865412
 20
31.573154
 30
0.0
  0
LWPOLYLINE
  5
170
100
AcDbEntity
  8
Layer_4
 62
7
100
AcDbPolyline
 90
2
 70
0
 10
166.289431
 20
36.733059
 30
0.0
 10
168.929422
 20
35.677069
 30
0.0
  0
SPLINE
  5
171
100
AcDbEntity
  8
Layer_4
 62
7
100
AcDbSpline
 70
8
 71
3
 72
8
 73
4
 74
0
 40
0
 40
0
 40
0
 40
0
 40
1
 40
1
 40
1
 40
1
 10
163.697318
 20
29.365135
 30
0.0
 10
165.713318
 20
28.885144
 30
0.0
 10
167.393299
 20
28.837125
 30
0.0
 10
168.185299
 20
28.837125
 30
0.0
  0
SPLINE
  5
172
100
AcDbEntity
  8
Layer_4
 62
7
100
AcDbSpline
 70
8
 71
3
 72
8
 73
4
 74
0
 40
0
 40
0
 40
0
 40
0
 40
1
 40
1
 40
1
 40
1
 10
168.185299
 20
28.837125
 30
0.0
 10
171.881308
 20
28.837125
 30
0.0
 10
173.177308
 20
29.701125
 30
0.0
 10
173.177308
 20
33.469135
 30
0.0
  0
SPLINE
  5
173
100
AcDbEntity
  8
Layer_4
 62
7
100
AcDbSpline
 70
8
 71
3
 72
8
 73
4
 74
0
 40
0
 40
0
 40
0
 40
0
 40
1
 40
1
 40
1
 40
1
 10
173.177308
 20
33.469135
 30
0.0
 10
173.177308
 20
35.893154
 30
0.0
 10
172.529308
 20
37.453144
 30
0.0
 10
170.369308
 20
38.293135
 30
0.0
  0
LWPOLYLINE
  5
174
100
AcDbEntity
  8
Layer_4
 62
7
100
AcDbPolyline
 90
2
 70
0
 10
163.865412
 20
31.573154
 30
0.0
 10
163.697318
 20
29.365135
 30
0.0
  0
SPLINE
  5
175
100
AcDbEntity
  8
Layer_4
 62
7
100
AcDbSpline
 70
8
 71
3
 72
8
 73
4
 74
0
 40
0
 40
0
 40
0
 40
0
 40
1
 40
1
 40
1
 40
1
 10
167.873318
 20
39.277154
 30
0.0
 10
166.937318
 20
39.685144
 30
0.0
 10
166.529299
 20
40.021135
 30
0.0
 10
166.529299
 20
41.485144
 30
0.0
  0
SPLINE
  5
176
100
AcDbEntity
  8
Layer_4
 62
7
100
AcDbSpline
 70
8
 71
3
 72
8
 73
4
 74
0
 40
0
 40
0
 40
0
 40
0
 40
1
 40
1
 40
1
 40
1
 10
166.529299
 20
41.485144
 30
0.0
 10
166.529299
 20
43.261135
 30
0.0
 10
167.009318
 20
43.357144
 30
0.0
 10
168.425308
 20
43.357144
 30
0.0
  0
SPLINE
  5
177
100
AcDbEntity
  8
Layer_4
 62
7
100
AcDbSpline
 70
8
 71
3
 72
8
 73
4
 74
0
 40
0
 40
0
 40
0
 40
0
 40
1
 40
1
 40
1
 40
1
 10
168.425308
 20
43.357144
 30
0.0
 10
169.793308
 20
43.357144
 30
0.0
 10
171.449308
 20
43.334467
 30
0.0
 10
172.553318
 20
43.285144
 30
0.0
  0
LWPOLYLINE
  5
178
100
AcDbEntity
  8
Layer_4
 62
7
100
AcDbPolyline
 90
2
 70
0
 10
170.369308
 20
38.293135
 30
0.0
 10
167.873318
 20
39.277154
 30
0.0
  0
SPLINE
  5
179
100
AcDbEntity
  8
Layer_4
 62
7
100
AcDbSpline
 70
8
 71
3
 72
8
 73
4
 74
0
 40
0
 40
0
 40
0
 40
0
 40
1
 40
1
 40
1
 40
1
 10
172.721412
 20
45.421135
 30
0.0
 10
171.233422
 20
45.877144
 30
0.0
 10
169.649422
 20
45.973154
 30
0.0
 10
168.329412
 20
45.973154
 30
0.0
  0
LWPOLYLINE
  5
17a
100
AcDbEntity
  8
Layer_4
 62
7
100
AcDbPolyline
 90
2
 70
0
 10
172.553318
 20
43.285144
 30
0.0
 10
172.721412
 20
45.421135
 30
0.0
  0
SPLINE
  5
17b
100
AcDbEntity
  8
Layer_4
 62
7
100
AcDbSpline
 70
8
 71
3
 72
8
 73
4
 74
0
 40
0
 40
0
 40
0
 40
0
 40
1
 40
1
 40
1
 40
1
 10
179.609431
 20
41.221069
 30
0.0
 10
176.057422
 20
41.221069
 30
0.0
 10
174.713431
 20
39.517050
 30
0.0
 10
174.713431
 20
35.005059
 30
0.0
  0
SPLINE
  5
17c
100
AcDbEntity
  8
Layer_4
 62
7
100
AcDbSpline
 70
8
 71
3
 72
8
 73
4
 74
0
 40
0
 40
0
 40
0
 40
0
 40
1
 40
1
 40
1
 40
1
 10
174.713431
 20
35.005059
 30
0.0
 10
174.713431
 20
30.493069
 30
0.0
 10
176.057422
 20
28.813059
 30
0.0
 10
179.609431
 20
28.813059
 30
0.0
  0
SPLINE
  5
17d
100
AcDbEntity
  8
Layer_4
 62
7
100
AcDbSpline
 70
8
 71
3
 72
8
 73
4
 74
0
 40
0
 40
0
 40
0
 40
0
 40
1
 40
1
 40
1
 40
1
 10
179.609431
 20
28.813059
 30
0.0
 10
183.185422
 20
28.813059
 30
0.0
 10
184.529412
 20
30.493069
 30
0.0
 10
184.529412
 20
35.005059
 30
0.0
  0
SPLINE
  5
17e
100
AcDbEntity
  8
Layer_4
 62
7
100
AcDbSpline
 70
8
 71
3
 72
8
 73
4
 74
0
 40
0
 40
0
 40
0
 40
0
 40
1
 40
1
 40
1
 40
1
 10
184.529412
 20
35.005059
 30
0.0
 10
184.529412
 20
39.517050
 30
0.0
 10
183.185422
 20
41.221069
 30
0.0
 10
179.609431
 20
41.221069
 30
0.0
  0
LWPOLYLINE
  5
17f
100
AcDbEntity
  8
Layer_4
 62
7
100
AcDbPolyline
 90
1
 70
1
 10
168.329412
 20
45.973154
 30
0.0
  0
SPLINE
  5
180
100
AcDbEntity
  8
Layer_4
 62
7
100
AcDbSpline
 70
8
 71
3
 72
8
 73
4
 74
0
 40
0
 40
0
 40
0
 40
0
 40
1
 40
1
 40
1
 40
1
 10
179.632108
 20
38.893059
 30
0.0
 10
181.120127
 20
38.893059
 30
0.0
 10
181.504108
 20
38.053069
 30
0.0
 10
181.504108
 20
35.005059
 30
0.0
  0
SPLINE
  5
181
100
AcDbEntity
  8
Layer_4
 62
7
100
AcDbSpline
 70
8
 71
3
 72
8
 73
4
 74
0
 40
0
 40
0
 40
0
 40
0
 40
1
 40
1
 40
1
 40
1
 10
181.504108
 20
35.005059
 30
0.0
 10
181.504108
 20
31.981059
 30
0.0
 10
181.120127
 20
31.141069
 30
0.0
 10
179.632108
 20
31.141069
 30
0.0
  0
SPLINE
  5
182
100
AcDbEntity
  8
Layer_4
 62
7
100
AcDbSpline
 70
8
 71
3
 72
8
 73
4
 74
0
 40
0
 40
0
 40
0
 40
0
 40
1
 40
1
 40
1
 40
1
 10
179.632108
 20
31.141069
 30
0.0
 10
178.144118
 20
31.141069
 30
0.0
 10
177.760108
 20
31.981059
 30
0.0
 10
177.760108
 20
35.005059
 30
0.0
  0
SPLINE
  5
183
100
AcDbEntity
  8
Layer_4
 62
7
100
AcDbSpline
 70
8
 71
3
 72
8
 73
4
 74
0
 40
0
 40
0
 40
0
 40
0
 40
1
 40
1
 40
1
 40
1
 10
177.760108
 20
35.005059
 30
0.0
 10
177.760108
 20
38.053069
 30
0.0
 10
178.144118
 20
38.893059
 30
0.0
 10
179.632108
 20
38.893059
 30
0.0
  0
LWPOLYLINE
  5
184
100
AcDbEntity
  8
Layer_4
 62
7
100
AcDbPolyline
 90
1
 70
1
 10
179.609431
 20
41.221069
 30
0.0
  0
LWPOLYLINE
  5
185
100
AcDbEntity
  8
Layer_4
 62
7
100
AcDbPolyline
 90
1
 70
1
 10
179.632108
 20
38.893059
 30
0.0
  0
SPLINE
  5
186
100
AcDbEntity
  8
Layer_4
 62
7
100
AcDbSpline
 70
8
 71
3
 72
8
 73
4
 74
0
 40
0
 40
0
 40
0
 40
0
 40
1
 40
1
 40
1
 40
1
 10
192.665412
 20
32.509069
 30
0.0
 10
191.633403
 20
31.717069
 30
0.0
 10
190.937412
 20
31.285069
 30
0.0
 10
190.265403
 20
31.285069
 30
0.0
  0
SPLINE
  5
187
100
AcDbEntity
  8
Layer_4
 62
7
100
AcDbSpline
 70
8
 71
3
 72
8
 73
4
 74
0
 40
0
 40
0
 40
0
 40
0
 40
1
 40
1
 40
1
 40
1
 10
190.265403
 20
31.285069
 30
0.0
 10
189.521422
 20
31.285069
 30
0.0
 10
189.305422
 20
31.693059
 30
0.0
 10
189.329403
 20
32.941069
 30
0.0
  0
LWPOLYLINE
  5
188
100
AcDbEntity
  8
Layer_4
 62
7
100
AcDbPolyline
 90
3
 70
0
 10
195.545412
 20
40.885050
 30
0.0
 10
192.665412
 20
40.885050
 30
0.0
 10
192.665412
 20
32.509069
 30
0.0
  0
SPLINE
  5
189
100
AcDbEntity
  8
Layer_4
 62
7
100
AcDbSpline
 70
8
 71
3
 72
8
 73
4
 74
0
 40
0
 40
0
 40
0
 40
0
 40
1
 40
1
 40
1
 40
1
 10
186.425422
 20
32.077069
 30
0.0
 10
186.425422
 20
29.917069
 30
0.0
 10
187.361422
 20
28.813059
 30
0.0
 10
189.113403
 20
28.813059
 30
0.0
  0
SPLINE
  5
18a
100
AcDbEntity
  8
Layer_4
 62
7
100
AcDbSpline
 70
8
 71
3
 72
8
 73
4
 74
0
 40
0
 40
0
 40
0
 40
0
 40
1
 40
1
 40
1
 40
1
 10
189.113403
 20
28.813059
 30
0.0
 10
190.481403
 20
28.813059
 30
0.0
 10
191.705403
 20
29.437050
 30
0.0
 10
193.025412
 20
30.661050
 30
0.0
  0
LWPOLYLINE
  5
18b
100
AcDbEntity
  8
Layer_4
 62
7
100
AcDbPolyline
 90
4
 70
0
 10
189.329403
 20
32.941069
 30
0.0
 10
189.329403
 20
40.885050
 30
0.0
 10
186.425422
 20
40.885050
 30
0.0
 10
186.425422
 20
32.077069
 30
0.0
  0
LWPOLYLINE
  5
18c
100
AcDbEntity
  8
Layer_4
 62
7
100
AcDbPolyline
 90
4
 70
0
 10
193.025412
 20
30.661050
 30
0.0
 10
193.241412
 20
29.125040
 30
0.0
 10
195.545412
 20
29.125040
 30
0.0
 10
195.545412
 20
40.885050
 30
0.0
  0
SPLINE
  5
18d
100
AcDbEntity
  8
Layer_4
 62
7
100
AcDbSpline
 70
8
 71
3
 72
8
 73
4
 74
0
 40
0
 40
0
 40
0
 40
0
 40
1
 40
1
 40
1
 40
1
 10
198.809422
 20
32.293154
 30
0.0
 10
198.809422
 20
30.109144
 30
0.0
 10
199.793412
 20
28.861135
 30
0.0
 10
201.545422
 20
28.861135
 30
0.0
  0
SPLINE
  5
18e
100
AcDbEntity
  8
Layer_4
 62
7
100
AcDbSpline
 70
8
 71
3
 72
8
 73
4
 74
0
 40
0
 40
0
 40
0
 40
0
 40
1
 40
1
 40
1
 40
1
 10
201.545422
 20
28.861135
 30
0.0
 10
202.217403
 20
28.861135
 30
0.0
 10
203.537412
 20
29.005135
 30
0.0
 10
204.233403
 20
29.269125
 30
0.0
  0
LWPOLYLINE
  5
18f
100
AcDbEntity
  8
Layer_4
 62
7
100
AcDbPolyline
 90
11
 70
0
 10
201.689422
 20
38.773069
 30
0.0
 10
204.305403
 20
38.773069
 30
0.0
 10
204.305403
 20
40.885050
 30
0.0
 10
201.689422
 20
40.885050
 30
0.0
 10
201.689422
 20
44.269050
 30
0.0
 10
198.809422
 20
44.269050
 30
0.0
 10
198.809422
 20
40.885050
 30
0.0
 10
197.081422
 20
40.765144
 30
0.0
 10
197.081422
 20
38.773154
 30
0.0
 10
198.809422
 20
38.773154
 30
0.0
 10
198.809422
 20
32.293154
 30
0.0
  0
SPLINE
  5
190
100
AcDbEntity
  8
Layer_4
 62
7
100
AcDbSpline
 70
8
 71
3
 72
8
 73
4
 74
0
 40
0
 40
0
 40
0
 40
0
 40
1
 40
1
 40
1
 40
1
 10
202.721403
 20
31.429154
 30
0.0
 10
201.905422
 20
31.429154
 30
0.0
 10
201.689422
 20
31.765144
 30
0.0
 10
201.689422
 20
32.773144
 30
0.0
  0
LWPOLYLINE
  5
191
100
AcDbEntity
  8
Layer_4
 62
7
100
AcDbPolyline
 90
3
 70
0
 10
204.233403
 20
29.269125
 30
0.0
 10
203.921422
 20
31.429154
 30
0.0
 10
202.721403
 20
31.429154
 30
0.0
  0
SPLINE
  5
192
100
AcDbEntity
  8
Layer_4
 62
7
100
AcDbSpline
 70
8
 71
3
 72
8
 73
4
 74
0
 40
0
 40
0
 40
0
 40
0
 40
1
 40
1
 40
1
 40
1
 10
212.585403
 20
41.221069
 30
0.0
 10
211.265393
 20
41.221069
 30
0.0
 10
209.945384
 20
40.525050
 30
0.0
 10
208.673393
 20
39.349069
 30
0.0
  0
SPLINE
  5
193
100
AcDbEntity
  8
Layer_4
 62
7
100
AcDbSpline
 70
8
 71
3
 72
8
 73
4
 74
0
 40
0
 40
0
 40
0
 40
0
 40
1
 40
1
 40
1
 40
1
 10
208.673393
 20
39.349069
 30
0.0
 10
208.769488
 20
39.997069
 30
0.0
 10
208.841488
 20
40.789069
 30
0.0
 10
208.841488
 20
41.605050
 30
0.0
  0
LWPOLYLINE
  5
194
100
AcDbEntity
  8
Layer_4
 62
7
100
AcDbPolyline
 90
2
 70
0
 10
201.689422
 20
32.773144
 30
0.0
 10
201.689422
 20
38.773069
 30
0.0
  0
SPLINE
  5
195
100
AcDbEntity
  8
Layer_4
 62
7
100
AcDbSpline
 70
8
 71
3
 72
8
 73
4
 74
0
 40
0
 40
0
 40
0
 40
0
 40
1
 40
1
 40
1
 40
1
 10
208.841488
 20
37.381059
 30
0.0
 10
209.993488
 20
38.293050
 30
0.0
 10
210.761478
 20
38.749059
 30
0.0
 10
211.577488
 20
38.749059
 30
0.0
  0
SPLINE
  5
196
100
AcDbEntity
  8
Layer_4
 62
7
100
AcDbSpline
 70
8
 71
3
 72
8
 73
4
 74
0
 40
0
 40
0
 40
0
 40
0
 40
1
 40
1
 40
1
 40
1
 10
211.577488
 20
38.749059
 30
0.0
 10
212.177469
 20
38.749059
 30
0.0
 10
212.345478
 20
38.389059
 30
0.0
 10
212.345478
 20
37.069050
 30
0.0
  0
LWPOLYLINE
  5
197
100
AcDbEntity
  8
Layer_4
 62
7
100
AcDbPolyline
 90
6
 70
0
 10
208.841488
 20
41.605050
 30
0.0
 10
208.841488
 20
45.925050
 30
0.0
 10
205.937478
 20
45.925050
 30
0.0
 10
205.937478
 20
29.125040
 30
0.0
 10
208.841488
 20
29.125040
 30
0.0
 10
208.841488
 20
37.381059
 30
0.0
  0
SPLINE
  5
198
100
AcDbEntity
  8
Layer_4
 62
7
100
AcDbSpline
 70
8
 71
3
 72
8
 73
4
 74
0
 40
0
 40
0
 40
0
 40
0
 40
1
 40
1
 40
1
 40
1
 10
215.249488
 20
37.957059
 30
0.0
 10
215.249488
 20
40.069069
 30
0.0
 10
214.313488
 20
41.221069
 30
0.0
 10
212.585488
 20
41.221069
 30
0.0
  0
LWPOLYLINE
  5
199
100
AcDbEntity
  8
Layer_4
 62
7
100
AcDbPolyline
 90
4
 70
0
 10
212.345478
 20
37.069050
 30
0.0
 10
212.345478
 20
29.125040
 30
0.0
 10
215.249488
 20
29.125040
 30
0.0
 10
215.249488
 20
37.957059
 30
0.0
  0
SPLINE
  5
19a
100
AcDbEntity
  8
Layer_4
 62
7
100
AcDbSpline
 70
8
 71
3
 72
8
 73
4
 74
0
 40
0
 40
0
 40
0
 40
0
 40
1
 40
1
 40
1
 40
1
 10
227.153356
 20
45.901069
 30
0.0
 10
225.113346
 20
45.901069
 30
0.0
 10
223.505337
 20
45.804974
 30
0.0
 10
221.969356
 20
45.685069
 30
0.0
  0
LWPOLYLINE
  5
19b
100
AcDbEntity
  8
Layer_4
 62
7
100
AcDbPolyline
 90
1
 70
1
 10
212.585488
 20
41.221069
 30
0.0
  0
SPLINE
  5
19c
100
AcDbEntity
  8
Layer_4
 62
7
100
AcDbSpline
 70
8
 71
3
 72
8
 73
4
 74
0
 40
0
 40
0
 40
0
 40
0
 40
1
 40
1
 40
1
 40
1
 10
221.969356
 20
29.125040
 30
0.0
 10
223.505337
 20
29.005135
 30
0.0
 10
225.161365
 20
28.909040
 30
0.0
 10
227.153356
 20
28.909040
 30
0.0
  0
SPLINE
  5
19d
100
AcDbEntity
  8
Layer_4
 62
7
100
AcDbSpline
 70
8
 71
3
 72
8
 73
4
 74
0
 40
0
 40
0
 40
0
 40
0
 40
1
 40
1
 40
1
 40
1
 10
227.153356
 20
28.909040
 30
0.0
 10
231.353365
 20
28.909040
 30
0.0
 10
232.841356
 20
30.925069
 30
0.0
 10
232.841356
 20
37.405069
 30
0.0
  0
SPLINE
  5
19e
100
AcDbEntity
  8
Layer_4
 62
7
100
AcDbSpline
 70
8
 71
3
 72
8
 73
4
 74
0
 40
0
 40
0
 40
0
 40
0
 40
1
 40
1
 40
1
 40
1
 10
232.841356
 20
37.405069
 30
0.0
 10
232.841356
 20
43.885069
 30
0.0
 10
231.353365
 20
45.901069
 30
0.0
 10
227.153356
 20
45.901069
 30
0.0
  0
LWPOLYLINE
  5
19f
100
AcDbEntity
  8
Layer_4
 62
7
100
AcDbPolyline
 90
2
 70
0
 10
221.969356
 20
45.685069
 30
0.0
 10
221.969356
 20
29.125040
 30
0.0
  0
SPLINE
  5
1a0
100
AcDbEntity
  8
Layer_4
 62
7
100
AcDbSpline
 70
8
 71
3
 72
8
 73
4
 74
0
 40
0
 40
0
 40
0
 40
0
 40
1
 40
1
 40
1
 40
1
 10
227.153356
 20
31.429069
 30
0.0
 10
226.361356
 20
31.429069
 30
0.0
 10
225.617346
 20
31.429069
 30
0.0
 10
224.945365
 20
31.451746
 30
0.0
  0
LWPOLYLINE
  5
1a1
100
AcDbEntity
  8
Layer_4
 62
7
100
AcDbPolyline
 90
1
 70
1
 10
227.153356
 20
45.901069
 30
0.0
  0
SPLINE
  5
1a2
100
AcDbEntity
  8
Layer_4
 62
7
100
AcDbSpline
 70
8
 71
3
 72
8
 73
4
 74
0
 40
0
 40
0
 40
0
 40
0
 40
1
 40
1
 40
1
 40
1
 10
224.945365
 20
43.379765
 30
0.0
 10
225.617346
 20
43.379765
 30
0.0
 10
226.313365
 20
43.402442
 30
0.0
 10
227.153356
 20
43.402442
 30
0.0
  0
SPLINE
  5
1a3
100
AcDbEntity
  8
Layer_4
 62
7
100
AcDbSpline
 70
8
 71
3
 72
8
 73
4
 74
0
 40
0
 40
0
 40
0
 40
0
 40
1
 40
1
 40
1
 40
1
 10
227.153356
 20
43.402442
 30
0.0
 10
229.097356
 20
43.402442
 30
0.0
 10
229.697365
 20
41.962442
 30
0.0
 10
229.697365
 20
37.402461
 30
0.0
  0
SPLINE
  5
1a4
100
AcDbEntity
  8
Layer_4
 62
7
100
AcDbSpline
 70
8
 71
3
 72
8
 73
4
 74
0
 40
0
 40
0
 40
0
 40
0
 40
1
 40
1
 40
1
 40
1
 10
229.697365
 20
37.402461
 30
0.0
 10
229.697365
 20
32.842451
 30
0.0
 10
229.097356
 20
31.426461
 30
0.0
 10
227.153356
 20
31.426461
 30
0.0
  0
LWPOLYLINE
  5
1a5
100
AcDbEntity
  8
Layer_4
 62
7
100
AcDbPolyline
 90
2
 70
0
 10
224.945365
 20
31.451746
 30
0.0
 10
224.945365
 20
43.379765
 30
0.0
  0
SPLINE
  5
1a6
100
AcDbEntity
  8
Layer_4
 62
7
100
AcDbSpline
 70
8
 71
3
 72
8
 73
4
 74
0
 40
0
 40
0
 40
0
 40
0
 40
1
 40
1
 40
1
 40
1
 10
239.825356
 20
41.221069
 30
0.0
 10
238.673356
 20
41.221069
 30
0.0
 10
236.345346
 20
40.957163
 30
0.0
 10
234.953365
 20
40.645069
 30
0.0
  0
LWPOLYLINE
  5
1a7
100
AcDbEntity
  8
Layer_4
 62
7
100
AcDbPolyline
 90
2
 70
0
 10
227.153356
 20
31.426461
 30
0.0
 10
227.153356
 20
31.429069
 30
0.0
  0
SPLINE
  5
1a8
100
AcDbEntity
  8
Layer_4
 62
7
100
AcDbSpline
 70
8
 71
3
 72
8
 73
4
 74
0
 40
0
 40
0
 40
0
 40
0
 40
1
 40
1
 40
1
 40
1
 10
235.217271
 20
38.581050
 30
0.0
 10
236.753280
 20
38.725050
 30
0.0
 10
238.361261
 20
38.821144
 30
0.0
 10
239.153261
 20
38.821144
 30
0.0
  0
SPLINE
  5
1a9
100
AcDbEntity
  8
Layer_4
 62
7
100
AcDbSpline
 70
8
 71
3
 72
8
 73
4
 74
0
 40
0
 40
0
 40
0
 40
0
 40
1
 40
1
 40
1
 40
1
 10
239.153261
 20
38.821144
 30
0.0
 10
240.401271
 20
38.821144
 30
0.0
 10
240.761271
 20
38.485154
 30
0.0
 10
240.785280
 20
37.141135
 30
0.0
  0
LWPOLYLINE
  5
1aa
100
AcDbEntity
  8
Layer_4
 62
7
100
AcDbPolyline
 90
2
 70
0
 10
234.953365
 20
40.645069
 30
0.0
 10
235.217271
 20
38.581050
 30
0.0
  0
SPLINE
  5
1ab
100
AcDbEntity
  8
Layer_4
 62
7
100
AcDbSpline
 70
8
 71
3
 72
8
 73
4
 74
0
 40
0
 40
0
 40
0
 40
0
 40
1
 40
1
 40
1
 40
1
 10
237.449271
 20
36.421135
 30
0.0
 10
235.577271
 20
36.421135
 30
0.0
 10
234.473261
 20
35.341135
 30
0.0
 10
234.473261
 20
33.469135
 30
0.0
  0
LWPOLYLINE
  5
1ac
100
AcDbEntity
  8
Layer_4
 62
7
100
AcDbPolyline
 90
3
 70
0
 10
240.785280
 20
37.141135
 30
0.0
 10
240.785280
 20
36.421135
 30
0.0
 10
237.449271
 20
36.421135
 30
0.0
  0
SPLINE
  5
1ad
100
AcDbEntity
  8
Layer_4
 62
7
100
AcDbSpline
 70
8
 71
3
 72
8
 73
4
 74
0
 40
0
 40
0
 40
0
 40
0
 40
1
 40
1
 40
1
 40
1
 10
234.473261
 20
32.269144
 30
0.0
 10
234.473261
 20
30.061154
 30
0.0
 10
235.841261
 20
28.861135
 30
0.0
 10
237.641261
 20
28.861135
 30
0.0
  0
SPLINE
  5
1ae
100
AcDbEntity
  8
Layer_4
 62
7
100
AcDbSpline
 70
8
 71
3
 72
8
 73
4
 74
0
 40
0
 40
0
 40
0
 40
0
 40
1
 40
1
 40
1
 40
1
 10
237.641261
 20
28.861135
 30
0.0
 10
239.345280
 20
28.861135
 30
0.0
 10
240.473271
 20
29.845125
 30
0.0
 10
241.121271
 20
30.733135
 30
0.0
  0
LWPOLYLINE
  5
1af
100
AcDbEntity
  8
Layer_4
 62
7
100
AcDbPolyline
 90
2
 70
0
 10
234.473261
 20
33.469135
 30
0.0
 10
234.473261
 20
32.269144
 30
0.0
  0
SPLINE
  5
1b0
100
AcDbEntity
  8
Layer_4
 62
7
100
AcDbSpline
 70
8
 71
3
 72
8
 73
4
 74
0
 40
0
 40
0
 40
0
 40
0
 40
1
 40
1
 40
1
 40
1
 10
243.665195
 20
37.117154
 30
0.0
 10
243.665195
 20
40.261144
 30
0.0
 10
242.369195
 20
41.221154
 30
0.0
 10
239.825186
 20
41.221154
 30
0.0
  0
LWPOLYLINE
  5
1b1
100
AcDbEntity
  8
Layer_4
 62
7
100
AcDbPolyline
 90
4
 70
0
 10
241.121271
 20
30.733135
 30
0.0
 10
241.385176
 20
29.125125
 30
0.0
 10
243.665195
 20
29.125125
 30
0.0
 10
243.665195
 20
37.117154
 30
0.0
  0
SPLINE
  5
1b2
100
AcDbEntity
  8
Layer_4
 62
7
100
AcDbSpline
 70
8
 71
3
 72
8
 73
4
 74
0
 40
0
 40
0
 40
0
 40
0
 40
1
 40
1
 40
1
 40
1
 10
238.409365
 20
31.213069
 30
0.0
 10
237.689365
 20
31.213069
 30
0.0
 10
237.377356
 20
31.621059
 30
0.0
 10
237.377356
 20
32.653069
 30
0.0
  0
LWPOLYLINE
  5
1b3
100
AcDbEntity
  8
Layer_4
 62
7
100
AcDbPolyline
 90
2
 70
0
 10
239.825186
 20
41.221154
 30
0.0
 10
239.825356
 20
41.221069
 30
0.0
  0
SPLINE
  5
1b4
100
AcDbEntity
  8
Layer_4
 62
7
100
AcDbSpline
 70
8
 71
3
 72
8
 73
4
 74
0
 40
0
 40
0
 40
0
 40
0
 40
1
 40
1
 40
1
 40
1
 10
237.377356
 20
33.109050
 30
0.0
 10
237.377356
 20
33.901050
 30
0.0
 10
237.521356
 20
34.381069
 30
0.0
 10
238.217346
 20
34.429059
 30
0.0
  0
LWPOLYLINE
  5
1b5
100
AcDbEntity
  8
Layer_4
 62
7
100
AcDbPolyline
 90
2
 70
0
 10
237.377356
 20
32.653069
 30
0.0
 10
237.377356
 20
33.109050
 30
0.0
  0
SPLINE
  5
1b6
100
AcDbEntity
  8
Layer_4
 62
7
100
AcDbSpline
 70
8
 71
3
 72
8
 73
4
 74
0
 40
0
 40
0
 40
0
 40
0
 40
1
 40
1
 40
1
 40
1
 10
240.785365
 20
32.413059
 30
0.0
 10
239.921365
 20
31.573069
 30
0.0
 10
239.033356
 20
31.213069
 30
0.0
 10
238.409365
 20
31.213069
 30
0.0
  0
LWPOLYLINE
  5
1b7
100
AcDbEntity
  8
Layer_4
 62
7
100
AcDbPolyline
 90
3
 70
0
 10
238.217346
 20
34.429059
 30
0.0
 10
240.785365
 20
34.429059
 30
0.0
 10
240.785365
 20
32.413059
 30
0.0
  0
LWPOLYLINE
  5
1b8
100
AcDbEntity
  8
Layer_4
 62
7
100
AcDbPolyline
 90
1
 70
1
 10
238.409365
 20
31.213069
 30
0.0
  0
SPLINE
  5
1b9
100
AcDbEntity
  8
Layer_4
 62
7
100
AcDbSpline
 70
8
 71
3
 72
8
 73
4
 74
0
 40
0
 40
0
 40
0
 40
0
 40
1
 40
1
 40
1
 40
1
 10
252.713327
 20
34.549050
 30
0.0
 10
252.473233
 20
34.981050
 30
0.0
 10
252.065327
 20
35.509059
 30
0.0
 10
251.825318
 20
35.677069
 30
0.0
  0
LWPOLYLINE
  5
1ba
100
AcDbEntity
  8
Layer_4
 62
7
100
AcDbPolyline
 90
4
 70
0
 10
249.497308
 20
34.741069
 30
0.0
 10
252.233308
 20
29.125040
 30
0.0
 10
255.473308
 20
29.125040
 30
0.0
 10
252.713327
 20
34.549050
 30
0.0
  0
SPLINE
  5
1bb
100
AcDbEntity
  8
Layer_4
 62
7
100
AcDbSpline
 70
8
 71
3
 72
8
 73
4
 74
0
 40
0
 40
0
 40
0
 40
0
 40
1
 40
1
 40
1
 40
1
 10
251.825318
 20
35.724974
 30
0.0
 10
252.065412
 20
35.893069
 30
0.0
 10
252.473318
 20
36.300974
 30
0.0
 10
252.713327
 20
36.708965
 30
0.0
  0
LWPOLYLINE
  5
1bc
100
AcDbEntity
  8
Layer_4
 62
7
100
AcDbPolyline
 90
2
 70
0
 10
251.825318
 20
35.677069
 30
0.0
 10
251.825318
 20
35.724974
 30
0.0
  0
SPLINE
  5
1bd
100
AcDbEntity
  8
Layer_4
 62
7
100
AcDbSpline
 70
8
 71
3
 72
8
 73
4
 74
0
 40
0
 40
0
 40
0
 40
0
 40
1
 40
1
 40
1
 40
1
 10
248.705308
 20
36.708965
 30
0.0
 10
248.801403
 20
37.380974
 30
0.0
 10
248.849308
 20
38.052984
 30
0.0
 10
248.849308
 20
38.772984
 30
0.0
  0
LWPOLYLINE
  5
1be
100
AcDbEntity
  8
Layer_4
 62
7
100
AcDbPolyline
 90
5
 70
0
 10
252.713327
 20
36.708965
 30
0.0
 10
255.161327
 20
40.884965
 30
0.0
 10
251.921327
 20
40.884965
 30
0.0
 10
249.449318
 20
36.708965
 30
0.0
 10
248.705308
 20
36.708965
 30
0.0
  0
SPLINE
  5
1bf
100
AcDbEntity
  8
Layer_4
 62
7
100
AcDbSpline
 70
8
 71
3
 72
8
 73
4
 74
0
 40
0
 40
0
 40
0
 40
0
 40
1
 40
1
 40
1
 40
1
 10
248.849308
 20
32.964965
 30
0.0
 10
248.849308
 20
33.492974
 30
0.0
 10
248.801403
 20
34.116965
 30
0.0
 10
248.705308
 20
34.740984
 30
0.0
  0
LWPOLYLINE
  5
1c0
100
AcDbEntity
  8
Layer_4
 62
7
100
AcDbPolyline
 90
6
 70
0
 10
248.849308
 20
38.772984
 30
0.0
 10
248.849308
 20
45.924965
 30
0.0
 10
245.945327
 20
45.924965
 30
0.0
 10
245.945327
 20
29.124955
 30
0.0
 10
248.849308
 20
29.124955
 30
0.0
 10
248.849308
 20
32.964965
 30
0.0
  0
SPLINE
  5
1c1
100
AcDbEntity
  8
Layer_4
 62
7
100
AcDbSpline
 70
8
 71
3
 72
8
 73
4
 74
0
 40
0
 40
0
 40
0
 40
0
 40
1
 40
1
 40
1
 40
1
 10
260.801308
 20
41.221069
 30
0.0
 10
257.249299
 20
41.221069
 30
0.0
 10
255.905308
 20
39.517050
 30
0.0
 10
255.905308
 20
35.005059
 30
0.0
  0
SPLINE
  5
1c2
100
AcDbEntity
  8
Layer_4
 62
7
100
AcDbSpline
 70
8
 71
3
 72
8
 73
4
 74
0
 40
0
 40
0
 40
0
 40
0
 40
1
 40
1
 40
1
 40
1
 10
255.905308
 20
35.005059
 30
0.0
 10
255.905308
 20
30.493069
 30
0.0
 10
257.249299
 20
28.813059
 30
0.0
 10
260.801308
 20
28.813059
 30
0.0
  0
SPLINE
  5
1c3
100
AcDbEntity
  8
Layer_4
 62
7
100
AcDbSpline
 70
8
 71
3
 72
8
 73
4
 74
0
 40
0
 40
0
 40
0
 40
0
 40
1
 40
1
 40
1
 40
1
 10
260.801308
 20
28.813059
 30
0.0
 10
264.377299
 20
28.813059
 30
0.0
 10
265.721318
 20
30.493069
 30
0.0
 10
265.721318
 20
35.005059
 30
0.0
  0
SPLINE
  5
1c4
100
AcDbEntity
  8
Layer_4
 62
7
100
AcDbSpline
 70
8
 71
3
 72
8
 73
4
 74
0
 40
0
 40
0
 40
0
 40
0
 40
1
 40
1
 40
1
 40
1
 10
265.721318
 20
35.005059
 30
0.0
 10
265.721318
 20
39.517050
 30
0.0
 10
264.377299
 20
41.221069
 30
0.0
 10
260.801308
 20
41.221069
 30
0.0
  0
LWPOLYLINE
  5
1c5
100
AcDbEntity
  8
Layer_4
 62
7
100
AcDbPolyline
 90
2
 70
0
 10
248.705308
 20
34.740984
 30
0.0
 10
249.497308
 20
34.741069
 30
0.0
  0
SPLINE
  5
1c6
100
AcDbEntity
  8
Layer_4
 62
7
100
AcDbSpline
 70
8
 71
3
 72
8
 73
4
 74
0
 40
0
 40
0
 40
0
 40
0
 40
1
 40
1
 40
1
 40
1
 10
260.823986
 20
38.893059
 30
0.0
 10
262.311976
 20
38.893059
 30
0.0
 10
262.695986
 20
38.053069
 30
0.0
 10
262.695986
 20
35.005059
 30
0.0
  0
SPLINE
  5
1c7
100
AcDbEntity
  8
Layer_4
 62
7
100
AcDbSpline
 70
8
 71
3
 72
8
 73
4
 74
0
 40
0
 40
0
 40
0
 40
0
 40
1
 40
1
 40
1
 40
1
 10
262.695986
 20
35.005059
 30
0.0
 10
262.695986
 20
31.981059
 30
0.0
 10
262.311976
 20
31.141069
 30
0.0
 10
260.823986
 20
31.141069
 30
0.0
  0
SPLINE
  5
1c8
100
AcDbEntity
  8
Layer_4
 62
7
100
AcDbSpline
 70
8
 71
3
 72
8
 73
4
 74
0
 40
0
 40
0
 40
0
 40
0
 40
1
 40
1
 40
1
 40
1
 10
260.823986
 20
31.141069
 30
0.0
 10
259.335967
 20
31.141069
 30
0.0
 10
258.951986
 20
31.981059
 30
0.0
 10
258.951986
 20
35.005059
 30
0.0
  0
SPLINE
  5
1c9
100
AcDbEntity
  8
Layer_4
 62
7
100
AcDbSpline
 70
8
 71
3
 72
8
 73
4
 74
0
 40
0
 40
0
 40
0
 40
0
 40
1
 40
1
 40
1
 40
1
 10
258.951986
 20
35.005059
 30
0.0
 10
258.951986
 20
38.053069
 30
0.0
 10
259.335967
 20
38.893059
 30
0.0
 10
260.823986
 20
38.893059
 30
0.0
  0
LWPOLYLINE
  5
1ca
100
AcDbEntity
  8
Layer_4
 62
7
100
AcDbPolyline
 90
1
 70
1
 10
260.801308
 20
41.221069
 30
0.0
  0
LWPOLYLINE
  5
1cb
100
AcDbEntity
  8
Layer_4
 62
7
100
AcDbPolyline
 90
1
 70
1
 10
260.823986
 20
38.893059
 30
0.0
  0
SPLINE
  5
1cc
100
AcDbEntity
  8
Layer_4
 62
7
100
AcDbSpline
 70
8
 71
3
 72
8
 73
4
 74
0
 40
0
 40
0
 40
0
 40
0
 40
1
 40
1
 40
1
 40
1
 10
268.553271
 20
32.293154
 30
0.0
 10
268.553271
 20
30.109144
 30
0.0
 10
269.537261
 20
28.861135
 30
0.0
 10
271.289271
 20
28.861135
 30
0.0
  0
SPLINE
  5
1cd
100
AcDbEntity
  8
Layer_4
 62
7
100
AcDbSpline
 70
8
 71
3
 72
8
 73
4
 74
0
 40
0
 40
0
 40
0
 40
0
 40
1
 40
1
 40
1
 40
1
 10
271.289271
 20
28.861135
 30
0.0
 10
271.961252
 20
28.861135
 30
0.0
 10
273.281261
 20
29.005135
 30
0.0
 10
273.977252
 20
29.269125
 30
0.0
  0
LWPOLYLINE
  5
1ce
100
AcDbEntity
  8
Layer_4
 62
7
100
AcDbPolyline
 90
11
 70
0
 10
271.433271
 20
38.773069
 30
0.0
 10
274.049252
 20
38.773069
 30
0.0
 10
274.049252
 20
40.885050
 30
0.0
 10
271.433271
 20
40.885050
 30
0.0
 10
271.433271
 20
44.269050
 30
0.0
 10
268.553271
 20
44.269050
 30
0.0
 10
268.553271
 20
40.885050
 30
0.0
 10
266.825271
 20
40.765144
 30
0.0
 10
266.825271
 20
38.773154
 30
0.0
 10
268.553271
 20
38.773154
 30
0.0
 10
268.553271
 20
32.293154
 30
0.0
  0
SPLINE
  5
1cf
100
AcDbEntity
  8
Layer_4
 62
7
100
AcDbSpline
 70
8
 71
3
 72
8
 73
4
 74
0
 40
0
 40
0
 40
0
 40
0
 40
1
 40
1
 40
1
 40
1
 10
272.465252
 20
31.429154
 30
0.0
 10
271.649271
 20
31.429154
 30
0.0
 10
271.433271
 20
31.765144
 30
0.0
 10
271.433271
 20
32.773144
 30
0.0
  0
LWPOLYLINE
  5
1d0
100
AcDbEntity
  8
Layer_4
 62
7
100
AcDbPolyline
 90
3
 70
0
 10
273.977252
 20
29.269125
 30
0.0
 10
273.665271
 20
31.429154
 30
0.0
 10
272.465252
 20
31.429154
 30
0.0
  0
SPLINE
  5
1d1
100
AcDbEntity
  8
Layer_4
 62
7
100
AcDbSpline
 70
8
 71
3
 72
8
 73
4
 74
0
 40
0
 40
0
 40
0
 40
0
 40
1
 40
1
 40
1
 40
1
 10
280.553233
 20
41.221069
 30
0.0
 10
279.401233
 20
41.221069
 30
0.0
 10
277.073252
 20
40.957163
 30
0.0
 10
275.681242
 20
40.645069
 30
0.0
  0
LWPOLYLINE
  5
1d2
100
AcDbEntity
  8
Layer_4
 62
7
100
AcDbPolyline
 90
2
 70
0
 10
271.433271
 20
32.773144
 30
0.0
 10
271.433271
 20
38.773069
 30
0.0
  0
SPLINE
  5
1d3
100
AcDbEntity
  8
Layer_4
 62
7
100
AcDbSpline
 70
8
 71
3
 72
8
 73
4
 74
0
 40
0
 40
0
 40
0
 40
0
 40
1
 40
1
 40
1
 40
1
 10
275.945148
 20
38.581050
 30
0.0
 10
277.481157
 20
38.725050
 30
0.0
 10
279.089167
 20
38.821144
 30
0.0
 10
279.881167
 20
38.821144
 30
0.0
  0
SPLINE
  5
1d4
100
AcDbEntity
  8
Layer_4
 62
7
100
AcDbSpline
 70
8
 71
3
 72
8
 73
4
 74
0
 40
0
 40
0
 40
0
 40
0
 40
1
 40
1
 40
1
 40
1
 10
279.881167
 20
38.821144
 30
0.0
 10
281.129148
 20
38.821144
 30
0.0
 10
281.489148
 20
38.485154
 30
0.0
 10
281.513157
 20
37.141135
 30
0.0
  0
LWPOLYLINE
  5
1d5
100
AcDbEntity
  8
Layer_4
 62
7
100
AcDbPolyline
 90
2
 70
0
 10
275.681242
 20
40.645069
 30
0.0
 10
275.945148
 20
38.581050
 30
0.0
  0
SPLINE
  5
1d6
100
AcDbEntity
  8
Layer_4
 62
7
100
AcDbSpline
 70
8
 71
3
 72
8
 73
4
 74
0
 40
0
 40
0
 40
0
 40
0
 40
1
 40
1
 40
1
 40
1
 10
278.177148
 20
36.421135
 30
0.0
 10
276.305148
 20
36.421135
 30
0.0
 10
275.201167
 20
35.341135
 30
0.0
 10
275.201167
 20
33.469135
 30
0.0
  0
LWPOLYLINE
  5
1d7
100
AcDbEntity
  8
Layer_4
 62
7
100
AcDbPolyline
 90
3
 70
0
 10
281.513157
 20
37.141135
 30
0.0
 10
281.513157
 20
36.421135
 30
0.0
 10
278.177148
 20
36.421135
 30
0.0
  0
SPLINE
  5
1d8
100
AcDbEntity
  8
Layer_4
 62
7
100
AcDbSpline
 70
8
 71
3
 72
8
 73
4
 74
0
 40
0
 40
0
 40
0
 40
0
 40
1
 40
1
 40
1
 40
1
 10
275.201167
 20
32.269144
 30
0.0
 10
275.201167
 20
30.061154
 30
0.0
 10
276.569167
 20
28.861135
 30
0.0
 10
278.369167
 20
28.861135
 30
0.0
  0
SPLINE
  5
1d9
100
AcDbEntity
  8
Layer_4
 62
7
100
AcDbSpline
 70
8
 71
3
 72
8
 73
4
 74
0
 40
0
 40
0
 40
0
 40
0
 40
1
 40
1
 40
1
 40
1
 10
278.369167
 20
28.861135
 30
0.0
 10
280.073157
 20
28.861135
 30
0.0
 10
281.201148
 20
29.845125
 30
0.0
 10
281.849148
 20
30.733135
 30
0.0
  0
LWPOLYLINE
  5
1da
100
AcDbEntity
  8
Layer_4
 62
7
100
AcDbPolyline
 90
2
 70
0
 10
275.201167
 20
33.469135
 30
0.0
 10
275.201167
 20
32.269144
 30
0.0
  0
SPLINE
  5
1db
100
AcDbEntity
  8
Layer_4
 62
7
100
AcDbSpline
 70
8
 71
3
 72
8
 73
4
 74
0
 40
0
 40
0
 40
0
 40
0
 40
1
 40
1
 40
1
 40
1
 10
284.393044
 20
37.117154
 30
0.0
 10
284.393044
 20
40.261144
 30
0.0
 10
283.097044
 20
41.221154
 30
0.0
 10
280.553034
 20
41.221154
 30
0.0
  0
LWPOLYLINE
  5
1dc
100
AcDbEntity
  8
Layer_4
 62
7
100
AcDbPolyline
 90
4
 70
0
 10
281.849148
 20
30.733135
 30
0.0
 10
282.113053
 20
29.125125
 30
0.0
 10
284.393044
 20
29.125125
 30
0.0
 10
284.393044
 20
37.117154
 30
0.0
  0
SPLINE
  5
1dd
100
AcDbEntity
  8
Layer_4
 62
7
100
AcDbSpline
 70
8
 71
3
 72
8
 73
4
 74
0
 40
0
 40
0
 40
0
 40
0
 40
1
 40
1
 40
1
 40
1
 10
279.137242
 20
31.213069
 30
0.0
 10
278.417242
 20
31.213069
 30
0.0
 10
278.105233
 20
31.621059
 30
0.0
 10
278.105233
 20
32.653069
 30
0.0
  0
LWPOLYLINE
  5
1de
100
AcDbEntity
  8
Layer_4
 62
7
100
AcDbPolyline
 90
2
 70
0
 10
280.553034
 20
41.221154
 30
0.0
 10
280.553233
 20
41.221069
 30
0.0
  0
SPLINE
  5
1df
100
AcDbEntity
  8
Layer_4
 62
7
100
AcDbSpline
 70
8
 71
3
 72
8
 73
4
 74
0
 40
0
 40
0
 40
0
 40
0
 40
1
 40
1
 40
1
 40
1
 10
278.105233
 20
33.109050
 30
0.0
 10
278.105233
 20
33.901050
 30
0.0
 10
278.249233
 20
34.381069
 30
0.0
 10
278.945252
 20
34.429059
 30
0.0
  0
LWPOLYLINE
  5
1e0
100
AcDbEntity
  8
Layer_4
 62
7
100
AcDbPolyline
 90
2
 70
0
 10
278.105233
 20
32.653069
 30
0.0
 10
278.105233
 20
33.109050
 30
0.0
  0
SPLINE
  5
1e1
100
AcDbEntity
  8
Layer_4
 62
7
100
AcDbSpline
 70
8
 71
3
 72
8
 73
4
 74
0
 40
0
 40
0
 40
0
 40
0
 40
1
 40
1
 40
1
 40
1
 10
281.513242
 20
32.413059
 30
0.0
 10
280.649242
 20
31.573069
 30
0.0
 10
279.761233
 20
31.213069
 30
0.0
 10
279.137242
 20
31.213069
 30
0.0
  0
LWPOLYLINE
  5
1e2
100
AcDbEntity
  8
Layer_4
 62
7
100
AcDbPolyline
 90
3
 70
0
 10
278.945252
 20
34.429059
 30
0.0
 10
281.513242
 20
34.429059
 30
0.0
 10
281.513242
 20
32.413059
 30
0.0
  0
SPLINE
  5
1e3
100
AcDbEntity
  8
Layer_4
 62
7
100
AcDbSpline
 70
8
 71
3
 72
8
 73
4
 74
0
 40
0
 40
0
 40
0
 40
0
 40
1
 40
1
 40
1
 40
1
 10
301.673186
 20
45.685069
 30
0.0
 10
301.001176
 20
45.685069
 30
0.0
 10
300.593186
 20
45.349050
 30
0.0
 10
300.449186
 20
44.677069
 30
0.0
  0
LWPOLYLINE
  5
1e4
100
AcDbEntity
  8
Layer_4
 62
7
100
AcDbPolyline
 90
1
 70
1
 10
279.137242
 20
31.213069
 30
0.0
  0
SPLINE
  5
1e5
100
AcDbEntity
  8
Layer_4
 62
7
100
AcDbSpline
 70
8
 71
3
 72
8
 73
4
 74
0
 40
0
 40
0
 40
0
 40
0
 40
1
 40
1
 40
1
 40
1
 10
298.961167
 20
35.725059
 30
0.0
 10
298.841261
 20
34.933059
 30
0.0
 10
298.745167
 20
34.213059
 30
0.0
 10
298.649186
 20
33.445069
 30
0.0
  0
LWPOLYLINE
  5
1e6
100
AcDbEntity
  8
Layer_4
 62
7
100
AcDbPolyline
 90
2
 70
0
 10
300.449186
 20
44.677069
 30
0.0
 10
298.961167
 20
35.725059
 30
0.0
  0
SPLINE
  5
1e7
100
AcDbEntity
  8
Layer_4
 62
7
100
AcDbSpline
 70
8
 71
3
 72
8
 73
4
 74
0
 40
0
 40
0
 40
0
 40
0
 40
1
 40
1
 40
1
 40
1
 10
298.409091
 20
33.445069
 30
0.0
 10
298.312997
 20
34.213059
 30
0.0
 10
298.193091
 20
34.933059
 30
0.0
 10
298.073100
 20
35.725059
 30
0.0
  0
LWPOLYLINE
  5
1e8
100
AcDbEntity
  8
Layer_4
 62
7
100
AcDbPolyline
 90
2
 70
0
 10
298.649186
 20
33.445069
 30
0.0
 10
298.409091
 20
33.445069
 30
0.0
  0
SPLINE
  5
1e9
100
AcDbEntity
  8
Layer_4
 62
7
100
AcDbSpline
 70
8
 71
3
 72
8
 73
4
 74
0
 40
0
 40
0
 40
0
 40
0
 40
1
 40
1
 40
1
 40
1
 10
296.585082
 20
44.677069
 30
0.0
 10
296.441082
 20
45.349050
 30
0.0
 10
296.057100
 20
45.685069
 30
0.0
 10
295.409100
 20
45.685069
 30
0.0
  0
LWPOLYLINE
  5
1ea
100
AcDbEntity
  8
Layer_4
 62
7
100
AcDbPolyline
 90
2
 70
0
 10
298.073100
 20
35.725059
 30
0.0
 10
296.585082
 20
44.677069
 30
0.0
  0
SPLINE
  5
1eb
100
AcDbEntity
  8
Layer_4
 62
7
100
AcDbSpline
 70
8
 71
3
 72
8
 73
4
 74
0
 40
0
 40
0
 40
0
 40
0
 40
1
 40
1
 40
1
 40
1
 10
292.433091
 20
45.685069
 30
0.0
 10
291.713091
 20
45.685069
 30
0.0
 10
291.329082
 20
45.277050
 30
0.0
 10
291.305100
 20
44.509059
 30
0.0
  0
LWPOLYLINE
  5
1ec
100
AcDbEntity
  8
Layer_4
 62
7
100
AcDbPolyline
 90
2
 70
0
 10
295.409100
 20
45.685069
 30
0.0
 10
292.433091
 20
45.685069
 30
0.0
  0
SPLINE
  5
1ed
100
AcDbEntity
  8
Layer_4
 62
7
100
AcDbSpline
 70
8
 71
3
 72
8
 73
4
 74
0
 40
0
 40
0
 40
0
 40
0
 40
1
 40
1
 40
1
 40
1
 10
296.249091
 20
32.245050
 30
0.0
 10
296.417186
 20
31.573069
 30
0.0
 10
296.801082
 20
31.237050
 30
0.0
 10
297.497100
 20
31.237050
 30
0.0
  0
LWPOLYLINE
  5
1ee
100
AcDbEntity
  8
Layer_4
 62
7
100
AcDbPolyline
 90
6
 70
0
 10
291.305100
 20
44.509059
 30
0.0
 10
290.825082
 20
29.125040
 30
0.0
 10
293.681100
 20
29.125040
 30
0.0
 10
294.041100
 20
43.261050
 30
0.0
 10
294.401100
 20
43.261050
 30
0.0
 10
296.249091
 20
32.245050
 30
0.0
  0
SPLINE
  5
1ef
100
AcDbEntity
  8
Layer_4
 62
7
100
AcDbSpline
 70
8
 71
3
 72
8
 73
4
 74
0
 40
0
 40
0
 40
0
 40
0
 40
1
 40
1
 40
1
 40
1
 10
299.585100
 20
31.237050
 30
0.0
 10
300.257082
 20
31.237050
 30
0.0
 10
300.665100
 20
31.573069
 30
0.0
 10
300.809100
 20
32.245050
 30
0.0
  0
LWPOLYLINE
  5
1f0
100
AcDbEntity
  8
Layer_4
 62
7
100
AcDbPolyline
 90
2
 70
0
 10
297.497100
 20
31.237050
 30
0.0
 10
299.585100
 20
31.237050
 30
0.0
  0
SPLINE
  5
1f1
100
AcDbEntity
  8
Layer_4
 62
7
100
AcDbSpline
 70
8
 71
3
 72
8
 73
4
 74
0
 40
0
 40
0
 40
0
 40
0
 40
1
 40
1
 40
1
 40
1
 10
305.753091
 20
44.509059
 30
0.0
 10
305.730414
 20
45.277050
 30
0.0
 10
305.369082
 20
45.685069
 30
0.0
 10
304.601091
 20
45.685069
 30
0.0
  0
LWPOLYLINE
  5
1f2
100
AcDbEntity
  8
Layer_4
 62
7
100
AcDbPolyline
 90
6
 70
0
 10
300.809100
 20
32.245050
 30
0.0
 10
302.633082
 20
43.261050
 30
0.0
 10
302.993082
 20
43.261050
 30
0.0
 10
303.425082
 20
29.125040
 30
0.0
 10
306.281100
 20
29.125040
 30
0.0
 10
305.753091
 20
44.509059
 30
0.0
  0
SPLINE
  5
1f3
100
AcDbEntity
  8
Layer_4
 62
7
100
AcDbSpline
 70
8
 71
3
 72
8
 73
4
 74
0
 40
0
 40
0
 40
0
 40
0
 40
1
 40
1
 40
1
 40
1
 10
309.401138
 20
45.997050
 30
0.0
 10
308.849148
 20
45.997050
 30
0.0
 10
308.585157
 20
45.685069
 30
0.0
 10
308.585157
 20
45.157059
 30
0.0
  0
LWPOLYLINE
  5
1f4
100
AcDbEntity
  8
Layer_4
 62
7
100
AcDbPolyline
 90
2
 70
0
 10
304.601091
 20
45.685069
 30
0.0
 10
301.673186
 20
45.685069
 30
0.0
  0
SPLINE
  5
1f5
100
AcDbEntity
  8
Layer_4
 62
7
100
AcDbSpline
 70
8
 71
3
 72
8
 73
4
 74
0
 40
0
 40
0
 40
0
 40
0
 40
1
 40
1
 40
1
 40
1
 10
308.585157
 20
43.837050
 30
0.0
 10
308.585157
 20
43.285059
 30
0.0
 10
308.849063
 20
42.997059
 30
0.0
 10
309.401138
 20
42.997059
 30
0.0
  0
LWPOLYLINE
  5
1f6
100
AcDbEntity
  8
Layer_4
 62
7
100
AcDbPolyline
 90
2
 70
0
 10
308.585157
 20
45.157059
 30
0.0
 10
308.585157
 20
43.837050
 30
0.0
  0
SPLINE
  5
1f7
100
AcDbEntity
  8
Layer_4
 62
7
100
AcDbSpline
 70
8
 71
3
 72
8
 73
4
 74
0
 40
0
 40
0
 40
0
 40
0
 40
1
 40
1
 40
1
 40
1
 10
310.721148
 20
42.997059
 30
0.0
 10
311.273138
 20
42.997059
 30
0.0
 10
311.561138
 20
43.285059
 30
0.0
 10
311.561138
 20
43.837050
 30
0.0
  0
LWPOLYLINE
  5
1f8
100
AcDbEntity
  8
Layer_4
 62
7
100
AcDbPolyline
 90
2
 70
0
 10
309.401138
 20
42.997059
 30
0.0
 10
310.721148
 20
42.997059
 30
0.0
  0
SPLINE
  5
1f9
100
AcDbEntity
  8
Layer_4
 62
7
100
AcDbSpline
 70
8
 71
3
 72
8
 73
4
 74
0
 40
0
 40
0
 40
0
 40
0
 40
1
 40
1
 40
1
 40
1
 10
311.561138
 20
45.157059
 30
0.0
 10
311.561138
 20
45.685069
 30
0.0
 10
311.273138
 20
45.997050
 30
0.0
 10
310.721148
 20
45.997050
 30
0.0
  0
LWPOLYLINE
  5
1fa
100
AcDbEntity
  8
Layer_4
 62
7
100
AcDbPolyline
 90
2
 70
0
 10
311.561138
 20
43.837050
 30
0.0
 10
311.561138
 20
45.157059
 30
0.0
  0
LWPOLYLINE
  5
1fb
100
AcDbEntity
  8
Layer_4
 62
7
100
AcDbPolyline
 90
2
 70
0
 10
310.721148
 20
45.997050
 30
0.0
 10
309.401138
 20
45.997050
 30
0.0
  0
SPLINE
  5
1fc
100
AcDbEntity
  8
Layer_4
 62
7
100
AcDbSpline
 70
8
 71
3
 72
8
 73
4
 74
0
 40
0
 40
0
 40
0
 40
0
 40
1
 40
1
 40
1
 40
1
 10
320.609157
 20
41.221069
 30
0.0
 10
319.241157
 20
41.221069
 30
0.0
 10
317.873157
 20
40.453050
 30
0.0
 10
316.553148
 20
39.157050
 30
0.0
  0
LWPOLYLINE
  5
1fd
100
AcDbEntity
  8
Layer_4
 62
7
100
AcDbPolyline
 90
4
 70
1
 10
311.513148
 20
29.125040
 30
0.0
 10
311.513148
 20
40.885050
 30
0.0
 10
308.633148
 20
40.885050
 30
0.0
 10
308.633148
 20
29.125040
 30
0.0
  0
SPLINE
  5
1fe
100
AcDbEntity
  8
Layer_4
 62
7
100
AcDbSpline
 70
8
 71
3
 72
8
 73
4
 74
0
 40
0
 40
0
 40
0
 40
0
 40
1
 40
1
 40
1
 40
1
 10
316.842565
 20
37.357050
 30
0.0
 10
318.018574
 20
38.245059
 30
0.0
 10
318.810574
 20
38.749059
 30
0.0
 10
319.602574
 20
38.749059
 30
0.0
  0
SPLINE
  5
1ff
100
AcDbEntity
  8
Layer_4
 62
7
100
AcDbSpline
 70
8
 71
3
 72
8
 73
4
 74
0
 40
0
 40
0
 40
0
 40
0
 40
1
 40
1
 40
1
 40
1
 10
319.602574
 20
38.749059
 30
0.0
 10
320.226565
 20
38.749059
 30
0.0
 10
320.394574
 20
38.389059
 30
0.0
 10
320.394574
 20
37.069050
 30
0.0
  0
LWPOLYLINE
  5
200
100
AcDbEntity
  8
Layer_4
 62
7
100
AcDbPolyline
 90
6
 70
0
 10
316.553148
 20
39.157050
 30
0.0
 10
316.361242
 20
40.885050
 30
0.0
 10
313.961233
 20
40.885050
 30
0.0
 10
313.961233
 20
29.125040
 30
0.0
 10
316.865242
 20
29.125040
 30
0.0
 10
316.842565
 20
37.357050
 30
0.0
  0
SPLINE
  5
201
100
AcDbEntity
  8
Layer_4
 62
7
100
AcDbSpline
 70
8
 71
3
 72
8
 73
4
 74
0
 40
0
 40
0
 40
0
 40
0
 40
1
 40
1
 40
1
 40
1
 10
323.274574
 20
37.957059
 30
0.0
 10
323.274574
 20
40.069069
 30
0.0
 10
322.338574
 20
41.221069
 30
0.0
 10
320.610574
 20
41.221069
 30
0.0
  0
LWPOLYLINE
  5
202
100
AcDbEntity
  8
Layer_4
 62
7
100
AcDbPolyline
 90
4
 70
0
 10
320.394574
 20
37.069050
 30
0.0
 10
320.394574
 20
29.125040
 30
0.0
 10
323.274574
 20
29.125040
 30
0.0
 10
323.274574
 20
37.957059
 30
0.0
  0
SPLINE
  5
203
100
AcDbEntity
  8
Layer_4
 62
7
100
AcDbSpline
 70
8
 71
3
 72
8
 73
4
 74
0
 40
0
 40
0
 40
0
 40
0
 40
1
 40
1
 40
1
 40
1
 10
330.473129
 20
31.237050
 30
0.0
 10
329.009148
 20
31.237050
 30
0.0
 10
328.385129
 20
31.645069
 30
0.0
 10
328.241129
 20
33.781059
 30
0.0
  0
LWPOLYLINE
  5
204
100
AcDbEntity
  8
Layer_4
 62
7
100
AcDbPolyline
 90
2
 70
0
 10
320.610574
 20
41.221069
 30
0.0
 10
320.609157
 20
41.221069
 30
0.0
  0
SPLINE
  5
205
100
AcDbEntity
  8
Layer_4
 62
7
100
AcDbSpline
 70
8
 71
3
 72
8
 73
4
 74
0
 40
0
 40
0
 40
0
 40
0
 40
1
 40
1
 40
1
 40
1
 10
331.745148
 20
33.781059
 30
0.0
 10
333.665138
 20
33.781059
 30
0.0
 10
334.529138
 20
35.029069
 30
0.0
 10
334.529138
 20
37.141050
 30
0.0
  0
SPLINE
  5
206
100
AcDbEntity
  8
Layer_4
 62
7
100
AcDbSpline
 70
8
 71
3
 72
8
 73
4
 74
0
 40
0
 40
0
 40
0
 40
0
 40
1
 40
1
 40
1
 40
1
 10
334.529138
 20
37.141050
 30
0.0
 10
334.529138
 20
39.805050
 30
0.0
 10
333.281157
 20
41.221069
 30
0.0
 10
329.993138
 20
41.221069
 30
0.0
  0
SPLINE
  5
207
100
AcDbEntity
  8
Layer_4
 62
7
100
AcDbSpline
 70
8
 71
3
 72
8
 73
4
 74
0
 40
0
 40
0
 40
0
 40
0
 40
1
 40
1
 40
1
 40
1
 10
329.993138
 20
41.221069
 30
0.0
 10
326.609138
 20
41.221069
 30
0.0
 10
325.169138
 20
39.685059
 30
0.0
 10
325.169138
 20
35.029069
 30
0.0
  0
SPLINE
  5
208
100
AcDbEntity
  8
Layer_4
 62
7
100
AcDbSpline
 70
8
 71
3
 72
8
 73
4
 74
0
 40
0
 40
0
 40
0
 40
0
 40
1
 40
1
 40
1
 40
1
 10
325.169138
 20
35.029069
 30
0.0
 10
325.169138
 20
30.541059
 30
0.0
 10
326.513129
 20
28.837040
 30
0.0
 10
330.113129
 20
28.837040
 30
0.0
  0
SPLINE
  5
209
100
AcDbEntity
  8
Layer_4
 62
7
100
AcDbSpline
 70
8
 71
3
 72
8
 73
4
 74
0
 40
0
 40
0
 40
0
 40
0
 40
1
 40
1
 40
1
 40
1
 10
330.113129
 20
28.837040
 30
0.0
 10
331.433138
 20
28.837040
 30
0.0
 10
333.137157
 20
29.028946
 30
0.0
 10
334.265148
 20
29.629040
 30
0.0
  0
LWPOLYLINE
  5
20a
100
AcDbEntity
  8
Layer_4
 62
7
100
AcDbPolyline
 90
2
 70
0
 10
328.241129
 20
33.781059
 30
0.0
 10
331.745148
 20
33.781059
 30
0.0
  0
SPLINE
  5
20b
100
AcDbEntity
  8
Layer_4
 62
7
100
AcDbSpline
 70
8
 71
3
 72
8
 73
4
 74
0
 40
0
 40
0
 40
0
 40
0
 40
1
 40
1
 40
1
 40
1
 10
334.025053
 20
31.501069
 30
0.0
 10
332.729053
 20
31.332974
 30
0.0
 10
331.313063
 20
31.237163
 30
0.0
 10
330.473044
 20
31.237163
 30
0.0
  0
LWPOLYLINE
  5
20c
100
AcDbEntity
  8
Layer_4
 62
7
100
AcDbPolyline
 90
2
 70
0
 10
334.265148
 20
29.629040
 30
0.0
 10
334.025053
 20
31.501069
 30
0.0
  0
SPLINE
  5
20d
100
AcDbEntity
  8
Layer_4
 62
7
100
AcDbSpline
 70
8
 71
3
 72
8
 73
4
 74
0
 40
0
 40
0
 40
0
 40
0
 40
1
 40
1
 40
1
 40
1
 10
330.113129
 20
38.917069
 30
0.0
 10
331.361138
 20
38.917069
 30
0.0
 10
331.673148
 20
38.437050
 30
0.0
 10
331.649138
 20
37.189069
 30
0.0
  0
SPLINE
  5
20e
100
AcDbEntity
  8
Layer_4
 62
7
100
AcDbSpline
 70
8
 71
3
 72
8
 73
4
 74
0
 40
0
 40
0
 40
0
 40
0
 40
1
 40
1
 40
1
 40
1
 10
331.649138
 20
37.189069
 30
0.0
 10
331.649138
 20
36.565050
 30
0.0
 10
331.626461
 20
35.821069
 30
0.0
 10
330.929138
 20
35.821069
 30
0.0
  0
LWPOLYLINE
  5
20f
100
AcDbEntity
  8
Layer_4
 62
7
100
AcDbPolyline
 90
2
 70
0
 10
330.473044
 20
31.237163
 30
0.0
 10
330.473129
 20
31.237050
 30
0.0
  0
SPLINE
  5
210
100
AcDbEntity
  8
Layer_4
 62
7
100
AcDbSpline
 70
8
 71
3
 72
8
 73
4
 74
0
 40
0
 40
0
 40
0
 40
0
 40
1
 40
1
 40
1
 40
1
 10
328.193138
 20
35.821069
 30
0.0
 10
328.241044
 20
38.293050
 30
0.0
 10
328.673129
 20
38.917069
 30
0.0
 10
330.113129
 20
38.917069
 30
0.0
  0
LWPOLYLINE
  5
211
100
AcDbEntity
  8
Layer_4
 62
7
100
AcDbPolyline
 90
2
 70
0
 10
330.929138
 20
35.821069
 30
0.0
 10
328.193138
 20
35.821069
 30
0.0
  0
SPLINE
  5
212
100
AcDbEntity
  8
Layer_4
 62
7
100
AcDbSpline
 70
8
 71
3
 72
8
 73
4
 74
0
 40
0
 40
0
 40
0
 40
0
 40
1
 40
1
 40
1
 40
1
 10
339.977100
 20
41.221069
 30
0.0
 10
337.001119
 20
41.221069
 30
0.0
 10
335.945100
 20
40.477059
 30
0.0
 10
335.945100
 20
37.885059
 30
0.0
  0
SPLINE
  5
213
100
AcDbEntity
  8
Layer_4
 62
7
100
AcDbSpline
 70
8
 71
3
 72
8
 73
4
 74
0
 40
0
 40
0
 40
0
 40
0
 40
1
 40
1
 40
1
 40
1
 10
335.945100
 20
37.885059
 30
0.0
 10
335.945100
 20
36.013059
 30
0.0
 10
336.449100
 20
35.029069
 30
0.0
 10
338.249100
 20
34.429059
 30
0.0
  0
LWPOLYLINE
  5
214
100
AcDbEntity
  8
Layer_4
 62
7
100
AcDbPolyline
 90
1
 70
1
 10
330.113129
 20
38.917069
 30
0.0
  0
SPLINE
  5
215
100
AcDbEntity
  8
Layer_4
 62
7
100
AcDbSpline
 70
8
 71
3
 72
8
 73
4
 74
0
 40
0
 40
0
 40
0
 40
0
 40
1
 40
1
 40
1
 40
1
 10
340.601119
 20
33.589069
 30
0.0
 10
341.513110
 20
33.277059
 30
0.0
 10
341.945110
 20
33.205059
 30
0.0
 10
341.945110
 20
32.317050
 30
0.0
  0
SPLINE
  5
216
100
AcDbEntity
  8
Layer_4
 62
7
100
AcDbSpline
 70
8
 71
3
 72
8
 73
4
 74
0
 40
0
 40
0
 40
0
 40
0
 40
1
 40
1
 40
1
 40
1
 10
341.945110
 20
32.317050
 30
0.0
 10
341.945110
 20
31.381050
 30
0.0
 10
341.489100
 20
31.189059
 30
0.0
 10
339.545100
 20
31.189059
 30
0.0
  0
SPLINE
  5
217
100
AcDbEntity
  8
Layer_4
 62
7
100
AcDbSpline
 70
8
 71
3
 72
8
 73
4
 74
0
 40
0
 40
0
 40
0
 40
0
 40
1
 40
1
 40
1
 40
1
 10
339.545100
 20
31.189059
 30
0.0
 10
338.321100
 20
31.189059
 30
0.0
 10
336.929119
 20
31.211736
 30
0.0
 10
336.281119
 20
31.261059
 30
0.0
  0
LWPOLYLINE
  5
218
100
AcDbEntity
  8
Layer_4
 62
7
100
AcDbPolyline
 90
2
 70
0
 10
338.249100
 20
34.429059
 30
0.0
 10
340.601119
 20
33.589069
 30
0.0
  0
SPLINE
  5
219
100
AcDbEntity
  8
Layer_4
 62
7
100
AcDbSpline
 70
8
 71
3
 72
8
 73
4
 74
0
 40
0
 40
0
 40
0
 40
0
 40
1
 40
1
 40
1
 40
1
 10
336.113025
 20
29.245059
 30
0.0
 10
337.937034
 20
28.885059
 30
0.0
 10
339.689015
 20
28.861050
 30
0.0
 10
340.313034
 20
28.861050
 30
0.0
  0
SPLINE
  5
21a
100
AcDbEntity
  8
Layer_4
 62
7
100
AcDbSpline
 70
8
 71
3
 72
8
 73
4
 74
0
 40
0
 40
0
 40
0
 40
0
 40
1
 40
1
 40
1
 40
1
 10
340.313034
 20
28.861050
 30
0.0
 10
343.457025
 20
28.861050
 30
0.0
 10
344.729044
 20
29.461059
 30
0.0
 10
344.729044
 20
32.341059
 30
0.0
  0
SPLINE
  5
21b
100
AcDbEntity
  8
Layer_4
 62
7
100
AcDbSpline
 70
8
 71
3
 72
8
 73
4
 74
0
 40
0
 40
0
 40
0
 40
0
 40
1
 40
1
 40
1
 40
1
 10
344.729044
 20
32.341059
 30
0.0
 10
344.729044
 20
34.405050
 30
0.0
 10
344.009044
 20
35.173069
 30
0.0
 10
342.377025
 20
35.725059
 30
0.0
  0
LWPOLYLINE
  5
21c
100
AcDbEntity
  8
Layer_4
 62
7
100
AcDbPolyline
 90
2
 70
0
 10
336.281119
 20
31.261059
 30
0.0
 10
336.113025
 20
29.245059
 30
0.0
  0
SPLINE
  5
21d
100
AcDbEntity
  8
Layer_4
 62
7
100
AcDbSpline
 70
8
 71
3
 72
8
 73
4
 74
0
 40
0
 40
0
 40
0
 40
0
 40
1
 40
1
 40
1
 40
1
 10
339.977015
 20
36.589059
 30
0.0
 10
339.089034
 20
36.901069
 30
0.0
 10
338.753015
 20
36.925050
 30
0.0
 10
338.753015
 20
37.861050
 30
0.0
  0
SPLINE
  5
21e
100
AcDbEntity
  8
Layer_4
 62
7
100
AcDbSpline
 70
8
 71
3
 72
8
 73
4
 74
0
 40
0
 40
0
 40
0
 40
0
 40
1
 40
1
 40
1
 40
1
 10
338.753015
 20
37.861050
 30
0.0
 10
338.753015
 20
38.845069
 30
0.0
 10
339.041015
 20
38.869050
 30
0.0
 10
340.529034
 20
38.869050
 30
0.0
  0
SPLINE
  5
21f
100
AcDbEntity
  8
Layer_4
 62
7
100
AcDbSpline
 70
8
 71
3
 72
8
 73
4
 74
0
 40
0
 40
0
 40
0
 40
0
 40
1
 40
1
 40
1
 40
1
 10
340.529034
 20
38.869050
 30
0.0
 10
341.729025
 20
38.869050
 30
0.0
 10
342.953025
 20
38.821144
 30
0.0
 10
344.201034
 20
38.772955
 30
0.0
  0
LWPOLYLINE
  5
220
100
AcDbEntity
  8
Layer_4
 62
7
100
AcDbPolyline
 90
2
 70
0
 10
342.377025
 20
35.725059
 30
0.0
 10
339.977015
 20
36.589059
 30
0.0
  0
SPLINE
  5
221
100
AcDbEntity
  8
Layer_4
 62
7
100
AcDbSpline
 70
8
 71
3
 72
8
 73
4
 74
0
 40
0
 40
0
 40
0
 40
0
 40
1
 40
1
 40
1
 40
1
 10
344.392940
 20
40.788955
 30
0.0
 10
343.216959
 20
41.029050
 30
0.0
 10
341.344930
 20
41.196946
 30
0.0
 10
339.976930
 20
41.220955
 30
0.0
  0
LWPOLYLINE
  5
222
100
AcDbEntity
  8
Layer_4
 62
7
100
AcDbPolyline
 90
2
 70
0
 10
344.201034
 20
38.772955
 30
0.0
 10
344.392940
 20
40.788955
 30
0.0
  0
SPLINE
  5
223
100
AcDbEntity
  8
Layer_4
 62
7
100
AcDbSpline
 70
8
 71
3
 72
8
 73
4
 74
0
 40
0
 40
0
 40
0
 40
0
 40
1
 40
1
 40
1
 40
1
 10
171.571641
 20
95.580062
 30
0.0
 10
164.668801
 20
95.580062
 30
0.0
 10
162.056901
 20
92.146047
 30
0.0
 10
162.056901
 20
83.053144
 30
0.0
  0
SPLINE
  5
224
100
AcDbEntity
  8
Layer_4
 62
7
100
AcDbSpline
 70
8
 71
3
 72
8
 73
4
 74
0
 40
0
 40
0
 40
0
 40
0
 40
1
 40
1
 40
1
 40
1
 10
162.056901
 20
83.053144
 30
0.0
 10
162.056901
 20
73.960261
 30
0.0
 10
164.668801
 20
70.574615
 30
0.0
 10
171.571641
 20
70.574615
 30
0.0
  0
SPLINE
  5
225
100
AcDbEntity
  8
Layer_4
 62
7
100
AcDbSpline
 70
8
 71
3
 72
8
 73
4
 74
0
 40
0
 40
0
 40
0
 40
0
 40
1
 40
1
 40
1
 40
1
 10
171.571641
 20
70.574615
 30
0.0
 10
178.521108
 20
70.574615
 30
0.0
 10
181.133007
 20
73.960261
 30
0.0
 10
181.133007
 20
83.053144
 30
0.0
  0
SPLINE
  5
226
100
AcDbEntity
  8
Layer_4
 62
7
100
AcDbSpline
 70
8
 71
3
 72
8
 73
4
 74
0
 40
0
 40
0
 40
0
 40
0
 40
1
 40
1
 40
1
 40
1
 10
181.133007
 20
83.053144
 30
0.0
 10
181.133007
 20
92.146047
 30
0.0
 10
178.521108
 20
95.580062
 30
0.0
 10
171.571641
 20
95.580062
 30
0.0
  0
LWPOLYLINE
  5
227
100
AcDbEntity
  8
Layer_4
 62
7
100
AcDbPolyline
 90
2
 70
0
 10
339.976930
 20
41.220955
 30
0.0
 10
339.977100
 20
41.221069
 30
0.0
  0
SPLINE
  5
228
100
AcDbEntity
  8
Layer_4
 62
7
100
AcDbSpline
 70
8
 71
3
 72
8
 73
4
 74
0
 40
0
 40
0
 40
0
 40
0
 40
1
 40
1
 40
1
 40
1
 10
171.618386
 20
90.888519
 30
0.0
 10
174.510122
 20
90.888519
 30
0.0
 10
175.256375
 20
89.195693
 30
0.0
 10
175.256375
 20
83.053144
 30
0.0
  0
SPLINE
  5
229
100
AcDbEntity
  8
Layer_4
 62
7
100
AcDbSpline
 70
8
 71
3
 72
8
 73
4
 74
0
 40
0
 40
0
 40
0
 40
0
 40
1
 40
1
 40
1
 40
1
 10
175.256375
 20
83.053144
 30
0.0
 10
175.256375
 20
76.958987
 30
0.0
 10
174.510122
 20
75.266151
 30
0.0
 10
171.618386
 20
75.266151
 30
0.0
  0
SPLINE
  5
22a
100
AcDbEntity
  8
Layer_4
 62
7
100
AcDbSpline
 70
8
 71
3
 72
8
 73
4
 74
0
 40
0
 40
0
 40
0
 40
0
 40
1
 40
1
 40
1
 40
1
 10
171.618386
 20
75.266151
 30
0.0
 10
168.726674
 20
75.266151
 30
0.0
 10
167.980421
 20
76.958987
 30
0.0
 10
167.980421
 20
83.053144
 30
0.0
  0
SPLINE
  5
22b
100
AcDbEntity
  8
Layer_4
 62
7
100
AcDbSpline
 70
8
 71
3
 72
8
 73
4
 74
0
 40
0
 40
0
 40
0
 40
0
 40
1
 40
1
 40
1
 40
1
 10
167.980421
 20
83.053144
 30
0.0
 10
167.980421
 20
89.195693
 30
0.0
 10
168.726674
 20
90.888519
 30
0.0
 10
171.618386
 20
90.888519
 30
0.0
  0
LWPOLYLINE
  5
22c
100
AcDbEntity
  8
Layer_4
 62
7
100
AcDbPolyline
 90
1
 70
1
 10
171.571641
 20
95.580062
 30
0.0
  0
SPLINE
  5
22d
100
AcDbEntity
  8
Layer_4
 62
7
100
AcDbSpline
 70
8
 71
3
 72
8
 73
4
 74
0
 40
0
 40
0
 40
0
 40
0
 40
1
 40
1
 40
1
 40
1
 10
194.070801
 20
95.580062
 30
0.0
 10
187.261239
 20
95.580062
 30
0.0
 10
184.742642
 20
92.242779
 30
0.0
 10
184.742642
 20
83.101521
 30
0.0
  0
SPLINE
  5
22e
100
AcDbEntity
  8
Layer_4
 62
7
100
AcDbSpline
 70
8
 71
3
 72
8
 73
4
 74
0
 40
0
 40
0
 40
0
 40
0
 40
1
 40
1
 40
1
 40
1
 10
184.742642
 20
83.101521
 30
0.0
 10
184.742642
 20
73.911908
 30
0.0
 10
187.214588
 20
70.622992
 30
0.0
 10
194.024149
 20
70.622992
 30
0.0
  0
SPLINE
  5
22f
100
AcDbEntity
  8
Layer_4
 62
7
100
AcDbSpline
 70
8
 71
3
 72
8
 73
4
 74
0
 40
0
 40
0
 40
0
 40
0
 40
1
 40
1
 40
1
 40
1
 10
194.024149
 20
70.622992
 30
0.0
 10
196.542746
 20
70.622992
 30
0.0
 10
199.201273
 20
71.058289
 30
0.0
 10
201.206825
 20
72.073966
 30
0.0
  0
LWPOLYLINE
  5
230
100
AcDbEntity
  8
Layer_4
 62
7
100
AcDbPolyline
 90
1
 70
1
 10
171.618386
 20
90.888519
 30
0.0
  0
SPLINE
  5
231
100
AcDbEntity
  8
Layer_4
 62
7
100
AcDbSpline
 70
8
 71
3
 72
8
 73
4
 74
0
 40
0
 40
0
 40
0
 40
0
 40
1
 40
1
 40
1
 40
1
 10
200.740432
 20
75.943285
 30
0.0
 10
198.594950
 20
75.556366
 30
0.0
 10
196.216259
 20
75.459636
 30
0.0
 10
195.050239
 20
75.459636
 30
0.0
  0
SPLINE
  5
232
100
AcDbEntity
  8
Layer_4
 62
7
100
AcDbSpline
 70
8
 71
3
 72
8
 73
4
 74
0
 40
0
 40
0
 40
0
 40
0
 40
1
 40
1
 40
1
 40
1
 10
195.050239
 20
75.459636
 30
0.0
 10
191.738761
 20
75.459636
 30
0.0
 10
190.666020
 20
77.152446
 30
0.0
 10
190.666020
 20
83.101521
 30
0.0
  0
SPLINE
  5
233
100
AcDbEntity
  8
Layer_4
 62
7
100
AcDbSpline
 70
8
 71
3
 72
8
 73
4
 74
0
 40
0
 40
0
 40
0
 40
0
 40
1
 40
1
 40
1
 40
1
 10
190.666020
 20
83.101521
 30
0.0
 10
190.666020
 20
89.002228
 30
0.0
 10
191.738761
 20
90.646686
 30
0.0
 10
195.050239
 20
90.646686
 30
0.0
  0
SPLINE
  5
234
100
AcDbEntity
  8
Layer_4
 62
7
100
AcDbSpline
 70
8
 71
3
 72
8
 73
4
 74
0
 40
0
 40
0
 40
0
 40
0
 40
1
 40
1
 40
1
 40
1
 10
195.050239
 20
90.646686
 30
0.0
 10
196.449468
 20
90.646686
 30
0.0
 10
198.315113
 20
90.598309
 30
0.0
 10
200.320666
 20
90.549956
 30
0.0
  0
LWPOLYLINE
  5
235
100
AcDbEntity
  8
Layer_4
 62
7
100
AcDbPolyline
 90
2
 70
0
 10
201.206825
 20
72.073966
 30
0.0
 10
200.740432
 20
75.943285
 30
0.0
  0
SPLINE
  5
236
100
AcDbEntity
  8
Layer_4
 62
7
100
AcDbSpline
 70
8
 71
3
 72
8
 73
4
 74
0
 40
0
 40
0
 40
0
 40
0
 40
1
 40
1
 40
1
 40
1
 10
200.973640
 20
94.225804
 30
0.0
 10
198.921437
 20
95.241500
 30
0.0
 10
196.029701
 20
95.580065
 30
0.0
 10
194.070801
 20
95.580062
 30
0.0
  0
LWPOLYLINE
  5
237
100
AcDbEntity
  8
Layer_4
 62
7
100
AcDbPolyline
 90
2
 70
0
 10
200.320666
 20
90.549956
 30
0.0
 10
200.973640
 20
94.225804
 30
0.0
  0
LWPOLYLINE
  5
238
100
AcDbEntity
  8
Layer_4
 62
7
100
AcDbPolyline
 90
1
 70
1
 10
194.070801
 20
95.580062
 30
0.0
  0
SPLINE
  5
239
100
AcDbEntity
  8
Layer_4
 62
7
100
AcDbSpline
 70
8
 71
3
 72
8
 73
4
 74
0
 40
0
 40
0
 40
0
 40
0
 40
1
 40
1
 40
1
 40
1
 10
218.342280
 20
82.134197
 30
0.0
 10
217.875863
 20
83.004791
 30
0.0
 10
217.082982
 20
84.068850
 30
0.0
 10
216.616564
 20
84.407417
 30
0.0
  0
LWPOLYLINE
  5
23a
100
AcDbEntity
  8
Layer_4
 62
7
100
AcDbPolyline
 90
4
 70
0
 10
212.092415
 20
82.521117
 30
0.0
 10
217.409469
 20
71.203372
 30
0.0
 10
223.705962
 20
71.203372
 30
0.0
 10
218.342280
 20
82.134197
 30
0.0
  0
SPLINE
  5
23b
100
AcDbEntity
  8
Layer_4
 62
7
100
AcDbSpline
 70
8
 71
3
 72
8
 73
4
 74
0
 40
0
 40
0
 40
0
 40
0
 40
1
 40
1
 40
1
 40
1
 10
216.616564
 20
84.504147
 30
0.0
 10
217.082982
 20
84.842711
 30
0.0
 10
217.875863
 20
85.664940
 30
0.0
 10
218.342280
 20
86.487169
 30
0.0
  0
LWPOLYLINE
  5
23c
100
AcDbEntity
  8
Layer_4
 62
7
100
AcDbPolyline
 90
2
 70
0
 10
216.616564
 20
84.407417
 30
0.0
 10
216.616564
 20
84.504147
 30
0.0
  0
SPLINE
  5
23d
100
AcDbEntity
  8
Layer_4
 62
7
100
AcDbSpline
 70
8
 71
3
 72
8
 73
4
 74
0
 40
0
 40
0
 40
0
 40
0
 40
1
 40
1
 40
1
 40
1
 10
210.553257
 20
86.487169
 30
0.0
 10
210.739767
 20
87.841430
 30
0.0
 10
210.833117
 20
89.195691
 30
0.0
 10
210.833117
 20
90.646684
 30
0.0
  0
LWPOLYLINE
  5
23e
100
AcDbEntity
  8
Layer_4
 62
7
100
AcDbPolyline
 90
5
 70
0
 10
218.342280
 20
86.487169
 30
0.0
 10
223.099638
 20
94.902931
 30
0.0
 10
216.803146
 20
94.902931
 30
0.0
 10
211.999137
 20
86.487169
 30
0.0
 10
210.553257
 20
86.487169
 30
0.0
  0
SPLINE
  5
23f
100
AcDbEntity
  8
Layer_4
 62
7
100
AcDbSpline
 70
8
 71
3
 72
8
 73
4
 74
0
 40
0
 40
0
 40
0
 40
0
 40
1
 40
1
 40
1
 40
1
 10
210.833117
 20
78.942011
 30
0.0
 10
210.833117
 20
80.006065
 30
0.0
 10
210.739862
 20
81.263603
 30
0.0
 10
210.553257
 20
82.521117
 30
0.0
  0
LWPOLYLINE
  5
240
100
AcDbEntity
  8
Layer_4
 62
7
100
AcDbPolyline
 90
6
 70
0
 10
210.833117
 20
90.646684
 30
0.0
 10
210.833117
 20
105.059883
 30
0.0
 10
205.189575
 20
105.059883
 30
0.0
 10
205.189575
 20
71.203372
 30
0.0
 10
210.833117
 20
71.203372
 30
0.0
 10
210.833117
 20
78.942011
 30
0.0
  0
SPLINE
  5
241
100
AcDbEntity
  8
Layer_4
 62
7
100
AcDbSpline
 70
8
 71
3
 72
8
 73
4
 74
0
 40
0
 40
0
 40
0
 40
0
 40
1
 40
1
 40
1
 40
1
 10
235.477735
 20
75.459636
 30
0.0
 10
232.632651
 20
75.459636
 30
0.0
 10
231.419980
 20
76.281852
 30
0.0
 10
231.140143
 20
80.586469
 30
0.0
  0
LWPOLYLINE
  5
242
100
AcDbEntity
  8
Layer_4
 62
7
100
AcDbPolyline
 90
2
 70
0
 10
210.553257
 20
82.521117
 30
0.0
 10
212.092415
 20
82.521117
 30
0.0
  0
SPLINE
  5
243
100
AcDbEntity
  8
Layer_4
 62
7
100
AcDbSpline
 70
8
 71
3
 72
8
 73
4
 74
0
 40
0
 40
0
 40
0
 40
0
 40
1
 40
1
 40
1
 40
1
 10
237.949705
 20
80.586469
 30
0.0
 10
241.680973
 20
80.586469
 30
0.0
 10
243.360037
 20
83.101521
 30
0.0
 10
243.360037
 20
87.357768
 30
0.0
  0
SPLINE
  5
244
100
AcDbEntity
  8
Layer_4
 62
7
100
AcDbSpline
 70
8
 71
3
 72
8
 73
4
 74
0
 40
0
 40
0
 40
0
 40
0
 40
1
 40
1
 40
1
 40
1
 10
243.360037
 20
87.357768
 30
0.0
 10
243.360037
 20
92.726444
 30
0.0
 10
240.934719
 20
95.580062
 30
0.0
 10
234.544924
 20
95.580062
 30
0.0
  0
SPLINE
  5
245
100
AcDbEntity
  8
Layer_4
 62
7
100
AcDbSpline
 70
8
 71
3
 72
8
 73
4
 74
0
 40
0
 40
0
 40
0
 40
0
 40
1
 40
1
 40
1
 40
1
 10
234.544924
 20
95.580062
 30
0.0
 10
227.968572
 20
95.580062
 30
0.0
 10
225.170115
 20
92.484611
 30
0.0
 10
225.170115
 20
83.101521
 30
0.0
  0
SPLINE
  5
246
100
AcDbEntity
  8
Layer_4
 62
7
100
AcDbSpline
 70
8
 71
3
 72
8
 73
4
 74
0
 40
0
 40
0
 40
0
 40
0
 40
1
 40
1
 40
1
 40
1
 10
225.170115
 20
83.101521
 30
0.0
 10
225.170115
 20
74.056990
 30
0.0
 10
227.782014
 20
70.622992
 30
0.0
 10
234.778133
 20
70.622992
 30
0.0
  0
SPLINE
  5
247
100
AcDbEntity
  8
Layer_4
 62
7
100
AcDbSpline
 70
8
 71
3
 72
8
 73
4
 74
0
 40
0
 40
0
 40
0
 40
0
 40
1
 40
1
 40
1
 40
1
 10
234.778133
 20
70.622992
 30
0.0
 10
237.343381
 20
70.622992
 30
0.0
 10
240.654859
 20
71.009912
 30
0.0
 10
242.846992
 20
72.219073
 30
0.0
  0
LWPOLYLINE
  5
248
100
AcDbEntity
  8
Layer_4
 62
7
100
AcDbPolyline
 90
2
 70
0
 10
231.140143
 20
80.586469
 30
0.0
 10
237.949705
 20
80.586469
 30
0.0
  0
SPLINE
  5
249
100
AcDbEntity
  8
Layer_4
 62
7
100
AcDbSpline
 70
8
 71
3
 72
8
 73
4
 74
0
 40
0
 40
0
 40
0
 40
0
 40
1
 40
1
 40
1
 40
1
 10
242.380575
 20
75.991663
 30
0.0
 10
239.861978
 20
75.653096
 30
0.0
 10
237.110172
 20
75.459636
 30
0.0
 10
235.477735
 20
75.459636
 30
0.0
  0
LWPOLYLINE
  5
24a
100
AcDbEntity
  8
Layer_4
 62
7
100
AcDbPolyline
 90
2
 70
0
 10
242.846992
 20
72.219073
 30
0.0
 10
242.380575
 20
75.991663
 30
0.0
  0
SPLINE
  5
24b
100
AcDbEntity
  8
Layer_4
 62
7
100
AcDbSpline
 70
8
 71
3
 72
8
 73
4
 74
0
 40
0
 40
0
 40
0
 40
0
 40
1
 40
1
 40
1
 40
1
 10
234.778133
 20
90.936886
 30
0.0
 10
237.203451
 20
90.936886
 30
0.0
 10
237.809775
 20
89.969557
 30
0.0
 10
237.763147
 20
87.454500
 30
0.0
  0
SPLINE
  5
24c
100
AcDbEntity
  8
Layer_4
 62
7
100
AcDbSpline
 70
8
 71
3
 72
8
 73
4
 74
0
 40
0
 40
0
 40
0
 40
0
 40
1
 40
1
 40
1
 40
1
 10
237.763147
 20
87.454500
 30
0.0
 10
237.763147
 20
86.196975
 30
0.0
 10
237.716401
 20
84.697614
 30
0.0
 10
236.363919
 20
84.697614
 30
0.0
  0
LWPOLYLINE
  5
24d
100
AcDbEntity
  8
Layer_4
 62
7
100
AcDbPolyline
 90
1
 70
1
 10
235.477735
 20
75.459636
 30
0.0
  0
SPLINE
  5
24e
100
AcDbEntity
  8
Layer_4
 62
7
100
AcDbSpline
 70
8
 71
3
 72
8
 73
4
 74
0
 40
0
 40
0
 40
0
 40
0
 40
1
 40
1
 40
1
 40
1
 10
231.046865
 20
84.697614
 30
0.0
 10
231.140120
 20
89.679358
 30
0.0
 10
231.979676
 20
90.936886
 30
0.0
 10
234.778133
 20
90.936886
 30
0.0
  0
LWPOLYLINE
  5
24f
100
AcDbEntity
  8
Layer_4
 62
7
100
AcDbPolyline
 90
2
 70
0
 10
236.363919
 20
84.697614
 30
0.0
 10
231.046865
 20
84.697614
 30
0.0
  0
LWPOLYLINE
  5
250
100
AcDbEntity
  8
Layer_4
 62
7
100
AcDbPolyline
 90
1
 70
1
 10
234.778133
 20
90.936886
 30
0.0
  0
SPLINE
  5
251
100
AcDbEntity
  8
Layer_4
 62
7
100
AcDbSpline
 70
8
 71
3
 72
8
 73
4
 74
0
 40
0
 40
0
 40
0
 40
0
 40
1
 40
1
 40
1
 40
1
 10
259.935772
 20
95.580062
 30
0.0
 10
257.510454
 20
95.580062
 30
0.0
 10
254.898578
 20
94.080704
 30
0.0
 10
252.473260
 20
91.468915
 30
0.0
  0
LWPOLYLINE
  5
252
100
AcDbEntity
  8
Layer_4
 62
7
100
AcDbPolyline
 90
2
 70
0
 10
260.915235
 20
95.580062
 30
0.0
 10
259.935772
 20
95.580062
 30
0.0
  0
SPLINE
  5
253
100
AcDbEntity
  8
Layer_4
 62
7
100
AcDbSpline
 70
8
 71
3
 72
8
 73
4
 74
0
 40
0
 40
0
 40
0
 40
0
 40
1
 40
1
 40
1
 40
1
 10
253.219514
 20
88.034900
 30
0.0
 10
255.691459
 20
89.340793
 30
0.0
 10
257.277245
 20
90.066290
 30
0.0
 10
258.816404
 20
90.066290
 30
0.0
  0
LWPOLYLINE
  5
254
100
AcDbEntity
  8
Layer_4
 62
7
100
AcDbPolyline
 90
6
 70
0
 10
252.473260
 20
91.468915
 30
0.0
 10
251.960215
 20
94.902933
 30
0.0
 10
247.575972
 20
94.902933
 30
0.0
 10
247.575972
 20
71.203372
 30
0.0
 10
253.219514
 20
71.203372
 30
0.0
 10
253.219514
 20
88.034900
 30
0.0
  0
SPLINE
  5
255
100
AcDbEntity
  8
Layer_4
 62
7
100
AcDbSpline
 70
8
 71
3
 72
8
 73
4
 74
0
 40
0
 40
0
 40
0
 40
0
 40
1
 40
1
 40
1
 40
1
 10
275.858533
 20
95.580062
 30
0.0
 10
273.433214
 20
95.580062
 30
0.0
 10
271.101175
 20
94.225802
 30
0.0
 10
269.282180
 20
91.759115
 30
0.0
  0
SPLINE
  5
256
100
AcDbEntity
  8
Layer_4
 62
7
100
AcDbSpline
 70
8
 71
3
 72
8
 73
4
 74
0
 40
0
 40
0
 40
0
 40
0
 40
1
 40
1
 40
1
 40
1
 10
269.282180
 20
91.759115
 30
0.0
 10
269.701946
 20
93.451940
 30
0.0
 10
269.841876
 20
95.144766
 30
0.0
 10
269.841876
 20
97.079423
 30
0.0
  0
LWPOLYLINE
  5
257
100
AcDbEntity
  8
Layer_4
 62
7
100
AcDbPolyline
 90
3
 70
0
 10
258.816404
 20
90.066290
 30
0.0
 10
260.355539
 20
90.066290
 30
0.0
 10
260.915235
 20
95.580062
 30
0.0
  0
SPLINE
  5
258
100
AcDbEntity
  8
Layer_4
 62
7
100
AcDbSpline
 70
8
 71
3
 72
8
 73
4
 74
0
 40
0
 40
0
 40
0
 40
0
 40
1
 40
1
 40
1
 40
1
 10
264.151613
 20
72.412533
 30
0.0
 10
266.437001
 20
71.203372
 30
0.0
 10
270.961150
 20
70.622992
 30
0.0
 10
273.619677
 20
70.622992
 30
0.0
  0
SPLINE
  5
259
100
AcDbEntity
  8
Layer_4
 62
7
100
AcDbSpline
 70
8
 71
3
 72
8
 73
4
 74
0
 40
0
 40
0
 40
0
 40
0
 40
1
 40
1
 40
1
 40
1
 10
273.619677
 20
70.622992
 30
0.0
 10
281.035562
 20
70.622992
 30
0.0
 10
282.714651
 20
75.604718
 30
0.0
 10
282.714651
 20
83.198251
 30
0.0
  0
SPLINE
  5
25a
100
AcDbEntity
  8
Layer_4
 62
7
100
AcDbSpline
 70
8
 71
3
 72
8
 73
4
 74
0
 40
0
 40
0
 40
0
 40
0
 40
1
 40
1
 40
1
 40
1
 10
282.714651
 20
83.198251
 30
0.0
 10
282.714651
 20
92.049312
 30
0.0
 10
280.522517
 20
95.580062
 30
0.0
 10
275.858438
 20
95.580062
 30
0.0
  0
LWPOLYLINE
  5
25b
100
AcDbEntity
  8
Layer_4
 62
7
100
AcDbPolyline
 90
4
 70
0
 10
269.841876
 20
97.079423
 30
0.0
 10
269.795131
 20
105.059885
 30
0.0
 10
264.151613
 20
105.059885
 30
0.0
 10
264.151613
 20
72.412533
 30
0.0
  0
SPLINE
  5
25c
100
AcDbEntity
  8
Layer_4
 62
7
100
AcDbSpline
 70
8
 71
3
 72
8
 73
4
 74
0
 40
0
 40
0
 40
0
 40
0
 40
1
 40
1
 40
1
 40
1
 10
273.479866
 20
75.314529
 30
0.0
 10
272.453752
 20
75.266053
 30
0.0
 10
271.007896
 20
75.411234
 30
0.0
 10
269.795225
 20
75.798178
 30
0.0
  0
LWPOLYLINE
  5
25d
100
AcDbEntity
  8
Layer_4
 62
7
100
AcDbPolyline
 90
1
 70
1
 10
275.858438
 20
95.580062
 30
0.0
  0
SPLINE
  5
25e
100
AcDbEntity
  8
Layer_4
 62
7
100
AcDbSpline
 70
8
 71
3
 72
8
 73
4
 74
0
 40
0
 40
0
 40
0
 40
0
 40
1
 40
1
 40
1
 40
1
 10
269.748716
 20
88.131632
 30
0.0
 10
271.054665
 20
89.630990
 30
0.0
 10
272.174034
 20
90.646686
 30
0.0
 10
273.619890
 20
90.646686
 30
0.0
  0
SPLINE
  5
25f
100
AcDbEntity
  8
Layer_4
 62
7
100
AcDbSpline
 70
8
 71
3
 72
8
 73
4
 74
0
 40
0
 40
0
 40
0
 40
0
 40
1
 40
1
 40
1
 40
1
 10
273.619890
 20
90.646686
 30
0.0
 10
276.464974
 20
90.646686
 30
0.0
 10
276.884764
 20
88.808761
 30
0.0
 10
276.884764
 20
83.198251
 30
0.0
  0
SPLINE
  5
260
100
AcDbEntity
  8
Layer_4
 62
7
100
AcDbSpline
 70
8
 71
3
 72
8
 73
4
 74
0
 40
0
 40
0
 40
0
 40
0
 40
1
 40
1
 40
1
 40
1
 10
276.884764
 20
83.198251
 30
0.0
 10
276.884764
 20
77.200824
 30
0.0
 10
275.998581
 20
75.362881
 30
0.0
 10
273.479984
 20
75.314529
 30
0.0
  0
LWPOLYLINE
  5
261
100
AcDbEntity
  8
Layer_4
 62
7
100
AcDbPolyline
 90
2
 70
0
 10
269.795225
 20
75.798178
 30
0.0
 10
269.748716
 20
88.131632
 30
0.0
  0
SPLINE
  5
262
100
AcDbEntity
  8
Layer_4
 62
7
100
AcDbSpline
 70
8
 71
3
 72
8
 73
4
 74
0
 40
0
 40
0
 40
0
 40
0
 40
1
 40
1
 40
1
 40
1
 10
295.839072
 20
95.580062
 30
0.0
 10
288.936232
 20
95.580062
 30
0.0
 10
286.324333
 20
92.146047
 30
0.0
 10
286.324333
 20
83.053144
 30
0.0
  0
SPLINE
  5
263
100
AcDbEntity
  8
Layer_4
 62
7
100
AcDbSpline
 70
8
 71
3
 72
8
 73
4
 74
0
 40
0
 40
0
 40
0
 40
0
 40
1
 40
1
 40
1
 40
1
 10
286.324333
 20
83.053144
 30
0.0
 10
286.324333
 20
73.960261
 30
0.0
 10
288.936232
 20
70.574615
 30
0.0
 10
295.839072
 20
70.574615
 30
0.0
  0
SPLINE
  5
264
100
AcDbEntity
  8
Layer_4
 62
7
100
AcDbSpline
 70
8
 71
3
 72
8
 73
4
 74
0
 40
0
 40
0
 40
0
 40
0
 40
1
 40
1
 40
1
 40
1
 10
295.839072
 20
70.574615
 30
0.0
 10
302.788539
 20
70.574615
 30
0.0
 10
305.400415
 20
73.960261
 30
0.0
 10
305.400415
 20
83.053144
 30
0.0
  0
SPLINE
  5
265
100
AcDbEntity
  8
Layer_4
 62
7
100
AcDbSpline
 70
8
 71
3
 72
8
 73
4
 74
0
 40
0
 40
0
 40
0
 40
0
 40
1
 40
1
 40
1
 40
1
 10
305.400415
 20
83.053144
 30
0.0
 10
305.400415
 20
92.146047
 30
0.0
 10
302.788539
 20
95.580062
 30
0.0
 10
295.839072
 20
95.580062
 30
0.0
  0
LWPOLYLINE
  5
266
100
AcDbEntity
  8
Layer_4
 62
7
100
AcDbPolyline
 90
2
 70
0
 10
273.479984
 20
75.314529
 30
0.0
 10
273.479866
 20
75.314529
 30
0.0
  0
SPLINE
  5
267
100
AcDbEntity
  8
Layer_4
 62
7
100
AcDbSpline
 70
8
 71
3
 72
8
 73
4
 74
0
 40
0
 40
0
 40
0
 40
0
 40
1
 40
1
 40
1
 40
1
 10
295.885818
 20
90.888519
 30
0.0
 10
298.777553
 20
90.888519
 30
0.0
 10
299.523807
 20
89.195693
 30
0.0
 10
299.523807
 20
83.053144
 30
0.0
  0
SPLINE
  5
268
100
AcDbEntity
  8
Layer_4
 62
7
100
AcDbSpline
 70
8
 71
3
 72
8
 73
4
 74
0
 40
0
 40
0
 40
0
 40
0
 40
1
 40
1
 40
1
 40
1
 10
299.523807
 20
83.053144
 30
0.0
 10
299.523807
 20
76.958987
 30
0.0
 10
298.777553
 20
75.266151
 30
0.0
 10
295.885818
 20
75.266151
 30
0.0
  0
SPLINE
  5
269
100
AcDbEntity
  8
Layer_4
 62
7
100
AcDbSpline
 70
8
 71
3
 72
8
 73
4
 74
0
 40
0
 40
0
 40
0
 40
0
 40
1
 40
1
 40
1
 40
1
 10
295.885818
 20
75.266151
 30
0.0
 10
292.994082
 20
75.266151
 30
0.0
 10
292.247852
 20
76.958987
 30
0.0
 10
292.247852
 20
83.053144
 30
0.0
  0
SPLINE
  5
26a
100
AcDbEntity
  8
Layer_4
 62
7
100
AcDbSpline
 70
8
 71
3
 72
8
 73
4
 74
0
 40
0
 40
0
 40
0
 40
0
 40
1
 40
1
 40
1
 40
1
 10
292.247852
 20
83.053144
 30
0.0
 10
292.247852
 20
89.195693
 30
0.0
 10
292.994082
 20
90.888519
 30
0.0
 10
295.885818
 20
90.888519
 30
0.0
  0
LWPOLYLINE
  5
26b
100
AcDbEntity
  8
Layer_4
 62
7
100
AcDbPolyline
 90
1
 70
1
 10
295.839072
 20
95.580062
 30
0.0
  0
LWPOLYLINE
  5
26c
100
AcDbEntity
  8
Layer_4
 62
7
100
AcDbPolyline
 90
1
 70
1
 10
295.885818
 20
90.888519
 30
0.0
  0
SPLINE
  5
26d
100
AcDbEntity
  8
Layer_4
 62
7
100
AcDbSpline
 70
8
 71
3
 72
8
 73
4
 74
0
 40
0
 40
0
 40
0
 40
0
 40
1
 40
1
 40
1
 40
1
 10
311.528600
 20
77.587743
 30
0.0
 10
311.528600
 20
73.186397
 30
0.0
 10
313.440873
 20
70.671345
 30
0.0
 10
316.845654
 20
70.671345
 30
0.0
  0
SPLINE
  5
26e
100
AcDbEntity
  8
Layer_4
 62
7
100
AcDbSpline
 70
8
 71
3
 72
8
 73
4
 74
0
 40
0
 40
0
 40
0
 40
0
 40
1
 40
1
 40
1
 40
1
 10
316.845654
 20
70.671345
 30
0.0
 10
318.151580
 20
70.671345
 30
0.0
 10
320.716828
 20
70.961535
 30
0.0
 10
322.069429
 20
71.493586
 30
0.0
  0
LWPOLYLINE
  5
26f
100
AcDbEntity
  8
Layer_4
 62
7
100
AcDbPolyline
 90
11
 70
0
 10
317.125490
 20
90.646686
 30
0.0
 10
322.209335
 20
90.646686
 30
0.0
 10
322.209335
 20
94.902933
 30
0.0
 10
317.125490
 20
94.902933
 30
0.0
 10
317.125490
 20
101.722600
 30
0.0
 10
311.528600
 20
101.722600
 30
0.0
 10
311.528600
 20
94.902933
 30
0.0
 10
308.170471
 20
94.661096
 30
0.0
 10
308.170471
 20
90.646681
 30
0.0
 10
311.528600
 20
90.646681
 30
0.0
 10
311.528600
 20
77.587743
 30
0.0
  0
SPLINE
  5
270
100
AcDbEntity
  8
Layer_4
 62
7
100
AcDbSpline
 70
8
 71
3
 72
8
 73
4
 74
0
 40
0
 40
0
 40
0
 40
0
 40
1
 40
1
 40
1
 40
1
 10
319.131042
 20
75.846556
 30
0.0
 10
317.545256
 20
75.846556
 30
0.0
 10
317.125490
 20
76.523690
 30
0.0
 10
317.125490
 20
78.555067
 30
0.0
  0
LWPOLYLINE
  5
271
100
AcDbEntity
  8
Layer_4
 62
7
100
AcDbPolyline
 90
3
 70
0
 10
322.069429
 20
71.493586
 30
0.0
 10
321.463082
 20
75.846556
 30
0.0
 10
319.131042
 20
75.846556
 30
0.0
  0
SPLINE
  5
272
100
AcDbEntity
  8
Layer_4
 62
7
100
AcDbSpline
 70
8
 71
3
 72
8
 73
4
 74
0
 40
0
 40
0
 40
0
 40
0
 40
1
 40
1
 40
1
 40
1
 10
327.684592
 20
105.204985
 30
0.0
 10
326.611851
 20
105.204985
 30
0.0
 10
326.098807
 20
104.576221
 30
0.0
 10
326.098807
 20
103.512160
 30
0.0
  0
LWPOLYLINE
  5
273
100
AcDbEntity
  8
Layer_4
 62
7
100
AcDbPolyline
 90
2
 70
0
 10
317.125490
 20
78.555067
 30
0.0
 10
317.125490
 20
90.646686
 30
0.0
  0
SPLINE
  5
274
100
AcDbEntity
  8
Layer_4
 62
7
100
AcDbSpline
 70
8
 71
3
 72
8
 73
4
 74
0
 40
0
 40
0
 40
0
 40
0
 40
1
 40
1
 40
1
 40
1
 10
326.098807
 20
100.852006
 30
0.0
 10
326.098807
 20
99.739577
 30
0.0
 10
326.611851
 20
99.159180
 30
0.0
 10
327.684592
 20
99.159180
 30
0.0
  0
LWPOLYLINE
  5
275
100
AcDbEntity
  8
Layer_4
 62
7
100
AcDbPolyline
 90
2
 70
0
 10
326.098807
 20
103.512160
 30
0.0
 10
326.098807
 20
100.852006
 30
0.0
  0
SPLINE
  5
276
100
AcDbEntity
  8
Layer_4
 62
7
100
AcDbSpline
 70
8
 71
3
 72
8
 73
4
 74
0
 40
0
 40
0
 40
0
 40
0
 40
1
 40
1
 40
1
 40
1
 10
330.249841
 20
99.159180
 30
0.0
 10
331.322582
 20
99.159180
 30
0.0
 10
331.882254
 20
99.739577
 30
0.0
 10
331.882254
 20
100.852006
 30
0.0
  0
LWPOLYLINE
  5
277
100
AcDbEntity
  8
Layer_4
 62
7
100
AcDbPolyline
 90
2
 70
0
 10
327.684592
 20
99.159180
 30
0.0
 10
330.249841
 20
99.159180
 30
0.0
  0
SPLINE
  5
278
100
AcDbEntity
  8
Layer_4
 62
7
100
AcDbSpline
 70
8
 71
3
 72
8
 73
4
 74
0
 40
0
 40
0
 40
0
 40
0
 40
1
 40
1
 40
1
 40
1
 10
331.882254
 20
103.512160
 30
0.0
 10
331.882254
 20
104.576221
 30
0.0
 10
331.322582
 20
105.204985
 30
0.0
 10
330.249841
 20
105.204985
 30
0.0
  0
LWPOLYLINE
  5
279
100
AcDbEntity
  8
Layer_4
 62
7
100
AcDbPolyline
 90
2
 70
0
 10
331.882254
 20
100.852006
 30
0.0
 10
331.882254
 20
103.512160
 30
0.0
  0
LWPOLYLINE
  5
27a
100
AcDbEntity
  8
Layer_4
 62
7
100
AcDbPolyline
 90
2
 70
0
 10
330.249841
 20
105.204985
 30
0.0
 10
327.684592
 20
105.204985
 30
0.0
  0
SPLINE
  5
27b
100
AcDbEntity
  8
Layer_4
 62
7
100
AcDbSpline
 70
8
 71
3
 72
8
 73
4
 74
0
 40
0
 40
0
 40
0
 40
0
 40
1
 40
1
 40
1
 40
1
 10
345.706254
 20
95.580062
 30
0.0
 10
338.896693
 20
95.580062
 30
0.0
 10
336.378096
 20
92.242779
 30
0.0
 10
336.378096
 20
83.101521
 30
0.0
  0
SPLINE
  5
27c
100
AcDbEntity
  8
Layer_4
 62
7
100
AcDbSpline
 70
8
 71
3
 72
8
 73
4
 74
0
 40
0
 40
0
 40
0
 40
0
 40
1
 40
1
 40
1
 40
1
 10
336.378096
 20
83.101521
 30
0.0
 10
336.378096
 20
73.911908
 30
0.0
 10
338.850066
 20
70.622992
 30
0.0
 10
345.659603
 20
70.622992
 30
0.0
  0
SPLINE
  5
27d
100
AcDbEntity
  8
Layer_4
 62
7
100
AcDbSpline
 70
8
 71
3
 72
8
 73
4
 74
0
 40
0
 40
0
 40
0
 40
0
 40
1
 40
1
 40
1
 40
1
 10
345.659603
 20
70.622992
 30
0.0
 10
348.178224
 20
70.622992
 30
0.0
 10
350.836751
 20
71.058289
 30
0.0
 10
352.842303
 20
72.073966
 30
0.0
  0
LWPOLYLINE
  5
27e
100
AcDbEntity
  8
Layer_4
 62
7
100
AcDbPolyline
 90
4
 70
1
 10
331.788975
 20
71.203372
 30
0.0
 10
331.788975
 20
94.902933
 30
0.0
 10
326.192085
 20
94.902933
 30
0.0
 10
326.192085
 20
71.203372
 30
0.0
  0
SPLINE
  5
27f
100
AcDbEntity
  8
Layer_4
 62
7
100
AcDbSpline
 70
8
 71
3
 72
8
 73
4
 74
0
 40
0
 40
0
 40
0
 40
0
 40
1
 40
1
 40
1
 40
1
 10
352.375886
 20
75.943285
 30
0.0
 10
350.230404
 20
75.556366
 30
0.0
 10
347.851737
 20
75.459636
 30
0.0
 10
346.685717
 20
75.459636
 30
0.0
  0
SPLINE
  5
280
100
AcDbEntity
  8
Layer_4
 62
7
100
AcDbSpline
 70
8
 71
3
 72
8
 73
4
 74
0
 40
0
 40
0
 40
0
 40
0
 40
1
 40
1
 40
1
 40
1
 10
346.685717
 20
75.459636
 30
0.0
 10
343.374215
 20
75.459636
 30
0.0
 10
342.301474
 20
77.152446
 30
0.0
 10
342.301474
 20
83.101521
 30
0.0
  0
SPLINE
  5
281
100
AcDbEntity
  8
Layer_4
 62
7
100
AcDbSpline
 70
8
 71
3
 72
8
 73
4
 74
0
 40
0
 40
0
 40
0
 40
0
 40
1
 40
1
 40
1
 40
1
 10
342.301474
 20
83.101521
 30
0.0
 10
342.301474
 20
89.002228
 30
0.0
 10
343.374215
 20
90.646686
 30
0.0
 10
346.685717
 20
90.646686
 30
0.0
  0
SPLINE
  5
282
100
AcDbEntity
  8
Layer_4
 62
7
100
AcDbSpline
 70
8
 71
3
 72
8
 73
4
 74
0
 40
0
 40
0
 40
0
 40
0
 40
1
 40
1
 40
1
 40
1
 10
346.685717
 20
90.646686
 30
0.0
 10
348.084922
 20
90.646686
 30
0.0
 10
349.950567
 20
90.598309
 30
0.0
 10
351.956119
 20
90.549956
 30
0.0
  0
LWPOLYLINE
  5
283
100
AcDbEntity
  8
Layer_4
 62
7
100
AcDbPolyline
 90
2
 70
0
 10
352.842303
 20
72.073966
 30
0.0
 10
352.375886
 20
75.943285
 30
0.0
  0
SPLINE
  5
284
100
AcDbEntity
  8
Layer_4
 62
7
100
AcDbSpline
 70
8
 71
3
 72
8
 73
4
 74
0
 40
0
 40
0
 40
0
 40
0
 40
1
 40
1
 40
1
 40
1
 10
352.609094
 20
94.225804
 30
0.0
 10
350.556891
 20
95.241500
 30
0.0
 10
347.665155
 20
95.580065
 30
0.0
 10
345.706254
 20
95.580062
 30
0.0
  0
LWPOLYLINE
  5
285
100
AcDbEntity
  8
Layer_4
 62
7
100
AcDbPolyline
 90
2
 70
0
 10
351.956119
 20
90.549956
 30
0.0
 10
352.609094
 20
94.225804
 30
0.0
  0
SPLINE
  5
286
100
AcDbEntity
  8
Layer_4
 62
7
100
AcDbSpline
 70
8
 71
3
 72
8
 73
4
 74
0
 40
0
 40
0
 40
0
 40
0
 40
1
 40
1
 40
1
 40
1
 10
363.821172
 20
95.580062
 30
0.0
 10
358.037700
 20
95.580062
 30
0.0
 10
355.985521
 20
94.080704
 30
0.0
 10
355.985521
 20
88.857129
 30
0.0
  0
SPLINE
  5
287
100
AcDbEntity
  8
Layer_4
 62
7
100
AcDbSpline
 70
8
 71
3
 72
8
 73
4
 74
0
 40
0
 40
0
 40
0
 40
0
 40
1
 40
1
 40
1
 40
1
 10
355.985521
 20
88.857129
 30
0.0
 10
355.985521
 20
85.084546
 30
0.0
 10
356.964959
 20
83.101521
 30
0.0
 10
360.463019
 20
81.892360
 30
0.0
  0
LWPOLYLINE
  5
288
100
AcDbEntity
  8
Layer_4
 62
7
100
AcDbPolyline
 90
1
 70
1
 10
345.706254
 20
95.580062
 30
0.0
  0
SPLINE
  5
289
100
AcDbEntity
  8
Layer_4
 62
7
100
AcDbSpline
 70
8
 71
3
 72
8
 73
4
 74
0
 40
0
 40
0
 40
0
 40
0
 40
1
 40
1
 40
1
 40
1
 10
365.033819
 20
80.199525
 30
0.0
 10
366.806162
 20
79.570768
 30
0.0
 10
367.645718
 20
79.425661
 30
0.0
 10
367.645718
 20
77.636121
 30
0.0
  0
SPLINE
  5
28a
100
AcDbEntity
  8
Layer_4
 62
7
100
AcDbSpline
 70
8
 71
3
 72
8
 73
4
 74
0
 40
0
 40
0
 40
0
 40
0
 40
1
 40
1
 40
1
 40
1
 10
367.645718
 20
77.636121
 30
0.0
 10
367.645718
 20
75.749826
 30
0.0
 10
366.759535
 20
75.362881
 30
0.0
 10
362.981639
 20
75.362881
 30
0.0
  0
SPLINE
  5
28b
100
AcDbEntity
  8
Layer_4
 62
7
100
AcDbSpline
 70
8
 71
3
 72
8
 73
4
 74
0
 40
0
 40
0
 40
0
 40
0
 40
1
 40
1
 40
1
 40
1
 10
362.981639
 20
75.362881
 30
0.0
 10
360.602949
 20
75.362881
 30
0.0
 10
357.897794
 20
75.411356
 30
0.0
 10
356.638472
 20
75.508062
 30
0.0
  0
LWPOLYLINE
  5
28c
100
AcDbEntity
  8
Layer_4
 62
7
100
AcDbPolyline
 90
2
 70
0
 10
360.463019
 20
81.892360
 30
0.0
 10
365.033819
 20
80.199525
 30
0.0
  0
SPLINE
  5
28d
100
AcDbEntity
  8
Layer_4
 62
7
100
AcDbSpline
 70
8
 71
3
 72
8
 73
4
 74
0
 40
0
 40
0
 40
0
 40
0
 40
1
 40
1
 40
1
 40
1
 10
356.311984
 20
71.445282
 30
0.0
 10
359.856695
 20
70.719795
 30
0.0
 10
363.261475
 20
70.671418
 30
0.0
 10
364.474123
 20
70.671418
 30
0.0
  0
SPLINE
  5
28e
100
AcDbEntity
  8
Layer_4
 62
7
100
AcDbSpline
 70
8
 71
3
 72
8
 73
4
 74
0
 40
0
 40
0
 40
0
 40
0
 40
1
 40
1
 40
1
 40
1
 10
364.474123
 20
70.671418
 30
0.0
 10
370.584082
 20
70.671418
 30
0.0
 10
373.056051
 20
71.880579
 30
0.0
 10
373.056051
 20
77.684547
 30
0.0
  0
SPLINE
  5
28f
100
AcDbEntity
  8
Layer_4
 62
7
100
AcDbSpline
 70
8
 71
3
 72
8
 73
4
 74
0
 40
0
 40
0
 40
0
 40
0
 40
1
 40
1
 40
1
 40
1
 10
373.056051
 20
77.684547
 30
0.0
 10
373.056051
 20
81.844056
 30
0.0
 10
371.656823
 20
83.391784
 30
0.0
 10
368.485251
 20
84.504223
 30
0.0
  0
LWPOLYLINE
  5
290
100
AcDbEntity
  8
Layer_4
 62
7
100
AcDbPolyline
 90
2
 70
0
 10
356.638472
 20
75.508062
 30
0.0
 10
356.311984
 20
71.445282
 30
0.0
  0
SPLINE
  5
291
100
AcDbEntity
  8
Layer_4
 62
7
100
AcDbSpline
 70
8
 71
3
 72
8
 73
4
 74
0
 40
0
 40
0
 40
0
 40
0
 40
1
 40
1
 40
1
 40
1
 10
363.821172
 20
86.245413
 30
0.0
 10
362.095456
 20
86.874177
 30
0.0
 10
361.442481
 20
86.922545
 30
0.0
 10
361.442481
 20
88.808835
 30
0.0
  0
SPLINE
  5
292
100
AcDbEntity
  8
Layer_4
 62
7
100
AcDbSpline
 70
8
 71
3
 72
8
 73
4
 74
0
 40
0
 40
0
 40
0
 40
0
 40
1
 40
1
 40
1
 40
1
 10
361.442481
 20
88.808835
 30
0.0
 10
361.442481
 20
90.791860
 30
0.0
 10
362.002177
 20
90.840225
 30
0.0
 10
364.893913
 20
90.840225
 30
0.0
  0
SPLINE
  5
293
100
AcDbEntity
  8
Layer_4
 62
7
100
AcDbSpline
 70
8
 71
3
 72
8
 73
4
 74
0
 40
0
 40
0
 40
0
 40
0
 40
1
 40
1
 40
1
 40
1
 10
364.893913
 20
90.840225
 30
0.0
 10
367.225952
 20
90.840225
 30
0.0
 10
369.604619
 20
90.743495
 30
0.0
 10
372.029938
 20
90.646765
 30
0.0
  0
LWPOLYLINE
  5
294
100
AcDbEntity
  8
Layer_4
 62
7
100
AcDbPolyline
 90
2
 70
0
 10
368.485251
 20
84.504223
 30
0.0
 10
363.821172
 20
86.245413
 30
0.0
  0
SPLINE
  5
295
100
AcDbEntity
  8
Layer_4
 62
7
100
AcDbSpline
 70
8
 71
3
 72
8
 73
4
 74
0
 40
0
 40
0
 40
0
 40
0
 40
1
 40
1
 40
1
 40
1
 10
372.403076
 20
94.709544
 30
0.0
 10
370.117664
 20
95.193209
 30
0.0
 10
366.479699
 20
95.531776
 30
0.0
 10
363.821172
 20
95.580141
 30
0.0
  0
LWPOLYLINE
  5
296
100
AcDbEntity
  8
Layer_4
 62
7
100
AcDbPolyline
 90
2
 70
0
 10
372.029938
 20
90.646765
 30
0.0
 10
372.403076
 20
94.709544
 30
0.0
  0
LWPOLYLINE
  5
297
100
AcDbEntity
  8
Layer_4
 62
7
100
AcDbPolyline
 90
1
 70
1
 10
363.821172
 20
95.580141
 30
0.0
  0
SPLINE
  5
298
100
AcDbEntity
  8
Layer_4
 62
7
100
AcDbSpline
 70
8
 71
3
 72
8
 73
4
 74
0
 40
0
 40
0
 40
0
 40
0
 40
1
 40
1
 40
1
 40
1
 10
148.537585
 20
102.150346
 30
0.0
 10
150.448809
 20
102.150346
 30
0.0
 10
151.665050
 20
101.059736
 30
0.0
 10
151.665050
 20
96.749234
 30
0.0
  0
SPLINE
  5
299
100
AcDbEntity
  8
Layer_4
 62
7
100
AcDbSpline
 70
8
 71
3
 72
8
 73
4
 74
0
 40
0
 40
0
 40
0
 40
0
 40
1
 40
1
 40
1
 40
1
 10
151.665050
 20
96.749234
 30
0.0
 10
151.665050
 20
92.127127
 30
0.0
 10
150.622555
 20
91.400056
 30
0.0
 10
148.537585
 20
91.400056
 30
0.0
  0
LWPOLYLINE
  5
29a
100
AcDbEntity
  8
Layer_4
 62
7
100
AcDbPolyline
 90
3
 70
0
 10
141.327064
 20
91.400056
 30
0.0
 10
141.327064
 20
102.150346
 30
0.0
 10
148.537585
 20
102.150346
 30
0.0
  0
LWPOLYLINE
  5
29b
100
AcDbEntity
  8
Layer_4
 62
7
100
AcDbPolyline
 90
2
 70
0
 10
148.537585
 20
91.400056
 30
0.0
 10
141.327064
 20
91.400056
 30
0.0
  0
SPLINE
  5
29c
100
AcDbEntity
  8
Layer_4
 62
7
100
AcDbSpline
 70
8
 71
3
 72
8
 73
4
 74
0
 40
0
 40
0
 40
0
 40
0
 40
1
 40
1
 40
1
 40
1
 10
152.707524
 20
85.531541
 30
0.0
 10
154.488434
 20
86.206679
 30
0.0
 10
157.789644
 20
87.349221
 30
0.0
 10
157.789644
 20
96.749234
 30
0.0
  0
SPLINE
  5
29d
100
AcDbEntity
  8
Layer_4
 62
7
100
AcDbSpline
 70
8
 71
3
 72
8
 73
4
 74
0
 40
0
 40
0
 40
0
 40
0
 40
1
 40
1
 40
1
 40
1
 10
157.789644
 20
96.749234
 30
0.0
 10
157.789644
 20
105.837642
 30
0.0
 10
154.097511
 20
108.590131
 30
0.0
 10
149.102274
 20
108.590131
 30
0.0
  0
LWPOLYLINE
  5
29e
100
AcDbEntity
  8
Layer_4
 62
7
100
AcDbPolyline
 90
7
 70
0
 10
135.202470
 20
70.574615
 30
0.0
 10
141.283633
 20
70.574615
 30
0.0
 10
141.283633
 20
85.687342
 30
0.0
 10
146.626361
 20
84.960268
 30
0.0
 10
151.882227
 20
70.574615
 30
0.0
 10
158.745256
 20
70.574615
 30
0.0
 10
152.707524
 20
85.531541
 30
0.0
  0
LWPOLYLINE
  5
29f
100
AcDbEntity
  8
Layer_4
 62
7
100
AcDbPolyline
 90
3
 70
0
 10
149.102274
 20
108.590131
 30
0.0
 10
135.202470
 20
108.590131
 30
0.0
 10
135.202470
 20
70.574615
 30
0.0
  0
ENDSEC
  0
SECTION
  2
OBJECTS
  0
DICTIONARY
  5
C
330
0
100
AcDbDictionary
  3
ACAD_GROUP
350
D
  3
ACAD_MLINESTYLE
350
17
  0
DICTIONARY
  5
D
330
C
100
AcDbDictionary
  0
DICTIONARY
  5
1A
330
C
100
AcDbDictionary
  0
DICTIONARY
  5
17
330
C
100
AcDbDictionary
  3
STANDARD
350
18
  0
DICTIONARY
  5
19
330
C
100
AcDbDictionary
  0
ENDSEC
  0
EOF
